<?xml version="1.0" encoding="UTF-8"?>
<svg id="Layer_2" data-name="Layer 2" xmlns="http://www.w3.org/2000/svg" viewBox="0 0 766.53 54.75">
  <defs>
    <style>
      .cls-1 {
        fill: #025054;
      }
    </style>
  </defs>
  <g id="Layer_1-2" data-name="Layer 1">
    <polygon class="cls-1" points="5.1 49.57 36.53 36.52 54.76 54.75 54.76 0 0 0 18.1 18.1 5.1 49.57"/>
    <g>
      <g>
        <path class="cls-1" d="M511.69,39.58V1.43h30.29v8.64h-20.28v6.24h18.24v8.12h-18.24v6.5h20.54v8.65h-30.55Z"/>
        <path class="cls-1" d="M608.22,1.43h11.37l-12.58,18.6,13.15,19.55h-11.69l-7.54-11.84-7.65,11.84h-11.37l13.1-19.39-12.58-18.76h11.69l6.97,11.11,7.13-11.11Z"/>
        <path class="cls-1" d="M659.61,39.58V1.43h16.25c4.79,0,8.58,1.19,11.37,3.56,2.8,2.38,4.19,5.64,4.19,9.8v.11c0,4.37-1.49,7.74-4.48,10.11-2.99,2.38-6.89,3.57-11.71,3.57h-5.5v11h-10.11ZM669.72,20.45h5.4c1.88,0,3.39-.46,4.51-1.39,1.12-.92,1.68-2.17,1.68-3.75v-.1c0-1.68-.55-2.95-1.65-3.82-1.1-.87-2.65-1.31-4.64-1.31h-5.29v10.38Z"/>
        <path class="cls-1" d="M760.63,34.57c-3.93,3.84-8.81,5.76-14.65,5.76s-10.7-1.91-14.59-5.74c-3.89-3.83-5.84-8.48-5.84-13.96v-.11c0-5.52,1.97-10.2,5.9-14.04,3.93-3.84,8.81-5.76,14.65-5.76s10.7,1.91,14.59,5.74c3.9,3.82,5.84,8.48,5.84,13.96v.1c0,5.52-1.97,10.2-5.9,14.05ZM746.09,31.16c2.97,0,5.38-1.02,7.23-3.06,1.85-2.04,2.78-4.53,2.78-7.47v-.11c0-2.94-.95-5.44-2.86-7.52-1.9-2.08-4.32-3.12-7.26-3.12s-5.34,1.02-7.21,3.06-2.8,4.53-2.8,7.47v.1c0,2.94.95,5.44,2.85,7.52,1.9,2.08,4.32,3.12,7.26,3.12Z"/>
      </g>
      <g>
        <path class="cls-1" d="M128.54,4.11h-23.85v14.06h21.32v4.05h-21.32v17.16h-4.44V0h28.29v4.11Z"/>
        <path class="cls-1" d="M195.07,40.89c-11.98,0-20.02-9.4-20.02-20.31S183.2.16,195.19.16s20.02,9.39,20.02,20.3-8.16,20.42-20.14,20.42ZM195.07,4.27c-9,0-15.41,7.2-15.41,16.2s6.52,16.31,15.52,16.31,15.41-7.2,15.41-16.2-6.53-16.31-15.52-16.31Z"/>
        <path class="cls-1" d="M281.96,40.89c-11.36,0-19.74-8.94-19.74-20.31S270.54.16,282.13.16c7.14,0,11.42,2.53,15.35,6.24l-3.04,3.26c-3.32-3.15-7.03-5.4-12.38-5.4-8.72,0-15.24,7.03-15.24,16.2s6.58,16.31,15.24,16.31c5.4,0,8.94-2.08,12.71-5.68l2.92,2.87c-4.11,4.16-8.6,6.92-15.75,6.92Z"/>
        <path class="cls-1" d="M377,23.08c0,11.48-6.58,17.44-16.43,17.44s-16.37-5.96-16.37-17.1V.53h4.44v22.61c0,8.49,4.5,13.27,12.04,13.27s11.87-4.39,11.87-12.99V.53h4.44v22.55Z"/>
        <path class="cls-1" d="M442.51,18.39c8.78,1.91,12.83,5.12,12.83,11.19,0,6.81-5.63,11.19-13.44,11.19-6.24,0-11.36-2.08-16.09-6.3l2.76-3.26c4.11,3.71,8.04,5.57,13.5,5.57s8.77-2.76,8.77-6.75c0-3.71-1.97-5.79-10.24-7.54-9.06-1.97-13.22-4.89-13.22-11.42s5.46-10.8,12.94-10.8c5.74,0,9.84,1.63,13.84,4.84l-2.59,3.43c-3.65-2.98-7.31-4.27-11.36-4.27-5.12,0-8.38,2.81-8.38,6.41s2.02,5.85,10.68,7.71Z"/>
      </g>
    </g>
  </g>
</svg>