<svg preserveAspectRatio="none" width="100%" height="100%" overflow="visible" style="display: block;" viewBox="0 0 48 48" fill="none" xmlns="http://www.w3.org/2000/svg">
<g id="Frame">
<path id="Vector" d="M22 4C30.135 4 36.852 10.0712 37.8674 17.9299L42.3684 25.0074C42.6648 25.4734 42.605 26.1694 41.9186 26.4634L38 28.142V34C38 36.2092 36.2092 38 34 38H30.002L30 44H12L12.0005 36.6122C12.0007 34.2504 11.127 32.0174 9.511 30.0022C7.31414 27.2626 6 23.7848 6 20C6 11.1634 13.1634 4 22 4ZM22 8C15.3726 8 10 13.3726 10 20C10 22.7698 10.9364 25.3858 12.6316 27.4998C14.8193 30.228 16.0007 33.3344 16.0005 36.6126L16.0003 40H26.0014L26.0034 34H34V25.5038L37.0994 24.1762L34.0144 19.3252L33.9002 18.4424C33.133 12.5028 28.0486 8 22 8ZM20.9394 15.5251L22 16.5858L23.0606 15.5251C24.4274 14.1583 26.6436 14.1583 28.0104 15.5251C29.3772 16.892 29.3772 19.108 28.0104 20.4748L22 26.4852L15.9896 20.4748C14.6228 19.108 14.6228 16.892 15.9896 15.5251C17.3564 14.1583 19.5725 14.1583 20.9394 15.5251Z" fill="var(--fill-0, #F68D6F)"/>
</g>
</svg>
