<svg preserveAspectRatio="none" width="100%" height="100%" overflow="visible" style="display: block;" viewBox="0 0 132.281 15.5922" fill="none" xmlns="http://www.w3.org/2000/svg">
<g id="Group">
<path id="Vector" d="M10.5396 1.78356H1.65391V7.0242H9.59269V8.53542H1.65391V14.9241H3.20737e-07V0.252882H10.5396V1.78356Z" fill="var(--fill-0, #F2E7D1)"/>
<path id="Vector_2" d="M35.3289 15.1706C30.8666 15.1706 27.8701 11.6682 27.8701 7.608C27.8701 3.54781 30.9055 0 35.3678 0C39.8301 0 42.8266 3.49592 42.8266 7.5626C42.8266 11.6293 39.7847 15.1706 35.3224 15.1706H35.3289ZM35.3289 1.53068C31.9757 1.53068 29.5888 4.20937 29.5888 7.5626C29.5888 10.9158 32.0211 13.6399 35.3743 13.6399C38.7275 13.6399 41.1143 10.9612 41.1143 7.608C41.1143 4.25477 38.6821 1.53068 35.3289 1.53068Z" fill="var(--fill-0, #F2E7D1)"/>
<path id="Vector_3" d="M67.6937 15.1706C63.4649 15.1706 60.3386 11.8368 60.3386 7.608C60.3386 3.37917 63.4389 0 67.7585 0C70.4178 0 72.0133 0.94046 73.4791 2.32196L72.3506 3.53483C71.1118 2.36088 69.7303 1.52419 67.7391 1.52419C64.4896 1.52419 62.0639 4.14451 62.0639 7.55611C62.0639 10.9677 64.5156 13.6334 67.7391 13.6334C69.7497 13.6334 71.0729 12.8551 72.4738 11.519L73.5635 12.5892C72.0328 14.1393 70.3594 15.1641 67.7002 15.1641L67.6937 15.1706Z" fill="var(--fill-0, #F2E7D1)"/>
<path id="Vector_4" d="M103.094 8.65217C103.094 12.9264 100.642 15.1446 96.9777 15.1446C93.3131 15.1446 90.8809 12.9264 90.8809 8.7754V0.252882H92.5348V8.67811C92.5348 11.8432 94.2082 13.6204 97.0166 13.6204C99.825 13.6204 101.44 11.9859 101.44 8.78189V0.252882H103.094V8.65217Z" fill="var(--fill-0, #F2E7D1)"/>
<path id="Vector_5" d="M127.501 7.25129C130.769 7.96475 132.281 9.15816 132.281 11.4218C132.281 13.9578 130.186 15.5922 127.273 15.5922C124.952 15.5922 123.045 14.8204 121.28 13.2443L122.305 12.0314C123.836 13.4129 125.302 14.1069 127.332 14.1069C129.362 14.1069 130.601 13.0821 130.601 11.5904C130.601 10.2089 129.868 9.43057 126.787 8.78197C123.414 8.04906 121.864 6.95943 121.864 4.5272C121.864 2.09498 123.894 0.505922 126.683 0.505922C128.824 0.505922 130.348 1.1156 131.84 2.30901L130.873 3.58674C129.511 2.47765 128.149 1.99769 126.644 1.99769C124.737 1.99769 123.525 3.04192 123.525 4.38451C123.525 5.7271 124.277 6.56378 127.507 7.25778L127.501 7.25129Z" fill="var(--fill-0, #F2E7D1)"/>
</g>
</svg>
