<svg preserveAspectRatio="none" width="100%" height="100%" overflow="visible" style="display: block;" viewBox="0 0 141.286 16.6622" fill="none" xmlns="http://www.w3.org/2000/svg">
<g id="Group">
<path id="Vector" d="M11.2597 1.91296H1.76965V7.50856H10.2503V9.12244H1.76965V15.9456H0V0.280389H11.2535V1.91296H11.2597Z" fill="var(--fill-0, #3EA0AB)"/>
<path id="Vector_2" d="M37.736 16.2073C32.9692 16.2073 29.7663 12.4686 29.7663 8.12546C29.7663 3.78233 33.0128 0 37.7796 0C42.5465 0 45.7493 3.73871 45.7493 8.07561C45.7493 12.4125 42.5029 16.2011 37.736 16.2011V16.2073ZM37.736 1.64503C34.1531 1.64503 31.6045 4.51138 31.6045 8.08807C31.6045 11.6648 34.2029 14.581 37.7796 14.581C41.3563 14.581 43.9111 11.7146 43.9111 8.13792C43.9111 4.56123 41.3127 1.65126 37.736 1.65126V1.64503Z" fill="var(--fill-0, #3EA0AB)"/>
<path id="Vector_3" d="M72.3004 16.2073C67.7828 16.2073 64.4429 12.6493 64.4429 8.12546C64.4429 3.60162 67.7579 0 72.3627 0C75.2041 0 76.9053 1.00322 78.4693 2.48624L77.2604 3.78233C75.9394 2.52986 74.4626 1.63257 72.3378 1.63257C68.867 1.63257 66.2749 4.43037 66.2749 8.07561C66.2749 11.7208 68.892 14.5685 72.3378 14.5685C74.4876 14.5685 75.8958 13.7397 77.3975 12.3066L78.5627 13.4469C76.9302 15.1044 75.1418 16.2011 72.2942 16.2011L72.3004 16.2073Z" fill="var(--fill-0, #3EA0AB)"/>
<path id="Vector_4" d="M110.117 9.24706C110.117 13.8145 107.5 16.1824 103.581 16.1824C99.6615 16.1824 97.0694 13.8083 97.0694 9.37791V0.267929H98.839V9.26575C98.839 12.6431 100.627 14.5498 103.631 14.5498C106.634 14.5498 108.354 12.8051 108.354 9.37791V0.267929H110.124V9.24082L110.117 9.24706Z" fill="var(--fill-0, #3EA0AB)"/>
<path id="Vector_5" d="M136.182 7.75159C139.672 8.5118 141.286 9.78919 141.286 12.2069C141.286 14.9175 139.049 16.6622 135.939 16.6622C133.453 16.6622 131.422 15.8334 129.54 14.1572L130.637 12.8612C132.269 14.338 133.839 15.0795 136.008 15.0795C138.176 15.0795 139.497 13.9828 139.497 12.3938C139.497 10.917 138.712 10.0883 135.422 9.39662C131.821 8.61149 130.163 7.44627 130.163 4.8541C130.163 2.26193 132.332 0.554583 135.31 0.554583C137.591 0.554583 139.229 1.20263 140.818 2.48002L139.79 3.84464C138.338 2.66072 136.88 2.14354 135.273 2.14354C133.235 2.14354 131.939 3.26515 131.939 4.69209C131.939 6.11903 132.743 7.02255 136.189 7.75783L136.182 7.75159Z" fill="var(--fill-0, #3EA0AB)"/>
</g>
</svg>
