<svg preserveAspectRatio="none" width="100%" height="100%" overflow="visible" style="display: block;" viewBox="0 0 141.286 16.2572" fill="none" xmlns="http://www.w3.org/2000/svg">
<g id="Group">
<path id="Vector" d="M0.00621825 15.472V0.292849H12.0573V3.73245H3.98795V6.21247H11.241V9.44644H3.98795V12.0324H12.157V15.472H0H0.00621825Z" fill="var(--fill-0, #3EA0AB)"/>
<path id="Vector_2" d="M38.4153 0.292849H42.9391L37.9354 7.69548L43.1697 15.472H38.5212L35.5178 10.7612L32.4707 15.472H27.9469L33.1624 7.7578L28.1587 0.292849H32.8072L35.5801 4.71075L38.4153 0.292849Z" fill="var(--fill-0, #3EA0AB)"/>
<path id="Vector_3" d="M58.8534 15.472V0.292849H65.3151C67.2219 0.292849 68.7298 0.766412 69.839 1.70732C70.9544 2.65446 71.5089 3.95055 71.5089 5.60804V5.65166C71.5089 7.39016 70.917 8.72986 69.7268 9.677C68.5367 10.6241 66.9851 11.0977 65.0659 11.0977H62.8788V15.4782H58.8534V15.472ZM62.8788 7.86373H65.0285C65.7763 7.86373 66.3745 7.67679 66.8231 7.30915C67.2655 6.94151 67.4898 6.44302 67.4898 5.8199V5.77628C67.4898 5.10954 67.2717 4.59859 66.8356 4.25588C66.3994 3.90693 65.7825 3.73245 64.9911 3.73245H62.885V7.86373H62.8788Z" fill="var(--fill-0, #3EA0AB)"/>
<path id="Vector_4" d="M99.0508 13.4718C97.4868 14.9984 95.5427 15.7649 93.2247 15.7649C90.9067 15.7649 88.9687 15.0047 87.4172 13.4843C85.8656 11.9639 85.093 10.1132 85.093 7.92606V7.88244C85.093 5.68906 85.8718 3.82594 87.4359 2.29307C88.9999 0.76643 90.944 0 93.262 0C95.58 0 97.5179 0.760197 99.0695 2.2806C100.621 3.80101 101.394 5.65168 101.394 7.83882V7.88244C101.394 10.082 100.615 11.9389 99.0508 13.4718ZM93.262 12.1134C94.4397 12.1134 95.3993 11.7084 96.1408 10.8921C96.8761 10.082 97.2437 9.09129 97.2437 7.91982V7.87621C97.2437 6.71098 96.8636 5.71399 96.1097 4.88524C95.3495 4.0565 94.3899 3.64523 93.2247 3.64523C92.0594 3.64523 91.0998 4.05027 90.3583 4.86655C89.6168 5.6766 89.2429 6.66736 89.2429 7.83882V7.88244C89.2429 9.04767 89.623 10.0447 90.377 10.8734C91.1372 11.7022 92.0968 12.1134 93.2682 12.1134H93.262Z" fill="var(--fill-0, #3EA0AB)"/>
<path id="Vector_5" d="M115.015 15.9705V12.9047L120.561 8.61146C121.34 8.00081 121.882 7.48363 122.2 7.05991C122.511 6.63619 122.667 6.18131 122.667 5.69528C122.667 5.20925 122.505 4.79799 122.187 4.50512C121.869 4.21225 121.439 4.06894 120.897 4.06894C120.386 4.06894 119.9 4.21849 119.452 4.51759C118.997 4.81668 118.467 5.32763 117.856 6.05045L115.127 3.77607C116.006 2.66692 116.891 1.8444 117.788 1.32721C118.685 0.810027 119.819 0.548317 121.196 0.548317C122.823 0.548317 124.15 0.990731 125.178 1.88179C126.206 2.77285 126.723 3.92562 126.723 5.3401V5.38372C126.723 6.53649 126.443 7.48985 125.888 8.25006C125.334 9.01026 124.405 9.86393 123.116 10.8235L120.53 12.6555H126.867V15.9705H115.028H115.015Z" fill="var(--fill-0, #3EA0AB)"/>
<path id="Vector_6" d="M135.298 16.2571C133.378 16.2571 131.852 15.6901 130.711 14.5498C129.471 13.3098 128.855 11.4155 128.855 8.85449V8.81087C128.855 6.3371 129.447 4.33065 130.637 2.79778C131.827 1.26491 133.559 0.492247 135.84 0.492247C137.69 0.492247 139.348 1.04683 140.825 2.16221L138.887 5.04101C137.902 4.27457 136.893 3.89447 135.865 3.89447C135.335 3.89447 134.88 4.00664 134.488 4.22473C134.101 4.44905 133.802 4.74192 133.603 5.10332C133.403 5.46473 133.248 5.81367 133.148 6.15639C133.042 6.4991 132.98 6.84805 132.948 7.20946H132.967C133.896 6.44302 134.98 6.06292 136.22 6.06292C137.653 6.06292 138.856 6.48041 139.828 7.32162C140.8 8.16283 141.286 9.32183 141.286 10.7924V10.8547C141.286 12.481 140.713 13.7896 139.566 14.7741C138.419 15.7586 136.999 16.2571 135.304 16.2571H135.298ZM135.129 13.0668C135.827 13.0668 136.363 12.8798 136.756 12.5122C137.142 12.1446 137.341 11.6585 137.341 11.0603V11.0167C137.341 10.4185 137.142 9.93871 136.737 9.56484C136.332 9.1972 135.784 9.01027 135.092 9.01027C134.4 9.01027 133.871 9.19098 133.478 9.55239C133.079 9.91379 132.886 10.3936 132.886 10.9918V11.0354C132.886 11.6211 133.092 12.1009 133.503 12.4873C133.914 12.8736 134.456 13.0605 135.142 13.0605L135.129 13.0668Z" fill="var(--fill-0, #3EA0AB)"/>
</g>
</svg>
