<svg preserveAspectRatio="none" width="100%" height="100%" overflow="visible" style="display: block;" viewBox="0 0 132.268 15.216" fill="none" xmlns="http://www.w3.org/2000/svg">
<g id="Group">
<path id="Vector" d="M0 14.483V0.272359H11.2855V3.48938H3.72941V5.81135H10.5202V8.84028H3.72941V11.2595H11.3828V14.483H0Z" fill="var(--fill-0, #F2E7D1)"/>
<path id="Vector_2" d="M35.958 0.272359H40.1933L35.5105 7.19934L40.4074 14.483H36.0553L33.2469 10.0726L30.3996 14.483H26.1643L31.0417 7.25771L26.3588 0.272359H30.7109L33.3053 4.41039L35.958 0.272359Z" fill="var(--fill-0, #F2E7D1)"/>
<path id="Vector_3" d="M55.098 14.483V0.272359H61.1494C62.933 0.272359 64.3405 0.713402 65.3847 1.60197C66.429 2.49055 66.9478 3.70342 66.9478 5.25356V5.29247C66.9478 6.92044 66.39 8.17223 65.2809 9.0608C64.1654 9.94937 62.7125 10.3904 60.9159 10.3904H58.8664V14.4895H55.098V14.483ZM58.8664 7.355H60.877C61.5775 7.355 62.1418 7.17988 62.5569 6.83612C62.972 6.49237 63.1795 6.02538 63.1795 5.44165V5.40273C63.1795 4.78008 62.9719 4.30012 62.5633 3.97583C62.1547 3.65153 61.5775 3.48938 60.8381 3.48938H58.8664V7.355Z" fill="var(--fill-0, #F2E7D1)"/>
<path id="Vector_4" d="M92.7294 12.6087C91.2636 14.042 89.4475 14.7555 87.2747 14.7555C85.102 14.7555 83.2924 14.042 81.8395 12.6151C80.3867 11.1882 79.6667 9.45649 79.6667 7.41342V7.37451C79.6667 5.31847 80.3997 3.57375 81.8655 2.14684C83.3313 0.713451 85.1474 0 87.3201 0C89.4929 0 91.3025 0.713452 92.7554 2.14036C94.2082 3.56726 94.9346 5.29901 94.9346 7.34208V7.38099C94.9346 9.43703 94.2017 11.1817 92.7359 12.6151L92.7294 12.6087ZM87.3137 11.3374C88.4163 11.3374 89.3178 10.9547 90.0053 10.1959C90.6928 9.43703 91.0366 8.50955 91.0366 7.41342V7.37451C91.0366 6.27838 90.6799 5.3509 89.9729 4.57258C89.2659 3.80076 88.3644 3.4116 87.2683 3.4116C86.1721 3.4116 85.2771 3.79427 84.5831 4.55312C83.8891 5.31198 83.5388 6.23947 83.5388 7.33559V7.37451C83.5388 8.47063 83.8956 9.4046 84.6025 10.1764C85.3095 10.9483 86.2111 11.3374 87.3072 11.3374H87.3137Z" fill="var(--fill-0, #F2E7D1)"/>
<path id="Vector_5" d="M107.673 14.9436V12.0768L112.868 8.05554C113.595 7.48478 114.107 6.99834 114.399 6.6027C114.691 6.20705 114.84 5.77898 114.84 5.32497C114.84 4.87095 114.691 4.48828 114.392 4.20939C114.094 3.93698 113.692 3.80077 113.18 3.80077C112.7 3.80077 112.246 3.93698 111.824 4.22236C111.402 4.50125 110.903 4.98121 110.332 5.65575L107.777 3.52836C108.594 2.49061 109.424 1.72527 110.267 1.23234C111.104 0.745896 112.168 0.49943 113.458 0.49943C114.983 0.49943 116.221 0.91453 117.188 1.75122C118.154 2.58141 118.634 3.66457 118.634 4.99418V5.0331C118.634 6.11625 118.375 7.00482 117.856 7.71828C117.337 8.42524 116.468 9.2295 115.262 10.131L112.842 11.8498H118.777V14.9566H107.692L107.673 14.9436Z" fill="var(--fill-0, #F2E7D1)"/>
<path id="Vector_6" d="M126.664 15.216C124.867 15.216 123.434 14.6841 122.37 13.6139C121.209 12.453 120.632 10.6823 120.632 8.28251V8.24359C120.632 5.92811 121.19 4.04719 122.299 2.6138C123.414 1.17392 125.036 0.453984 127.17 0.453984C128.901 0.453984 130.458 0.972858 131.833 2.01709L130.017 4.70876C129.096 3.99531 128.149 3.63209 127.189 3.63209C126.696 3.63209 126.268 3.73587 125.898 3.94342C125.535 4.15097 125.256 4.42338 125.068 4.76065C124.88 5.09792 124.737 5.4287 124.64 5.74651C124.543 6.06432 124.478 6.3951 124.452 6.73237H124.472C125.341 6.01892 126.359 5.66219 127.52 5.66219C128.863 5.66219 129.985 6.05783 130.899 6.84263C131.807 7.62743 132.268 8.71058 132.268 10.0921V10.1505C132.268 11.6747 131.729 12.894 130.659 13.8215C129.582 14.7425 128.253 15.2095 126.664 15.2095V15.216ZM126.508 12.2324C127.157 12.2324 127.663 12.0573 128.032 11.7136C128.396 11.3698 128.577 10.9158 128.577 10.358V10.3191C128.577 9.7613 128.389 9.30729 128.013 8.96353C127.637 8.61978 127.124 8.44466 126.469 8.44466C125.814 8.44466 125.328 8.61329 124.958 8.95056C124.588 9.28783 124.4 9.73536 124.4 10.2996V10.3385C124.4 10.8834 124.595 11.3374 124.977 11.6941C125.36 12.0508 125.873 12.2324 126.508 12.2324Z" fill="var(--fill-0, #F2E7D1)"/>
</g>
</svg>
