<svg preserveAspectRatio="none" width="100%" height="100%" overflow="visible" style="display: block;" viewBox="0 0 199.186 199.192" fill="none" xmlns="http://www.w3.org/2000/svg">
<g id="Group">
<path id="Vector" d="M81.7967 117.402L76.3818 115.158L70.9607 128.263L84.0462 122.829L81.7967 117.402Z" fill="var(--fill-0, #3EA0AB)"/>
<path id="Vector_2" d="M91.212 119.857L99.6054 116.374L107.999 119.844L111.47 111.457L119.857 107.974L116.373 99.5867L119.85 91.1871L111.451 87.7225L107.968 79.3291L99.5804 82.8061L91.187 79.3416L87.7163 87.735L79.3291 91.2182L82.8061 99.6054L79.3416 107.999L87.735 111.47L91.212 119.857Z" fill="var(--fill-0, #3EA0AB)"/>
<path id="Vector_3" d="M81.778 81.8092L84.015 76.3818L70.917 70.9669L76.3506 84.0586L81.778 81.8092Z" fill="var(--fill-0, #3EA0AB)"/>
<path id="Vector_4" d="M115.133 76.3568L117.383 81.7842L122.81 84.0212L128.225 70.9233L115.133 76.3568Z" fill="var(--fill-0, #3EA0AB)"/>
<path id="Vector_5" d="M99.5617 59.0778L94.1468 72.1757L99.5804 74.419L104.995 72.1695L99.5617 59.0778Z" fill="var(--fill-0, #3EA0AB)"/>
<path id="Vector_6" d="M72.1632 94.1905L59.0778 99.6241L72.1695 105.033L74.4127 99.6116L72.1632 94.1905Z" fill="var(--fill-0, #3EA0AB)"/>
<path id="Vector_7" d="M170.018 139.728L160.01 149.735L142.601 142.538L149.816 159.929L139.728 170.018H170.018V139.728Z" fill="var(--fill-0, #3EA0AB)"/>
<path id="Vector_8" d="M177.769 106.74V121.01L199.186 99.5929L177.769 78.1764V92.3274L160.372 99.5493L177.769 106.74Z" fill="var(--fill-0, #3EA0AB)"/>
<path id="Vector_9" d="M94.1905 127.016L99.6241 140.114L105.033 127.01L99.6116 124.767L94.1905 127.016Z" fill="var(--fill-0, #3EA0AB)"/>
<path id="Vector_10" d="M21.4166 92.4458V78.1764L0 99.5929L21.4166 121.01V106.865L38.8202 99.6366L21.4166 92.4458Z" fill="var(--fill-0, #3EA0AB)"/>
<path id="Vector_11" d="M124.773 99.5742L127.016 105.002L140.114 99.568L127.01 94.1469L124.773 99.5742Z" fill="var(--fill-0, #3EA0AB)"/>
<path id="Vector_12" d="M29.1681 59.4517L39.1816 49.4506L56.5853 56.6414L49.3634 39.2627L59.4579 29.1681H29.1681V59.4517Z" fill="var(--fill-0, #3EA0AB)"/>
<path id="Vector_13" d="M117.408 117.383L115.158 122.81L128.269 128.225L122.829 115.134L117.408 117.383Z" fill="var(--fill-0, #3EA0AB)"/>
<path id="Vector_14" d="M87.2552 170.018L95.4305 150.246L87.0246 129.995L66.7671 138.401L58.5917 158.191L70.4185 170.018H87.2552Z" fill="var(--fill-0, #3EA0AB)"/>
<path id="Vector_15" d="M56.6414 142.601L39.2564 149.816L29.1681 139.728V170.018H59.4516L49.4506 160.01L56.6414 142.601Z" fill="var(--fill-0, #3EA0AB)"/>
<path id="Vector_16" d="M121.016 177.769H106.852L99.6303 160.372L92.4457 177.769H78.1701L99.5929 199.192L121.016 177.769Z" fill="var(--fill-0, #3EA0AB)"/>
<path id="Vector_17" d="M29.1681 128.761L41.0759 140.669L60.835 132.469L69.2097 112.199L48.9521 103.824L29.1681 112.037V128.761Z" fill="var(--fill-0, #3EA0AB)"/>
<path id="Vector_18" d="M132.469 138.345L112.199 129.976L103.824 150.24L112.037 170.018H128.767L140.669 158.11L132.469 138.345Z" fill="var(--fill-0, #3EA0AB)"/>
<path id="Vector_19" d="M170.018 111.924L150.246 103.755L129.995 112.161L138.401 132.419L158.185 140.594L170.018 128.761V111.924Z" fill="var(--fill-0, #3EA0AB)"/>
<path id="Vector_20" d="M29.1681 87.2614L48.9459 95.4367L69.191 87.0308L60.7851 66.7733L40.9949 58.598L29.1681 70.4248V87.2614Z" fill="var(--fill-0, #3EA0AB)"/>
<path id="Vector_21" d="M142.544 56.5916L159.929 49.3696L170.018 59.4517V29.1681H139.722L149.735 39.1816L142.544 56.5916Z" fill="var(--fill-0, #3EA0AB)"/>
<path id="Vector_22" d="M170.018 87.1555V70.4248L158.11 58.517L138.345 66.7235L129.976 86.9873L150.246 95.3682L170.018 87.1555Z" fill="var(--fill-0, #3EA0AB)"/>
<path id="Vector_23" d="M58.5108 41.0759L66.7173 60.835L86.9873 69.2097L95.3558 48.9459L87.1493 29.1681H70.4248L59.7695 39.8235L58.5108 41.0759Z" fill="var(--fill-0, #3EA0AB)"/>
<path id="Vector_24" d="M111.924 29.1681L103.755 48.9397L112.155 69.1972L132.413 60.7914L140.594 41.0012L128.761 29.1681H111.924Z" fill="var(--fill-0, #3EA0AB)"/>
<path id="Vector_25" d="M78.1764 21.4166H92.3274L99.5493 38.814L106.74 21.4166H121.009L99.5929 2.19792e-06L78.1764 21.4166Z" fill="var(--fill-0, #3EA0AB)"/>
</g>
</svg>
