<svg preserveAspectRatio="none" width="100%" height="100%" overflow="visible" style="display: block;" viewBox="0 0 48 48" fill="none" xmlns="http://www.w3.org/2000/svg">
<g id="Layer_1">
<path id="Vector" d="M29.72 41.32C29.72 39.803 29.1174 38.3481 28.0447 37.2753C26.9719 36.2026 25.517 35.6 24 35.6C22.483 35.6 21.0281 36.2026 19.9553 37.2753C18.8826 38.3481 18.28 39.803 18.28 41.32V47.04" stroke="var(--stroke-0, #025054)" stroke-width="3" stroke-miterlimit="10"/>
<path id="Vector_2" d="M24 31.78C26.1097 31.78 27.82 30.0697 27.82 27.96C27.82 25.8503 26.1097 24.14 24 24.14C21.8903 24.14 20.18 25.8503 20.18 27.96C20.18 30.0697 21.8903 31.78 24 31.78Z" stroke="var(--stroke-0, #025054)" stroke-width="3" stroke-miterlimit="10"/>
<path id="Vector_3" d="M39.28 35.6C41.3897 35.6 43.1 33.8897 43.1 31.78C43.1 29.6703 41.3897 27.96 39.28 27.96C37.1703 27.96 35.46 29.6703 35.46 31.78C35.46 33.8897 37.1703 35.6 39.28 35.6Z" stroke="var(--stroke-0, #025054)" stroke-width="3" stroke-miterlimit="10"/>
<path id="Vector_4" d="M3 47.04V45.14C2.99999 43.6211 3.60199 42.1641 4.67413 41.0883C5.74627 40.0124 7.20113 39.4053 8.72 39.4C10.2423 39.4 11.7023 40.0047 12.7788 41.0812C13.8553 42.1577 14.46 43.6177 14.46 45.14V47.04" stroke="var(--stroke-0, #025054)" stroke-width="3" stroke-miterlimit="10"/>
<path id="Vector_5" d="M33.54 47.04V45.14C33.54 43.6177 34.1447 42.1577 35.2212 41.0812C36.2977 40.0047 37.7577 39.4 39.28 39.4C40.7989 39.4053 42.2537 40.0124 43.3259 41.0883C44.398 42.1641 45 43.6211 45 45.14V47.04" stroke="var(--stroke-0, #025054)" stroke-width="3" stroke-miterlimit="10"/>
<path id="Vector_6" d="M8.72 35.6C10.8297 35.6 12.54 33.8897 12.54 31.78C12.54 29.6703 10.8297 27.96 8.72 27.96C6.61027 27.96 4.9 29.6703 4.9 31.78C4.9 33.8897 6.61027 35.6 8.72 35.6Z" stroke="var(--stroke-0, #025054)" stroke-width="3" stroke-miterlimit="10"/>
<path id="Vector_7" d="M29.72 41.32V47.04" stroke="var(--stroke-0, #025054)" stroke-width="3" stroke-miterlimit="10"/>
<path id="Vector_8" d="M24 6.96L24.92 8.84L27.02 9.14L25.5 10.6L25.86 12.68L24 11.7L22.14 12.68L22.5 10.6L20.98 9.14L23.08 8.84L24 6.96Z" stroke="var(--stroke-0, #025054)" stroke-width="3" stroke-miterlimit="10"/>
</g>
</svg>
