<svg preserveAspectRatio="none" width="100%" height="100%" overflow="visible" style="display: block;" viewBox="0 0 1920 489" fill="none" xmlns="http://www.w3.org/2000/svg">
<g id="Layer_10" clip-path="url(#clip0_21_12)">
<path id="Vector" d="M-119 -9.66L-105.73 -0.0200005L-119 40.83V57.42L-108.21 90.64L-79.97 98.39L-108.28 106.48L-119 139.47V156.07L-105.73 196.91L-119 206.55V212.89L-104.06 202.04L-98.35 219.6H-79.88L-85.59 237.17L-70.65 248.02L-85.59 258.87L-79.88 276.43H-98.35L-104.06 293.99L-119 283.14V289.48L-105.73 299.12L-119 339.98V356.57L-108.21 389.79L-79.97 397.54L-108.28 405.63L-119 438.62V455.22L-105.73 496.06L-119 505.7V512.04L-104.06 501.19L-98.35 518.75H-79.88L-85.59 536.32L-70.65 547.17L-85.59 558.02L-79.88 575.58H-98.35L-104.06 593.14L-119 582.29V588.63L-105.73 598.27L-119 639.12V655.71L-108.21 688.93L-79.97 696.68L-108.28 704.77L-119 737.77V754.37L-105.73 795.21L-119 804.85V811.19L-104.06 800.34L-98.35 817.9H-79.88L-85.59 835.47L-70.65 846.32L-85.59 857.17L-79.88 874.73H-98.35L-104.06 892.29L-119 881.44V887.78L-105.73 897.42L-119 938.27V954.86L-108.21 988.08L-79.97 995.83L-108.28 1003.92L-119 1036.92V1053.52L-105.73 1094.36L-119 1104V1110.34L-104.06 1099.49L-98.35 1117.05H-79.88L-85.59 1134.62L-70.65 1145.6H-61.92L-22.81 1117.06H16.21L35.41 1145.6H42L65.47 1120.37L85.48 1145.6H98.79L126.7 1137.58L137.42 1104.57L148.21 1137.79L176.52 1145.6H189.5L209.32 1120.19L232.83 1145.6H239.42L258.41 1117.06H297.64L336.75 1145.6H345.47L360.41 1134.62L354.7 1117.05H373.17L378.88 1099.49L393.82 1110.34L408.76 1099.49L414.47 1117.05H432.94L427.23 1134.62L442.17 1145.6H450.9L490.01 1117.06H529.03L548.23 1145.6H554.82L578.29 1120.37L598.3 1145.6H611.61L639.52 1137.58L650.24 1104.57L661.03 1137.79L689.34 1145.6H702.32L722.14 1120.19L745.65 1145.6H752.24L771.23 1117.06H810.46L849.57 1145.6H858.29L873.23 1134.62L867.52 1117.05H885.99L891.7 1099.49L906.64 1110.34L921.58 1099.49L927.29 1117.05H945.76L940.05 1134.62L954.99 1145.6H963.72L1002.83 1117.06H1041.85L1061.05 1145.6H1067.64L1091.11 1120.37L1111.12 1145.6H1124.37L1152.34 1137.58L1163.06 1104.57L1173.85 1137.79L1202.23 1145.6H1215.15L1234.97 1120.19L1258.48 1145.6H1265.07L1284.06 1117.06H1323.29L1362.4 1145.6H1371.12L1386.06 1134.62L1380.35 1117.05H1398.82L1404.53 1099.49L1419.47 1110.34L1434.41 1099.49L1440.12 1117.05H1458.59L1452.88 1134.62L1467.82 1145.6H1476.55L1515.66 1117.06H1554.68L1573.88 1145.6H1580.47L1603.94 1120.37L1623.95 1145.6H1637.26L1665.17 1137.58L1675.89 1104.57L1686.68 1137.79L1714.99 1145.6H1727.97L1747.79 1120.19L1771.3 1145.6H1777.89L1796.88 1117.06H1836.11L1875.22 1145.6H1883.94L1898.88 1134.62L1893.17 1117.05H1911.64L1917.35 1099.49L1932.29 1110.34V1104L1919.02 1094.36L1932.29 1053.52V1036.92L1921.5 1003.72L1893.41 995.74L1921.57 987.88L1932.29 954.87V938.28L1919.02 897.43L1932.29 887.79V881.45L1917.35 892.3L1911.64 874.74H1893.19L1898.9 857.19L1883.95 846.33L1898.89 835.48L1893.18 817.91H1911.65L1917.36 800.35L1932.3 811.2V804.86L1919.03 795.22L1932.3 754.38V737.78L1921.51 704.58L1893.42 696.6L1921.58 688.74L1932.3 655.73V639.14L1919.03 598.29L1932.3 588.65V582.31L1917.36 593.16L1911.65 575.6H1893.2L1898.91 558.05L1883.96 547.19L1898.9 536.34L1893.19 518.77H1911.66L1917.37 501.21L1932.31 512.06V505.72L1919.04 496.08L1932.31 455.24V438.64L1921.52 405.44L1893.43 397.46L1921.59 389.6L1932.31 356.59V340L1919.04 299.15L1932.31 289.51V283.17L1917.37 294.02L1911.66 276.46H1893.21L1898.92 258.91L1883.97 248.05L1898.91 237.2L1893.2 219.63H1911.67L1917.38 202.07L1932.32 212.92V206.58L1919.05 196.94L1932.32 156.1V139.5L1921.53 106.3L1893.44 98.32L1921.6 90.46L1932.32 57.45V40.86L1919.05 0.00999832L1932.32 -9.63V-15.97L1917.38 -5.12L1911.67 -22.68H1893.22L1898.93 -40.23L1883.98 -50.97H1875.26L1836.15 -22.68H1797.12L1777.92 -50.97H1771.33L1747.76 -26.3L1728 -50.97H1715.02L1686.64 -43.32L1675.92 -10.32L1665.13 -43.52L1637.29 -50.97H1623.98L1604.14 -26.09L1580.5 -50.97H1573.91L1554.92 -22.68H1515.69L1476.58 -50.97H1467.85L1452.91 -40.24L1458.62 -22.68H1440.15L1434.44 -5.12L1419.5 -15.97L1404.56 -5.12L1398.85 -22.68H1380.4L1386.11 -40.23L1371.16 -50.97H1362.44L1323.33 -22.68H1284.3L1265.1 -50.97H1258.51L1234.94 -26.3L1215.18 -50.97H1202.26L1173.81 -43.32L1163.09 -10.32L1152.3 -43.52L1124.4 -50.97H1111.15L1091.31 -26.09L1067.67 -50.97H1061.08L1042.09 -22.68H1002.86L963.75 -50.97H955.02L940.08 -40.24L945.79 -22.68H927.32L921.61 -5.12L906.67 -15.97L891.73 -5.12L886.02 -22.68H867.57L873.28 -40.23L858.33 -50.97H849.61L810.5 -22.68H771.47L752.27 -50.97H745.68L722.11 -26.3L702.35 -50.97H689.37L660.99 -43.32L650.27 -10.32L639.48 -43.52L611.64 -50.97H598.33L578.49 -26.09L554.85 -50.97H548.26L529.27 -22.68H490.04L450.9 -51H442.17L427.23 -40.27L432.94 -22.71H414.47L408.76 -5.15L393.82 -16L378.88 -5.15L373.17 -22.71H354.72L360.43 -40.26L345.48 -51H336.76L297.65 -22.71H258.62L239.42 -51H232.83L209.26 -26.33L189.5 -51H176.52L148.14 -43.35L137.42 -10.35L126.63 -43.55L98.79 -51H85.48L65.64 -26.12L42 -51H35.41L16.42 -22.71H-22.81L-61.93 -51H-70.66L-85.6 -40.27L-79.89 -22.71H-98.36L-104.07 -5.15L-119 -16V-9.66ZM-116.3 147.77L-104.24 110.66L-71.18 101.22L-50.13 128.03L-62.25 165.34L-101.37 193.76L-116.31 147.78L-116.3 147.77ZM393.82 212.89L408.76 202.04L414.47 219.6H432.94L427.23 237.17L442.17 248.02L427.23 258.87L432.94 276.43H414.47L408.76 293.99L393.82 283.14L378.88 293.99L373.17 276.43H354.72L360.43 258.88L345.48 248.02L360.42 237.17L354.71 219.6H373.18L378.89 202.04L393.83 212.89H393.82ZM380.55 196.91L393.82 156.07L407.09 196.91L393.82 206.55L380.55 196.91ZM906.65 212.89L921.59 202.04L927.3 219.6H945.77L940.06 237.17L955 248.02L940.06 258.87L945.77 276.43H927.3L921.59 293.99L906.65 283.14L891.71 293.99L886 276.43H867.55L873.26 258.88L858.31 248.02L873.25 237.17L867.54 219.6H886.01L891.72 202.04L906.66 212.89H906.65ZM893.38 196.91L906.65 156.07L919.92 196.91L906.65 206.55L893.38 196.91ZM1419.47 212.89L1434.41 202.04L1440.12 219.6H1458.59L1452.88 237.17L1467.82 248.02L1452.88 258.87L1458.59 276.43H1440.12L1434.41 293.99L1419.47 283.14L1404.53 293.99L1398.82 276.43H1380.37L1386.08 258.88L1371.13 248.02L1386.07 237.17L1380.36 219.6H1398.83L1404.54 202.04L1419.48 212.89H1419.47ZM1406.2 196.91L1419.47 156.07L1432.74 196.91L1419.47 206.55L1406.2 196.91ZM1419.47 881.45L1404.53 892.3L1398.82 874.74H1380.37L1386.08 857.19L1371.13 846.33L1386.07 835.48L1380.36 817.91H1398.83L1404.54 800.35L1419.48 811.2L1434.42 800.35L1440.13 817.91H1458.6L1452.89 835.48L1467.83 846.33L1452.89 857.18L1458.6 874.74H1440.13L1434.42 892.3L1419.48 881.45H1419.47ZM1432.75 897.42L1419.48 938.27L1406.21 897.42L1419.48 887.78L1432.75 897.42ZM906.65 881.45L891.71 892.3L886 874.74H867.55L873.26 857.19L858.31 846.33L873.25 835.48L867.54 817.91H886.01L891.72 800.35L906.66 811.2L921.6 800.35L927.31 817.91H945.78L940.07 835.48L955.01 846.33L940.07 857.18L945.78 874.74H927.31L921.6 892.3L906.66 881.45H906.65ZM919.92 897.42L906.65 938.27L893.38 897.42L906.65 887.78L919.92 897.42ZM393.82 881.45L378.88 892.3L373.17 874.74H354.72L360.43 857.19L345.48 846.33L360.42 835.48L354.71 817.91H373.18L378.89 800.35L393.83 811.2L408.77 800.35L414.48 817.91H432.95L427.24 835.48L442.18 846.33L427.24 857.18L432.95 874.74H414.48L408.77 892.3L393.83 881.45H393.82ZM407.1 897.42L393.83 938.27L380.56 897.42L393.83 887.78L407.1 897.42ZM12.13 194.22L45.54 206.42L73.61 186.02L63.49 217.15L38.75 243.92L18.94 214.48H-15.75L12.14 194.22H12.13ZM11.16 154.8L42.9 131.74H91.26L76.31 177.72L44.73 200.67L12.44 188.87L11.16 154.81V154.8ZM229.46 206.54L262.82 194.3L290.59 214.48H255.68L236.07 243.71L211.26 216.94L201.22 186.02L229.46 206.54ZM198.52 177.72L183.58 131.74H231.92L263.49 154.68L262.25 189.04L230.24 200.78L198.51 177.72H198.52ZM524.95 194.22L558.36 206.42L586.43 186.02L576.31 217.15L551.57 243.92L531.76 214.48H497.07L524.96 194.22H524.95ZM523.98 154.8L555.72 131.74H604.08L589.13 177.72L557.55 200.67L525.26 188.87L523.98 154.81V154.8ZM742.28 206.54L775.64 194.3L803.41 214.48H768.5L748.89 243.71L724.08 216.94L714.04 186.02L742.28 206.54ZM711.35 177.72L696.41 131.74H744.75L776.32 154.68L775.08 189.04L743.07 200.78L711.34 177.72H711.35ZM1037.78 194.22L1071.19 206.42L1099.26 186.02L1089.44 216.22L1064.38 243.89L1044.58 214.48H1009.89L1037.78 194.22ZM1036.81 154.8L1068.55 131.74H1116.91L1101.96 177.72L1070.38 200.67L1038.09 188.87L1036.81 154.81V154.8ZM1255.11 206.54L1288.47 194.3L1316.24 214.48H1281.33L1261.72 243.71L1236.91 216.94L1226.87 186.02L1255.11 206.54ZM1224.17 177.72L1209.23 131.74H1257.57L1289.14 154.68L1287.9 189.04L1255.89 200.78L1224.16 177.72H1224.17ZM1550.6 194.22L1584.01 206.42L1612.08 186.02L1601.96 217.15L1577.22 243.92L1557.41 214.48H1522.72L1550.61 194.22H1550.6ZM1549.63 154.8L1581.37 131.74H1629.73L1614.78 177.72L1583.2 200.67L1550.91 188.87L1549.63 154.81V154.8ZM1744.76 277.47L1732.64 314.78L1693.53 343.2L1678.59 297.22L1690.65 260.11L1723.71 250.67L1744.76 277.48V277.47ZM1727.91 247.72L1747.78 222.38L1771.31 247.76L1747.73 272.94L1727.92 247.72H1727.91ZM1723.69 843.34L1690.7 834.29L1678.58 796.99L1693.52 751.01L1732.63 779.43L1744.69 816.54L1723.69 843.33V843.34ZM1747.79 820.91L1771.31 846.07L1747.72 871.48L1727.91 846.27L1747.79 820.92V820.91ZM1583.84 887.68L1550.37 899.96L1522.71 879.86H1557.62L1577.35 850.45L1601.89 876.81L1612.09 908.2L1583.85 887.68H1583.84ZM1614.78 916.49L1629.72 962.47H1581.38L1549.81 939.53L1551.05 905.17L1583.06 893.43L1614.8 916.48L1614.78 916.49ZM1288.47 900.04L1254.94 887.8L1226.87 908.19L1237.14 876.59L1261.61 850.24L1281.55 879.86H1316.25L1288.48 900.04H1288.47ZM1289.32 939.42L1257.58 962.48H1209.24L1224.18 916.5L1255.75 893.56L1288.04 905.35L1289.32 939.42ZM1071.02 887.68L1037.55 899.96L1009.89 879.86H1044.8L1064.53 850.45L1089.07 876.81L1099.27 908.2L1071.03 887.68H1071.02ZM1101.96 916.49L1116.9 962.47H1068.56L1036.99 939.53L1038.23 905.17L1070.24 893.43L1101.98 916.48L1101.96 916.49ZM775.64 900.04L742.11 887.8L714.04 908.19L724.31 876.59L748.78 850.24L768.72 879.86H803.42L775.65 900.04H775.64ZM776.49 939.42L744.75 962.48H696.41L711.35 916.5L742.92 893.56L775.21 905.35L776.49 939.42ZM558.19 887.68L524.72 899.96L497.06 879.86H531.97L551.7 850.45L576.24 876.81L586.44 908.2L558.2 887.68H558.19ZM589.13 916.49L604.07 962.47H555.73L524.16 939.53L525.4 905.17L557.41 893.43L589.15 916.48L589.13 916.49ZM262.82 900.04L229.29 887.8L201.22 908.19L211.49 876.59L235.96 850.24L255.9 879.86H290.6L262.83 900.04H262.82ZM263.67 939.42L231.93 962.48H183.59L198.53 916.5L230.1 893.56L262.39 905.35L263.67 939.42ZM68.55 816.73L80.68 779.43L119.78 751.02L134.72 797L122.66 834.11L89.79 843.28L68.55 816.74V816.73ZM85.57 846.22L65.64 871.68L41.99 846.27L65.46 821.09L85.57 846.22ZM137.41 362.35L152.35 351.5L158.06 369.06H176.53L170.82 386.63L185.76 397.48L170.82 408.33L176.53 425.89H158.06L152.35 443.45L137.41 432.6L122.47 443.45L116.76 425.89H98.31L104.02 408.34L89.07 397.48L104.01 386.63L98.3 369.06H116.77L122.48 351.5L137.42 362.35H137.41ZM124.14 346.37L137.41 305.52L150.68 346.37L137.41 356.01L124.14 346.37ZM650.24 362.35L665.18 351.5L670.89 369.06H689.36L683.65 386.63L698.59 397.48L683.65 408.33L689.36 425.89H670.89L665.18 443.45L650.24 432.6L635.3 443.45L629.59 425.89H611.14L616.85 408.34L601.9 397.48L616.84 386.63L611.13 369.06H629.6L635.31 351.5L650.25 362.35H650.24ZM636.97 346.37L650.24 305.52L663.51 346.37L650.24 356.01L636.97 346.37ZM1163.06 362.35L1178 351.5L1183.71 369.06H1202.18L1196.47 386.63L1211.41 397.48L1196.47 408.33L1202.18 425.89H1183.71L1178 443.45L1163.06 432.6L1148.12 443.45L1142.41 425.89H1123.96L1129.67 408.34L1114.72 397.48L1129.66 386.63L1123.95 369.06H1142.42L1148.13 351.5L1163.07 362.35H1163.06ZM1149.79 346.37L1163.06 305.52L1176.33 346.37L1163.06 356.01L1149.79 346.37ZM1675.89 362.35L1690.83 351.5L1696.54 369.06H1715.01L1709.3 386.63L1724.24 397.48L1709.3 408.33L1715.01 425.89H1696.54L1690.83 443.45L1675.89 432.6L1660.95 443.45L1655.24 425.89H1636.79L1642.5 408.34L1627.55 397.48L1642.49 386.63L1636.78 369.06H1655.25L1660.96 351.5L1675.9 362.35H1675.89ZM1662.62 346.37L1675.89 305.52L1689.16 346.37L1675.89 356.01L1662.62 346.37ZM1724.23 696.74L1709.29 707.59L1715 725.15H1696.53L1690.82 742.71L1675.88 731.86L1660.94 742.71L1655.23 725.15H1636.78L1642.49 707.6L1627.54 696.74L1642.48 685.89L1636.77 668.32H1655.24L1660.95 650.76L1675.89 661.61L1690.83 650.76L1696.54 668.32H1715.01L1709.3 685.89L1724.24 696.74H1724.23ZM1689.16 747.85L1675.89 788.7L1662.62 747.85L1675.89 738.21L1689.16 747.85ZM1163.06 731.87L1148.12 742.72L1142.41 725.16H1123.96L1129.67 707.61L1114.72 696.75L1129.66 685.9L1123.95 668.33H1142.42L1148.13 650.77L1163.07 661.62L1178.01 650.77L1183.72 668.33H1202.19L1196.48 685.9L1211.42 696.75L1196.48 707.6L1202.19 725.16H1183.72L1178.01 742.72L1163.07 731.87H1163.06ZM1176.33 747.85L1163.06 788.7L1149.79 747.85L1163.06 738.21L1176.33 747.85ZM650.24 731.87L635.3 742.72L629.59 725.16H611.14L616.85 707.61L601.9 696.75L616.84 685.9L611.13 668.33H629.6L635.31 650.77L650.25 661.62L665.19 650.77L670.9 668.33H689.37L683.66 685.9L698.6 696.75L683.66 707.6L689.37 725.16H670.9L665.19 742.72L650.25 731.87H650.24ZM663.51 747.85L650.24 788.7L636.97 747.85L650.24 738.21L663.51 747.85ZM137.41 731.87L122.47 742.72L116.76 725.16H98.31L104.02 707.61L89.07 696.75L104.01 685.9L98.3 668.33H116.77L122.48 650.77L137.42 661.62L152.36 650.77L158.07 668.33H176.54L170.83 685.9L185.77 696.75L170.83 707.6L176.54 725.16H158.07L152.36 742.72L137.42 731.87H137.41ZM150.68 747.85L137.41 788.7L124.14 747.85L137.41 738.21L150.68 747.85ZM393.82 512.04L408.76 501.19L414.47 518.75H432.94L427.23 536.32L442.17 547.17L427.23 558.02L432.94 575.58H414.47L408.76 593.14L393.82 582.29L378.88 593.14L373.17 575.58H354.72L360.43 558.03L345.48 547.17L360.42 536.32L354.71 518.75H373.18L378.89 501.19L393.83 512.04H393.82ZM380.55 496.06L393.82 455.22L407.09 496.06L393.82 505.7L380.55 496.06ZM906.65 512.04L921.59 501.19L927.3 518.75H945.77L940.06 536.32L955 547.17L940.06 558.02L945.77 575.58H927.3L921.59 593.14L906.65 582.29L891.71 593.14L886 575.58H867.55L873.26 558.03L858.31 547.17L873.25 536.32L867.54 518.75H886.01L891.72 501.19L906.66 512.04H906.65ZM893.38 496.06L906.65 455.22L919.92 496.06L906.65 505.7L893.38 496.06ZM1419.47 512.04L1434.41 501.19L1440.12 518.75H1458.59L1452.88 536.32L1467.82 547.17L1452.88 558.02L1458.59 575.58H1440.12L1434.41 593.14L1419.47 582.29L1404.53 593.14L1398.82 575.58H1380.37L1386.08 558.03L1371.13 547.17L1386.07 536.32L1380.36 518.75H1398.83L1404.54 501.19L1419.48 512.04H1419.47ZM1406.2 496.06L1419.47 455.22L1432.74 496.06L1419.47 505.7L1406.2 496.06ZM1550.49 493.45L1584.02 505.69L1612.09 485.29L1601.97 516.42L1577.23 543.07L1557.41 513.63H1522.72L1550.49 493.45ZM1549.63 454.07L1581.37 431.01H1629.73L1614.78 476.98L1583.2 499.93L1550.91 488.14L1549.63 454.08V454.07ZM1583.84 588.41L1550.26 600.73L1522.71 580.72H1557.62L1577.35 551.3L1601.88 577.55L1612.08 608.93L1583.84 588.41ZM1614.78 617.22L1629.72 663.2H1581.38L1549.81 640.26L1551.05 605.9L1583.06 594.16L1614.8 617.21L1614.78 617.22ZM1580.47 547.12L1603.94 521.83L1624.04 546.95L1604.11 572.41L1580.47 547.12ZM1554.68 518.75L1573.88 547.28L1554.89 575.59H1515.66L1476.55 547.17L1515.66 518.75H1554.68ZM1472.18 544L1458.9 534.36L1463.97 518.76H1506.92L1472.17 544.01L1472.18 544ZM1506.93 575.59H1463.98L1458.91 559.99L1472.19 550.35L1506.93 575.59ZM1460.25 580.71L1473.52 621.56L1438.77 596.32L1443.84 580.71H1460.25ZM1465.64 580.71H1513.98L1545.55 603.65L1544.31 638.01L1512.3 649.75L1480.57 626.69L1465.63 580.71H1465.64ZM1511.52 655.51L1545.1 643.19L1572.65 663.2H1537.74L1518.13 692.44L1493.33 665.9L1483.29 634.98L1511.53 655.5L1511.52 655.51ZM1540.48 668.33H1579.71L1618.82 696.75L1579.71 725.17H1540.68L1521.48 696.64L1540.47 668.33H1540.48ZM1623.18 699.92L1636.47 709.57L1631.4 725.16H1588.44L1623.19 699.92H1623.18ZM1588.43 668.33H1631.38L1636.45 683.93L1623.18 693.57L1588.43 668.32V668.33ZM1635.11 663.2L1621.84 622.35L1656.59 647.6L1651.52 663.2H1635.11ZM1619.14 614.05L1607.08 576.93L1628.27 549.86L1661.06 559.17L1673.18 596.48L1658.24 642.46L1619.13 614.04L1619.14 614.05ZM1628.26 544L1607.02 517.46L1619.15 480.16L1658.25 451.75L1673.19 497.73L1661.13 534.84L1628.26 544.01V544ZM1621.85 471.86L1635.13 431.02H1651.52L1656.59 446.62L1621.85 471.86ZM1631.4 425.89H1588.44L1623.19 400.65L1636.48 410.3L1631.41 425.89H1631.4ZM1588.43 369.05H1631.38L1636.45 384.65L1623.18 394.29L1588.43 369.04V369.05ZM1618.82 397.47L1579.71 425.89H1540.68L1521.48 397.36L1540.47 369.05H1579.7L1618.81 397.47H1618.82ZM1537.95 431.01H1572.65L1544.88 451.19L1511.35 438.95L1483.28 459.34L1493.55 427.74L1518.02 401.38L1537.96 431L1537.95 431.01ZM1512.16 444.71L1544.45 456.5L1545.73 490.57L1513.99 513.63H1465.65L1480.59 467.65L1512.16 444.71ZM1460.25 513.63H1443.84L1438.77 498.03L1473.52 472.78L1460.24 513.63H1460.25ZM1432.75 598.28L1419.48 639.13L1406.21 598.28L1419.48 588.64L1432.75 598.28ZM1037.66 493.45L1071.19 505.69L1099.26 485.29L1089.14 516.42L1064.4 543.07L1044.58 513.63H1009.89L1037.66 493.45ZM1036.81 454.07L1068.55 431.01H1116.91L1101.96 476.98L1070.38 499.93L1038.09 488.14L1036.81 454.08V454.07ZM1071.02 588.41L1037.44 600.73L1009.89 580.72H1044.8L1064.53 551.3L1089.06 577.55L1099.26 608.93L1071.02 588.41ZM1101.96 617.22L1116.9 663.2H1068.56L1036.99 640.26L1038.23 605.9L1070.24 594.16L1101.98 617.21L1101.96 617.22ZM1067.65 547.12L1091.12 521.83L1111.22 546.95L1091.29 572.41L1067.65 547.12ZM1041.85 518.75L1061.05 547.28L1042.06 575.59H1002.83L963.72 547.17L1002.83 518.75H1041.85ZM959.36 544L946.08 534.36L951.15 518.76H994.1L959.35 544.01L959.36 544ZM994.1 575.59H951.15L946.08 559.99L959.36 550.35L994.1 575.59ZM947.43 580.71L960.7 621.56L925.95 596.32L931.02 580.71H947.43ZM952.82 580.71H1001.16L1032.73 603.65L1031.49 638.01L999.48 649.75L967.75 626.69L952.81 580.71H952.82ZM998.69 655.51L1032.27 643.19L1059.82 663.2H1024.91L1005.3 692.44L980.5 665.9L970.46 634.98L998.7 655.5L998.69 655.51ZM1027.65 668.33H1066.88L1105.99 696.75L1066.88 725.17H1027.85L1008.65 696.64L1027.64 668.33H1027.65ZM1110.36 699.92L1123.65 709.57L1118.58 725.16H1075.62L1110.37 699.92H1110.36ZM1075.61 668.33H1118.56L1123.63 683.93L1110.36 693.57L1075.61 668.32V668.33ZM1122.28 663.2L1109.01 622.35L1143.76 647.6L1138.69 663.2H1122.28ZM1106.32 614.05L1094.26 576.93L1115.45 549.86L1148.24 559.17L1160.36 596.48L1145.42 642.46L1106.31 614.04L1106.32 614.05ZM1123.96 546.95L1152.34 539.03L1163.06 506.02L1173.85 539.24L1202.31 547.05L1173.78 555.2L1163.06 588.2L1152.27 555L1123.95 546.96L1123.96 546.95ZM1163.06 604.79L1176.33 645.63L1163.06 655.27L1149.79 645.63L1163.06 604.79ZM1165.76 596.49L1177.82 559.38L1210.88 549.94L1231.93 576.75L1219.81 614.06L1180.69 642.48L1165.75 596.5L1165.76 596.49ZM1255.11 505.81L1288.58 493.53L1316.24 513.62H1281.33L1261.72 542.85L1236.91 516.2L1226.87 485.28L1255.11 505.8V505.81ZM1224.17 476.99L1209.23 431.01H1257.57L1289.14 453.95L1287.9 488.31L1255.89 500.05L1224.16 476.99H1224.17ZM1332.02 518.75H1374.97L1380.04 534.35L1366.77 543.99L1332.02 518.74V518.75ZM1380.06 559.99L1374.99 575.58H1332.03L1366.78 550.34L1380.07 559.99H1380.06ZM1362.41 547.17L1323.3 575.59H1284.27L1265.07 547.06L1284.06 518.75H1323.29L1362.4 547.17H1362.41ZM1288.58 600.81L1254.93 588.53L1226.86 608.92L1237.13 577.33L1261.59 551.09L1281.53 580.71H1316.23L1288.57 600.81H1288.58ZM1289.32 640.14L1257.58 663.2H1209.24L1224.18 617.22L1255.75 594.28L1288.04 606.07L1289.32 640.14ZM1258.48 546.92L1234.9 572.22L1215.09 547L1234.96 521.65L1258.48 546.92ZM1217.12 622.35L1203.84 663.2H1187.43L1182.36 647.6L1217.11 622.35H1217.12ZM1207.57 668.33H1250.52L1215.77 693.58L1202.49 683.94L1207.56 668.34L1207.57 668.33ZM1250.52 725.16H1207.57L1202.5 709.56L1215.78 699.92L1250.52 725.16ZM1220.13 696.74L1259.24 668.32H1298.26L1317.46 696.85L1298.47 725.16H1259.24L1220.13 696.74ZM1301 663.2H1266.31L1293.97 643.1L1327.61 655.38L1355.68 634.98L1345.56 666.11L1320.82 692.65L1301 663.2ZM1326.79 649.63L1294.5 637.84L1293.22 603.78L1324.96 580.72H1373.32L1358.37 626.69L1326.79 649.64V649.63ZM1378.71 580.71H1395.1L1400.17 596.31L1365.43 621.55L1378.71 580.71ZM1395.11 513.63H1378.7L1365.43 472.78L1400.18 498.03L1395.11 513.63ZM1373.3 513.63H1324.96L1293.39 490.69L1294.63 456.33L1326.64 444.59L1358.38 467.64L1373.32 513.62L1373.3 513.63ZM1327.43 438.83L1293.96 451.11L1266.3 431.01H1301.21L1320.94 401.6L1345.48 427.96L1355.68 459.35L1327.44 438.83H1327.43ZM1298.47 425.89H1259.24L1220.13 397.47L1259.24 369.05H1298.26L1317.46 397.58L1298.47 425.89ZM1215.77 394.3L1202.49 384.66L1207.56 369.06H1250.51L1215.76 394.31L1215.77 394.3ZM1250.52 425.89H1207.57L1202.5 410.29L1215.78 400.65L1250.52 425.89ZM1203.84 431.01L1217.11 471.86L1182.36 446.62L1187.43 431.01H1203.84ZM1219.81 480.17L1231.87 517.28L1210.87 544.07L1177.88 535.02L1165.76 497.72L1180.7 451.74L1219.81 480.16V480.17ZM1163.06 489.43L1149.79 448.58L1163.06 438.94L1176.33 448.58L1163.06 489.43ZM1160.37 497.72L1148.31 534.83L1115.44 544L1094.2 517.46L1106.33 480.16L1145.43 451.75L1160.37 497.73V497.72ZM1109.02 471.86L1122.3 431.02H1138.69L1143.76 446.62L1109.02 471.86ZM1118.57 425.89H1075.61L1110.36 400.65L1123.65 410.3L1118.58 425.89H1118.57ZM1075.61 369.05H1118.56L1123.63 384.65L1110.36 394.29L1075.61 369.04V369.05ZM1106 397.47L1066.89 425.89H1027.86L1008.66 397.36L1027.65 369.05H1066.88L1105.99 397.47H1106ZM1025.13 431.01H1059.83L1032.06 451.19L998.53 438.95L970.46 459.34L980.73 427.74L1005.2 401.38L1025.14 431L1025.13 431.01ZM999.33 444.71L1031.62 456.5L1032.9 490.57L1001.16 513.63H952.82L967.76 467.65L999.33 444.71ZM947.43 513.63H931.02L925.95 498.03L960.7 472.78L947.42 513.63H947.43ZM919.92 598.28L906.65 639.13L893.38 598.28L906.65 588.64L919.92 598.28ZM524.84 493.45L558.37 505.69L586.44 485.29L576.32 516.42L551.58 543.07L531.76 513.63H497.07L524.84 493.45ZM523.98 454.07L555.72 431.01H604.08L589.13 476.98L557.55 499.93L525.26 488.14L523.98 454.08V454.07ZM558.19 588.41L524.61 600.73L497.06 580.72H531.97L551.7 551.3L576.23 577.55L586.43 608.93L558.19 588.41ZM589.13 617.22L604.07 663.2H555.73L524.16 640.26L525.4 605.9L557.41 594.16L589.15 617.21L589.13 617.22ZM554.82 547.12L578.29 521.83L598.39 546.95L578.46 572.41L554.82 547.12ZM529.03 518.75L548.23 547.28L529.24 575.59H490.01L450.9 547.17L490.01 518.75H529.03ZM446.53 544L433.25 534.36L438.32 518.76H481.27L446.52 544.01L446.53 544ZM481.28 575.59H438.33L433.26 559.99L446.54 550.35L481.28 575.59ZM434.6 580.71L447.87 621.56L413.12 596.32L418.19 580.71H434.6ZM440 580.71H488.34L519.91 603.65L518.67 638.01L486.66 649.75L454.93 626.69L439.99 580.71H440ZM485.87 655.51L519.45 643.19L547 663.2H512.09L492.48 692.44L467.68 665.9L457.64 634.98L485.88 655.5L485.87 655.51ZM514.83 668.33H554.06L593.17 696.75L554.06 725.17H515.03L495.83 696.64L514.82 668.33H514.83ZM597.53 699.92L610.82 709.57L605.75 725.16H562.79L597.54 699.92H597.53ZM562.78 668.33H605.73L610.8 683.93L597.53 693.57L562.78 668.32V668.33ZM609.46 663.2L596.19 622.35L630.94 647.6L625.87 663.2H609.46ZM593.49 614.05L581.43 576.93L602.62 549.86L635.41 559.17L647.53 596.48L632.59 642.46L593.48 614.04L593.49 614.05ZM611.13 546.95L639.51 539.03L650.23 506.02L661.02 539.24L689.48 547.05L660.95 555.2L650.23 588.2L639.44 555L611.12 546.96L611.13 546.95ZM650.24 604.79L663.51 645.63L650.24 655.27L636.97 645.63L650.24 604.79ZM652.93 596.49L664.99 559.38L698.05 549.94L719.1 576.75L706.98 614.06L667.86 642.48L652.92 596.5L652.93 596.49ZM742.28 505.81L775.75 493.53L803.41 513.62H768.5L748.89 542.85L724.08 516.2L714.04 485.28L742.28 505.8V505.81ZM711.35 476.99L696.41 431.01H744.75L776.32 453.95L775.08 488.31L743.07 500.05L711.34 476.99H711.35ZM819.19 518.75H862.14L867.21 534.35L853.94 543.99L819.19 518.74V518.75ZM867.23 559.99L862.16 575.58H819.2L853.95 550.34L867.24 559.99H867.23ZM849.58 547.17L810.47 575.59H771.44L752.24 547.06L771.23 518.75H810.46L849.57 547.17H849.58ZM775.76 600.81L742.11 588.53L714.04 608.92L724.31 577.33L748.77 551.09L768.71 580.71H803.41L775.75 600.81H775.76ZM776.49 640.14L744.75 663.2H696.41L711.35 617.22L742.92 594.28L775.21 606.07L776.49 640.14ZM745.65 546.92L722.07 572.22L702.26 547L722.13 521.65L745.65 546.92ZM704.29 622.35L691.01 663.2H674.6L669.53 647.6L704.28 622.35H704.29ZM694.74 668.33H737.69L702.94 693.58L689.66 683.94L694.73 668.34L694.74 668.33ZM737.69 725.16H694.74L689.67 709.56L702.95 699.92L737.69 725.16ZM707.31 696.74L746.42 668.32H785.44L804.64 696.85L785.65 725.16H746.42L707.31 696.74ZM788.17 663.2H753.48L781.14 643.1L814.78 655.38L842.85 634.98L832.73 666.11L807.99 692.65L788.17 663.2ZM813.97 649.63L781.68 637.84L780.4 603.78L812.14 580.72H860.5L845.55 626.69L813.97 649.64V649.63ZM865.89 580.71H882.28L887.35 596.31L852.61 621.55L865.89 580.71ZM882.28 513.63H865.87L852.6 472.78L887.35 498.03L882.28 513.63ZM860.48 513.63H812.14L780.57 490.69L781.81 456.33L813.82 444.59L845.56 467.64L860.5 513.62L860.48 513.63ZM814.61 438.83L781.14 451.11L753.48 431.01H788.39L808.12 401.6L832.66 427.96L842.86 459.35L814.62 438.83H814.61ZM785.65 425.89H746.42L707.31 397.47L746.42 369.05H785.44L804.64 397.58L785.65 425.89ZM702.95 394.3L689.67 384.66L694.74 369.06H737.69L702.94 394.31L702.95 394.3ZM737.69 425.89H694.74L689.67 410.29L702.95 400.65L737.69 425.89ZM691.02 431.01L704.29 471.86L669.54 446.62L674.61 431.01H691.02ZM706.98 480.17L719.04 517.28L698.04 544.07L665.05 535.02L652.93 497.72L667.87 451.74L706.98 480.16V480.17ZM650.24 489.43L636.97 448.58L650.24 438.94L663.51 448.58L650.24 489.43ZM647.54 497.72L635.48 534.83L602.61 544L581.37 517.46L593.5 480.16L632.6 451.75L647.54 497.73V497.72ZM596.2 471.86L609.48 431.02H625.87L630.94 446.62L596.2 471.86ZM605.75 425.89H562.79L597.54 400.65L610.83 410.3L605.76 425.89H605.75ZM562.78 369.05H605.73L610.8 384.65L597.53 394.29L562.78 369.04V369.05ZM593.17 397.47L554.06 425.89H515.03L495.83 397.36L514.82 369.05H554.05L593.16 397.47H593.17ZM512.3 431.01H547L519.23 451.19L485.7 438.95L457.63 459.34L467.9 427.74L492.37 401.38L512.31 431L512.3 431.01ZM486.51 444.71L518.8 456.5L520.08 490.57L488.34 513.63H440L454.94 467.65L486.51 444.71ZM434.6 513.63H418.19L413.12 498.03L447.87 472.78L434.59 513.63H434.6ZM407.1 598.28L393.83 639.13L380.56 598.28L393.83 588.64L407.1 598.28ZM229.46 505.81L262.93 493.53L290.59 513.62H255.68L236.07 542.85L211.26 516.2L201.22 485.28L229.46 505.8V505.81ZM198.52 476.99L183.58 431.01H231.92L263.49 453.95L262.25 488.31L230.24 500.05L198.51 476.99H198.52ZM306.37 518.75H349.32L354.39 534.35L341.12 543.99L306.37 518.74V518.75ZM354.41 559.99L349.34 575.58H306.38L341.13 550.34L354.42 559.99H354.41ZM336.76 547.17L297.65 575.59H258.62L239.42 547.06L258.41 518.75H297.64L336.75 547.17H336.76ZM262.93 600.81L229.28 588.53L201.21 608.92L211.48 577.33L235.94 551.09L255.88 580.71H290.58L262.92 600.81H262.93ZM263.67 640.14L231.93 663.2H183.59L198.53 617.22L230.1 594.28L262.39 606.07L263.67 640.14ZM232.83 546.92L209.25 572.22L189.44 547L209.31 521.65L232.83 546.92ZM206.28 576.74L194.16 614.05L155.04 642.47L140.1 596.49L152.16 559.38L185.22 549.94L206.27 576.75L206.28 576.74ZM191.47 622.35L178.19 663.2H161.78L156.71 647.6L191.46 622.35H191.47ZM181.92 668.33H224.87L190.12 693.58L176.84 683.94L181.91 668.34L181.92 668.33ZM224.87 725.16H181.92L176.85 709.56L190.13 699.92L224.87 725.16ZM194.48 696.74L233.59 668.32H272.61L291.81 696.85L272.82 725.16H233.59L194.48 696.74ZM275.35 663.2H240.66L268.32 643.1L301.96 655.38L330.03 634.98L319.91 666.11L295.17 692.65L275.35 663.2ZM301.14 649.63L268.85 637.84L267.57 603.78L299.31 580.72H347.67L332.72 626.69L301.14 649.64V649.63ZM353.06 580.71H369.45L374.52 596.31L339.78 621.55L353.06 580.71ZM369.46 513.63H353.05L339.78 472.78L374.53 498.03L369.46 513.63ZM347.65 513.63H299.31L267.74 490.69L268.98 456.33L300.99 444.59L332.73 467.64L347.67 513.62L347.65 513.63ZM301.78 438.83L268.31 451.11L240.65 431.01H275.56L295.29 401.6L319.83 427.96L330.03 459.35L301.79 438.83H301.78ZM272.82 425.89H233.59L194.48 397.47L233.59 369.05H272.61L291.81 397.58L272.82 425.89ZM190.12 394.3L176.84 384.66L181.91 369.06H224.86L190.11 394.31L190.12 394.3ZM224.87 425.89H181.92L176.85 410.29L190.13 400.65L224.87 425.89ZM178.19 431.01L191.46 471.86L156.71 446.62L161.78 431.01H178.19ZM194.16 480.17L206.22 517.28L185.22 544.07L152.23 535.02L140.11 497.72L155.05 451.74L194.16 480.16V480.17ZM137.41 489.43L124.14 448.58L137.41 438.94L150.68 448.58L137.41 489.43ZM148.2 539.24L176.66 547.05L148.13 555.2L137.41 588.2L126.62 555L98.3 546.96L126.68 539.04L137.4 506.03L148.19 539.25L148.2 539.24ZM150.68 645.64L137.41 655.28L124.14 645.64L137.41 604.8L150.68 645.64ZM161.78 730.29H178.19L191.46 771.14L156.71 745.9L161.78 730.29ZM183.58 730.29H231.92L263.49 753.23L262.25 787.59L230.24 799.33L198.51 776.27L183.57 730.29H183.58ZM229.46 805.08L263.04 792.76L290.59 812.77H255.68L236.07 842.01L211.27 815.47L201.23 784.55L229.47 805.07L229.46 805.08ZM267.74 789.84L268.98 755.48L300.99 743.74L332.73 766.79L347.67 812.77H299.33L267.76 789.83L267.74 789.84ZM301.78 737.98L268.2 750.3L240.65 730.29H275.56L295.29 700.87L319.82 727.12L330.02 758.5L301.78 737.98ZM298.41 696.69L321.88 671.52L341.94 696.59L322.06 721.99L298.42 696.7L298.41 696.69ZM324.96 667.16L337.09 629.86L376.19 601.45L391.13 647.43L379.07 684.54L346.2 693.71L324.96 667.17V667.16ZM383.1 688.73L393.82 655.72L404.61 688.94L432.85 696.69L404.54 704.78L393.82 737.78L383.03 704.58L354.94 696.6L383.1 688.74V688.73ZM408.64 684.72L396.52 647.42L411.46 601.44L450.57 629.86L462.63 666.97L441.63 693.76L408.64 684.71V684.72ZM465.72 671.34L489.24 696.5L465.66 721.79L445.9 696.63L465.73 671.34H465.72ZM467.9 726.9L492.36 700.66L512.3 730.28H547L519.34 750.38L485.69 738.1L457.62 758.49L467.89 726.9H467.9ZM486.51 743.86L518.8 755.65L520.08 789.72L488.34 812.78H440L454.94 766.8L486.51 743.86ZM524.72 792.68L558.36 804.96L586.43 784.56L576.31 815.69L551.57 842.23L531.75 812.78H497.06L524.72 792.68ZM557.56 799.2L525.27 787.41L523.99 753.35L555.73 730.29H604.09L589.14 776.26L557.56 799.21V799.2ZM609.48 730.29H625.87L630.94 745.89L596.2 771.13L609.48 730.29ZM674.61 730.29H691.02L704.29 771.14L669.54 745.9L674.61 730.29ZM696.41 730.29H744.75L776.32 753.23L775.08 787.59L743.07 799.33L711.34 776.27L696.4 730.29H696.41ZM742.28 805.08L775.86 792.76L803.41 812.77H768.5L748.89 842.01L724.09 815.47L714.05 784.55L742.29 805.07L742.28 805.08ZM780.56 789.84L781.8 755.48L813.81 743.74L845.55 766.79L860.49 812.77H812.15L780.58 789.83L780.56 789.84ZM814.61 737.98L781.03 750.3L753.48 730.29H788.39L808.12 700.87L832.65 727.12L842.85 758.5L814.61 737.98ZM811.23 696.69L834.7 671.52L854.76 696.59L834.88 721.99L811.24 696.7L811.23 696.69ZM837.78 667.16L849.91 629.86L889.01 601.45L903.95 647.43L891.89 684.54L859.02 693.71L837.78 667.17V667.16ZM895.93 688.73L906.65 655.72L917.44 688.94L945.68 696.69L917.37 704.78L906.65 737.78L895.86 704.58L867.77 696.6L895.93 688.74V688.73ZM921.47 684.72L909.35 647.42L924.29 601.44L963.4 629.86L975.46 666.97L954.46 693.76L921.47 684.71V684.72ZM978.55 671.34L1002.07 696.5L978.49 721.79L958.73 696.63L978.56 671.34H978.55ZM980.72 726.9L1005.18 700.66L1025.12 730.28H1059.82L1032.16 750.38L998.51 738.1L970.44 758.49L980.71 726.9H980.72ZM999.33 743.86L1031.62 755.65L1032.9 789.72L1001.16 812.78H952.82L967.76 766.8L999.33 743.86ZM1037.55 792.68L1071.19 804.96L1099.26 784.56L1089.14 815.69L1064.4 842.23L1044.58 812.78H1009.89L1037.55 792.68ZM1070.38 799.2L1038.09 787.41L1036.81 753.35L1068.55 730.29H1116.91L1101.96 776.26L1070.38 799.21V799.2ZM1122.3 730.29H1138.69L1143.76 745.89L1109.02 771.13L1122.3 730.29ZM1187.43 730.29H1203.84L1217.11 771.14L1182.36 745.9L1187.43 730.29ZM1209.23 730.29H1257.57L1289.14 753.23L1287.9 787.59L1255.89 799.33L1224.16 776.27L1209.22 730.29H1209.23ZM1255.11 805.08L1288.69 792.76L1316.24 812.77H1281.33L1261.72 842.01L1236.92 815.47L1226.88 784.55L1255.12 805.07L1255.11 805.08ZM1293.39 789.84L1294.63 755.48L1326.64 743.74L1358.38 766.79L1373.32 812.77H1324.98L1293.41 789.83L1293.39 789.84ZM1327.43 737.98L1293.85 750.3L1266.3 730.29H1301.21L1320.94 700.87L1345.47 727.12L1355.67 758.5L1327.43 737.98ZM1324.06 696.69L1347.53 671.52L1367.59 696.59L1347.71 721.99L1324.07 696.7L1324.06 696.69ZM1350.61 667.16L1362.74 629.86L1401.84 601.45L1416.78 647.43L1404.72 684.54L1371.85 693.71L1350.61 667.17V667.16ZM1408.75 688.73L1419.47 655.72L1430.26 688.94L1458.5 696.69L1430.19 704.78L1419.47 737.78L1408.68 704.58L1380.59 696.6L1408.75 688.74V688.73ZM1434.29 684.72L1422.17 647.42L1437.11 601.44L1476.22 629.86L1488.28 666.97L1467.28 693.76L1434.29 684.71V684.72ZM1491.37 671.34L1514.89 696.5L1491.31 721.79L1471.55 696.63L1491.38 671.34H1491.37ZM1493.55 726.9L1518.01 700.66L1537.95 730.28H1572.65L1544.99 750.38L1511.34 738.1L1483.27 758.49L1493.54 726.9H1493.55ZM1512.16 743.86L1544.45 755.65L1545.73 789.72L1513.99 812.78H1465.65L1480.59 766.8L1512.16 743.86ZM1550.37 792.68L1584.01 804.96L1612.08 784.56L1601.96 815.69L1577.22 842.23L1557.4 812.78H1522.71L1550.37 792.68ZM1583.2 799.2L1550.91 787.41L1549.63 753.35L1581.37 730.29H1629.73L1614.78 776.26L1583.2 799.21V799.2ZM1635.13 730.29H1651.52L1656.59 745.89L1621.85 771.13L1635.13 730.29ZM1675.89 655.28L1662.62 645.64L1675.89 604.8L1689.16 645.64L1675.89 655.28ZM1665.1 554.99L1636.78 546.95L1665.16 539.03L1675.88 506.02L1686.67 539.24L1715.13 547.05L1686.6 555.2L1675.88 588.2L1665.09 555L1665.1 554.99ZM1662.62 448.58L1675.89 438.94L1689.16 448.58L1675.89 489.43L1662.62 448.58ZM1651.52 363.93H1635.11L1621.84 323.08L1656.59 348.32L1651.52 363.92V363.93ZM1629.72 363.93H1581.38L1549.81 340.99L1551.05 306.63L1583.06 294.89L1614.79 317.95L1629.73 363.93H1629.72ZM1583.84 289.13L1550.14 301.49L1522.7 281.56H1557.61L1577.35 252.14L1601.88 278.27L1612.07 309.66L1583.83 289.14L1583.84 289.13ZM1545.56 304.5L1544.32 338.86L1512.31 350.6L1480.58 327.54L1465.64 281.56H1513.98L1545.55 304.5H1545.56ZM1511.52 356.36L1545.22 344L1572.65 363.93H1537.74L1518.12 393.18L1493.32 366.76L1483.28 335.84L1511.52 356.36ZM1514.89 397.22L1491.31 422.63L1471.55 397.48L1491.38 372.18L1514.89 397.22ZM1488.34 427.17L1476.22 464.48L1437.1 492.9L1422.16 446.92L1434.22 409.81L1467.28 400.37L1488.33 427.18L1488.34 427.17ZM1430.2 405.62L1419.48 438.62L1408.69 405.42L1380.6 397.44L1408.76 389.58L1419.48 356.57L1430.27 389.79L1458.51 397.54L1430.2 405.63V405.62ZM1404.66 409.61L1416.78 446.92L1401.84 492.9L1362.73 464.48L1350.67 427.36L1371.86 400.29L1404.65 409.6L1404.66 409.61ZM1347.71 422.83L1324.06 397.43L1347.53 372.37L1367.59 397.44L1347.71 422.83ZM1345.56 366.96L1320.82 393.38L1301 363.93H1266.31L1293.85 343.91L1327.61 356.23L1355.68 335.83L1345.56 366.95V366.96ZM1326.79 350.48L1294.5 338.69L1293.22 304.63L1324.96 281.57H1373.32L1358.37 327.54L1326.79 350.49V350.48ZM1288.7 301.58L1254.94 289.26L1226.87 309.65L1237.13 278.07L1261.6 251.94L1281.54 281.57H1316.24L1288.7 301.59V301.58ZM1255.74 295.01L1288.03 306.8L1289.31 340.87L1257.57 363.93H1209.23L1224.17 317.95L1255.74 295.01ZM1203.84 363.93H1187.43L1182.36 348.33L1217.11 323.08L1203.83 363.93H1203.84ZM1138.69 363.93H1122.28L1109.01 323.08L1143.76 348.32L1138.69 363.92V363.93ZM1116.89 363.93H1068.55L1036.98 340.99L1038.22 306.63L1070.23 294.89L1101.96 317.95L1116.9 363.93H1116.89ZM1071.02 289.13L1037.32 301.49L1009.88 281.56H1044.79L1064.53 252.14L1089.06 278.27L1099.25 309.66L1071.01 289.14L1071.02 289.13ZM1032.74 304.5L1031.5 338.86L999.49 350.6L967.76 327.54L952.82 281.56H1001.16L1032.73 304.5H1032.74ZM998.69 356.36L1032.39 344L1059.82 363.93H1024.91L1005.29 393.18L980.49 366.76L970.45 335.84L998.69 356.36ZM1002.07 397.22L978.49 422.63L958.73 397.48L978.56 372.18L1002.07 397.22ZM975.52 427.17L963.4 464.48L924.28 492.9L909.34 446.92L921.4 409.81L954.46 400.37L975.51 427.18L975.52 427.17ZM917.37 405.62L906.65 438.62L895.86 405.42L867.77 397.44L895.93 389.58L906.65 356.57L917.44 389.79L945.68 397.54L917.37 405.63V405.62ZM891.83 409.61L903.95 446.92L889.01 492.9L849.9 464.48L837.84 427.36L859.03 400.29L891.82 409.6L891.83 409.61ZM834.88 422.83L811.23 397.43L834.7 372.37L854.76 397.44L834.88 422.83ZM832.73 366.96L807.99 393.38L788.17 363.93H753.48L781.02 343.91L814.78 356.23L842.85 335.83L832.73 366.95V366.96ZM813.97 350.48L781.68 338.69L780.4 304.63L812.14 281.57H860.5L845.55 327.54L813.97 350.49V350.48ZM775.87 301.58L742.11 289.26L714.04 309.65L724.3 278.07L748.77 251.94L768.71 281.57H803.41L775.87 301.59V301.58ZM742.92 295.01L775.21 306.8L776.49 340.87L744.75 363.93H696.41L711.35 317.95L742.92 295.01ZM691.02 363.93H674.61L669.54 348.33L704.29 323.08L691.01 363.93H691.02ZM625.87 363.93H609.46L596.19 323.08L630.94 348.32L625.87 363.92V363.93ZM604.07 363.93H555.73L524.16 340.99L525.4 306.63L557.41 294.89L589.14 317.95L604.08 363.93H604.07ZM558.19 289.13L524.49 301.49L497.05 281.56H531.96L551.7 252.14L576.23 278.27L586.42 309.66L558.18 289.14L558.19 289.13ZM519.91 304.5L518.67 338.86L486.66 350.6L454.93 327.54L439.99 281.56H488.33L519.9 304.5H519.91ZM485.87 356.36L519.57 344L547 363.93H512.09L492.47 393.18L467.67 366.76L457.63 335.84L485.87 356.36ZM489.24 397.22L465.66 422.63L445.9 397.48L465.73 372.18L489.24 397.22ZM462.69 427.17L450.57 464.48L411.45 492.9L396.51 446.92L408.57 409.81L441.63 400.37L462.68 427.18L462.69 427.17ZM404.55 405.62L393.83 438.62L383.04 405.42L354.95 397.44L383.11 389.58L393.83 356.57L404.62 389.79L432.86 397.54L404.55 405.63V405.62ZM379.01 409.61L391.13 446.92L376.19 492.9L337.08 464.48L325.02 427.36L346.21 400.29L379 409.6L379.01 409.61ZM322.06 422.83L298.41 397.43L321.88 372.37L341.94 397.44L322.06 422.83ZM319.91 366.96L295.17 393.38L275.35 363.93H240.66L268.2 343.91L301.96 356.23L330.03 335.83L319.91 366.95V366.96ZM301.14 350.48L268.85 338.69L267.57 304.63L299.31 281.57H347.67L332.72 327.54L301.14 350.49V350.48ZM263.05 301.58L229.29 289.26L201.22 309.65L211.48 278.07L235.95 251.94L255.89 281.57H290.59L263.05 301.59V301.58ZM230.09 295.01L262.38 306.8L263.66 340.87L231.92 363.93H183.58L198.52 317.95L230.09 295.01ZM178.19 363.93H161.78L156.71 348.33L191.46 323.08L178.18 363.93H178.19ZM113.04 363.93H96.63L83.36 323.08L118.11 348.32L113.04 363.92V363.93ZM97.98 384.66L84.71 394.3L49.96 369.05H92.91L97.98 384.65V384.66ZM97.99 410.3L92.92 425.89H49.96L84.71 400.65L98 410.3H97.99ZM96.65 431.01H113.04L118.11 446.61L83.37 471.85L96.65 431.01ZM119.78 451.75L134.72 497.73L122.66 534.84L89.79 544.01L68.55 517.47L80.68 480.17L119.78 451.76V451.75ZM85.57 546.95L65.64 572.41L42 547.12L65.47 521.83L85.57 546.95ZM89.8 549.87L122.59 559.18L134.71 596.49L119.77 642.47L80.66 614.05L68.6 576.93L89.79 549.86L89.8 549.87ZM118.11 647.6L113.04 663.2H96.63L83.36 622.35L118.11 647.6ZM97.98 683.93L84.71 693.57L49.96 668.32H92.91L97.98 683.92V683.93ZM97.99 709.57L92.92 725.16H49.96L84.71 699.92L98 709.57H97.99ZM96.65 730.29H113.04L118.11 745.89L83.37 771.13L96.65 730.29ZM126.69 838.3L137.41 805.29L148.2 838.51L176.66 846.32L148.13 854.47L137.41 887.47L126.62 854.27L98.3 846.23L126.68 838.31L126.69 838.3ZM152.23 834.29L140.11 796.99L155.05 751.01L194.16 779.43L206.22 816.54L185.22 843.33L152.23 834.28V834.29ZM209.31 820.91L232.83 846.07L209.24 871.48L189.43 846.27L209.31 820.92V820.91ZM258.62 874.73L239.42 846.2L258.41 817.89H297.64L336.75 846.31L297.64 874.73H258.61H258.62ZM341.12 849.49L354.41 859.14L349.34 874.73H306.38L341.13 849.49H341.12ZM306.37 817.9H349.32L354.39 833.5L341.12 843.14L306.37 817.89V817.9ZM353.05 812.78L339.78 771.93L374.53 797.18L369.46 812.78H353.05ZM337.08 763.63L325.02 726.51L346.21 699.44L379 708.75L391.12 746.06L376.18 792.04L337.07 763.62L337.08 763.63ZM393.82 754.37L407.09 795.21L393.82 804.85L380.55 795.21L393.82 754.37ZM396.52 746.06L408.58 708.95L441.64 699.51L462.69 726.32L450.57 763.63L411.45 792.05L396.51 746.07L396.52 746.06ZM447.88 771.92L434.6 812.77H418.19L413.12 797.17L447.87 771.92H447.88ZM438.33 817.9H481.28L446.53 843.15L433.25 833.51L438.32 817.91L438.33 817.9ZM481.28 874.73H438.33L433.26 859.13L446.54 849.49L481.28 874.73ZM450.9 846.32L490.01 817.9H529.03L548.23 846.43L529.24 874.74H490.01L450.9 846.32ZM554.82 846.27L578.29 821.09L598.4 846.22L578.47 871.68L554.82 846.27ZM581.37 816.73L593.5 779.43L632.6 751.02L647.54 797L635.48 834.11L602.61 843.28L581.37 816.74V816.73ZM639.52 838.3L650.24 805.29L661.03 838.51L689.49 846.32L660.96 854.47L650.24 887.47L639.45 854.27L611.13 846.23L639.51 838.31L639.52 838.3ZM665.05 834.29L652.93 796.99L667.87 751.01L706.98 779.43L719.04 816.54L698.04 843.33L665.05 834.28V834.29ZM722.14 820.91L745.66 846.07L722.07 871.48L702.26 846.27L722.14 820.92V820.91ZM771.44 874.73L752.24 846.2L771.23 817.89H810.46L849.57 846.31L810.46 874.73H771.43H771.44ZM853.94 849.49L867.23 859.14L862.16 874.73H819.2L853.95 849.49H853.94ZM819.19 817.9H862.14L867.21 833.5L853.94 843.14L819.19 817.89V817.9ZM865.87 812.78L852.6 771.93L887.35 797.18L882.28 812.78H865.87ZM849.9 763.63L837.84 726.51L859.03 699.44L891.82 708.75L903.94 746.06L889 792.04L849.89 763.62L849.9 763.63ZM906.65 754.37L919.92 795.21L906.65 804.85L893.38 795.21L906.65 754.37ZM909.35 746.06L921.41 708.95L954.47 699.51L975.52 726.32L963.4 763.63L924.28 792.05L909.34 746.07L909.35 746.06ZM960.7 771.92L947.42 812.77H931.01L925.94 797.17L960.69 771.92H960.7ZM951.15 817.9H994.1L959.35 843.15L946.07 833.51L951.14 817.91L951.15 817.9ZM994.1 874.73H951.15L946.08 859.13L959.36 849.49L994.1 874.73ZM963.72 846.32L1002.83 817.9H1041.85L1061.05 846.43L1042.06 874.74H1002.83L963.72 846.32ZM1067.65 846.27L1091.12 821.09L1111.23 846.22L1091.3 871.68L1067.65 846.27ZM1094.2 816.73L1106.33 779.43L1145.43 751.02L1160.37 797L1148.31 834.11L1115.44 843.28L1094.2 816.74V816.73ZM1152.34 838.3L1163.06 805.29L1173.85 838.51L1202.31 846.32L1173.78 854.47L1163.06 887.47L1152.27 854.27L1123.95 846.23L1152.33 838.31L1152.34 838.3ZM1177.88 834.29L1165.76 796.99L1180.7 751.01L1219.81 779.43L1231.87 816.54L1210.87 843.33L1177.88 834.28V834.29ZM1234.96 820.91L1258.48 846.07L1234.89 871.48L1215.08 846.27L1234.96 820.92V820.91ZM1284.27 874.73L1265.07 846.2L1284.06 817.89H1323.29L1362.4 846.31L1323.29 874.73H1284.26H1284.27ZM1366.77 849.49L1380.06 859.14L1374.99 874.73H1332.03L1366.78 849.49H1366.77ZM1332.02 817.9H1374.97L1380.04 833.5L1366.77 843.14L1332.02 817.89V817.9ZM1378.7 812.78L1365.43 771.93L1400.18 797.18L1395.11 812.78H1378.7ZM1362.73 763.63L1350.67 726.51L1371.86 699.44L1404.65 708.75L1416.77 746.06L1401.83 792.04L1362.72 763.62L1362.73 763.63ZM1419.47 754.37L1432.74 795.21L1419.47 804.85L1406.2 795.21L1419.47 754.37ZM1422.17 746.06L1434.23 708.95L1467.29 699.51L1488.34 726.32L1476.22 763.63L1437.1 792.05L1422.16 746.07L1422.17 746.06ZM1473.53 771.92L1460.25 812.77H1443.84L1438.77 797.17L1473.52 771.92H1473.53ZM1463.98 817.9H1506.93L1472.18 843.15L1458.9 833.51L1463.97 817.91L1463.98 817.9ZM1506.93 874.73H1463.98L1458.91 859.13L1472.19 849.49L1506.93 874.73ZM1476.55 846.32L1515.66 817.9H1554.68L1573.88 846.43L1554.89 874.74H1515.66L1476.55 846.32ZM1580.47 846.27L1603.94 821.09L1624.05 846.22L1604.12 871.68L1580.47 846.27ZM1607.02 816.73L1619.15 779.43L1658.25 751.02L1673.19 797L1661.13 834.11L1628.26 843.28L1607.02 816.74V816.73ZM1665.17 838.3L1675.89 805.29L1686.68 838.51L1715.14 846.32L1686.61 854.47L1675.89 887.47L1665.1 854.27L1636.78 846.23L1665.16 838.31L1665.17 838.3ZM1695.19 745.89L1700.26 730.28H1716.67L1729.94 771.13L1695.19 745.89ZM1715.32 709.56L1728.6 699.92L1763.34 725.16H1720.39L1715.32 709.56ZM1715.32 683.93L1720.39 668.33H1763.34L1728.59 693.58L1715.31 683.94L1715.32 683.93ZM1716.67 663.2H1700.26L1695.19 647.6L1729.94 622.35L1716.66 663.2H1716.67ZM1693.52 642.47L1678.58 596.49L1690.64 559.38L1723.7 549.94L1744.75 576.75L1732.63 614.06L1693.51 642.48L1693.52 642.47ZM1727.91 546.99L1747.78 521.64L1771.3 546.91L1747.72 572.21L1727.91 546.99ZM1723.69 544.07L1690.7 535.02L1678.58 497.72L1693.52 451.74L1732.63 480.16L1744.69 517.27L1723.69 544.06V544.07ZM1695.19 446.62L1700.26 431.01H1716.67L1729.94 471.86L1695.19 446.62ZM1715.32 410.29L1728.6 400.65L1763.34 425.89H1720.39L1715.32 410.29ZM1715.32 384.66L1720.39 369.06H1763.34L1728.59 394.31L1715.31 384.67L1715.32 384.66ZM1716.67 363.93H1700.26L1695.19 348.33L1729.94 323.08L1716.66 363.93H1716.67ZM1686.61 255.92L1675.89 288.92L1665.1 255.72L1636.78 247.68L1665.16 239.76L1675.88 206.75L1686.67 239.97L1715.13 247.78L1686.6 255.93L1686.61 255.92ZM1661.07 259.91L1673.19 297.22L1658.25 343.2L1619.14 314.78L1607.08 277.67L1628.27 250.6L1661.06 259.91H1661.07ZM1604.11 273.14L1580.47 247.96L1603.95 222.56L1624.05 247.68L1604.12 273.15L1604.11 273.14ZM1554.68 219.61L1573.88 248.14L1554.89 276.45H1515.66L1476.55 248.03L1515.66 219.61H1554.68ZM1472.18 244.85L1458.9 235.21L1463.97 219.61H1506.92L1472.17 244.86L1472.18 244.85ZM1506.93 276.44H1463.98L1458.91 260.84L1472.19 251.2L1506.93 276.44ZM1460.25 281.56L1473.52 322.41L1438.77 297.17L1443.84 281.56H1460.25ZM1476.22 330.72L1488.28 367.83L1467.28 394.62L1434.29 385.57L1422.17 348.27L1437.11 302.29L1476.22 330.71V330.72ZM1419.47 339.98L1406.2 299.13L1419.47 289.49L1432.74 299.13L1419.47 339.98ZM1416.78 348.27L1404.72 385.38L1371.85 394.55L1350.61 368.01L1362.74 330.71L1401.84 302.3L1416.78 348.28V348.27ZM1365.43 322.41L1378.71 281.57H1395.1L1400.17 297.17L1365.43 322.41ZM1374.99 276.44H1332.03L1366.78 251.2L1380.07 260.85L1375 276.44H1374.99ZM1332.02 219.61H1374.97L1380.04 235.21L1366.77 244.85L1332.02 219.6V219.61ZM1362.41 248.02L1323.3 276.44H1284.27L1265.07 247.91L1284.06 219.6H1323.29L1362.4 248.02H1362.41ZM1258.48 247.76L1234.9 272.94L1215.09 247.72L1234.96 222.38L1258.49 247.76H1258.48ZM1231.93 277.47L1219.81 314.78L1180.7 343.2L1165.76 297.22L1177.82 260.11L1210.88 250.67L1231.93 277.48V277.47ZM1173.78 255.92L1163.06 288.92L1152.27 255.72L1123.95 247.68L1152.33 239.76L1163.05 206.75L1173.84 239.97L1202.3 247.78L1173.77 255.93L1173.78 255.92ZM1148.24 259.91L1160.36 297.22L1145.42 343.2L1106.31 314.78L1094.25 277.67L1115.44 250.6L1148.23 259.91H1148.24ZM1091.29 273.14L1067.63 247.94L1090.89 222.26L1111.23 247.67L1091.3 273.14H1091.29ZM1041.85 219.61L1061.05 248.14L1042.06 276.45H1002.83L963.72 248.03L1002.83 219.61H1041.85ZM959.36 244.85L946.08 235.21L951.15 219.61H994.1L959.35 244.86L959.36 244.85ZM994.1 276.44H951.15L946.08 260.84L959.36 251.2L994.1 276.44ZM947.43 281.56L960.7 322.41L925.95 297.17L931.02 281.56H947.43ZM963.4 330.72L975.46 367.83L954.46 394.62L921.47 385.57L909.35 348.27L924.29 302.29L963.4 330.71V330.72ZM906.65 339.98L893.38 299.13L906.65 289.49L919.92 299.13L906.65 339.98ZM903.95 348.27L891.89 385.38L859.02 394.55L837.78 368.01L849.91 330.71L889.01 302.3L903.95 348.28V348.27ZM852.61 322.41L865.89 281.57H882.28L887.35 297.17L852.61 322.41ZM862.16 276.44H819.2L853.95 251.2L867.24 260.85L862.17 276.44H862.16ZM819.19 219.61H862.14L867.21 235.21L853.94 244.85L819.19 219.6V219.61ZM849.58 248.02L810.47 276.44H771.44L752.24 247.91L771.23 219.6H810.46L849.57 248.02H849.58ZM745.65 247.76L722.07 272.94L702.26 247.72L722.13 222.38L745.66 247.76H745.65ZM719.11 277.47L706.99 314.78L667.88 343.2L652.94 297.22L665 260.11L698.06 250.67L719.11 277.48V277.47ZM660.96 255.92L650.24 288.92L639.45 255.72L611.13 247.68L639.51 239.76L650.23 206.75L661.02 239.97L689.48 247.78L660.95 255.93L660.96 255.92ZM635.42 259.91L647.54 297.22L632.6 343.2L593.49 314.78L581.43 277.67L602.62 250.6L635.41 259.91H635.42ZM578.46 273.14L554.82 247.96L578.3 222.56L598.4 247.68L578.47 273.15L578.46 273.14ZM529.03 219.61L548.23 248.14L529.24 276.45H490.01L450.9 248.03L490.01 219.61H529.03ZM446.53 244.85L433.25 235.21L438.32 219.61H481.27L446.52 244.86L446.53 244.85ZM481.28 276.44H438.33L433.26 260.84L446.54 251.2L481.28 276.44ZM434.6 281.56L447.87 322.41L413.12 297.17L418.19 281.56H434.6ZM450.57 330.72L462.63 367.83L441.63 394.62L408.64 385.57L396.52 348.27L411.46 302.29L450.57 330.71V330.72ZM393.82 339.98L380.55 299.13L393.82 289.49L407.09 299.13L393.82 339.98ZM391.13 348.27L379.07 385.38L346.2 394.55L324.96 368.01L337.09 330.71L376.19 302.3L391.13 348.28V348.27ZM339.78 322.41L353.06 281.57H369.45L374.52 297.17L339.78 322.41ZM349.34 276.44H306.38L341.13 251.2L354.42 260.85L349.35 276.44H349.34ZM306.37 219.61H349.32L354.39 235.21L341.12 244.85L306.37 219.6V219.61ZM336.76 248.02L297.65 276.44H258.62L239.42 247.91L258.41 219.6H297.64L336.75 248.02H336.76ZM232.83 247.76L209.25 272.94L189.44 247.72L209.31 222.38L232.84 247.76H232.83ZM206.28 277.47L194.16 314.78L155.05 343.2L140.11 297.22L152.17 260.11L185.23 250.67L206.28 277.48V277.47ZM148.13 255.92L137.41 288.92L126.62 255.72L98.3 247.68L126.68 239.76L137.4 206.75L148.19 239.97L176.65 247.78L148.12 255.93L148.13 255.92ZM122.59 259.91L134.71 297.22L119.77 343.2L80.66 314.78L68.6 277.67L89.79 250.6L122.58 259.91H122.59ZM65.64 273.14L42 247.96L65.48 222.56L85.58 247.68L65.65 273.15L65.64 273.14ZM38.88 252.14L63.41 278.27L73.6 309.66L45.36 289.14L11.66 301.5L-15.78 281.57H19.13L38.87 252.15L38.88 252.14ZM12.56 306.63L44.57 294.89L76.3 317.95L91.24 363.93H42.9L11.33 340.99L12.57 306.63H12.56ZM80.35 397.47L41.24 425.89H2.21L-16.99 397.36L2 369.05H41.23L80.34 397.47H80.35ZM42.9 431.01H91.26L76.31 476.98L44.73 499.93L12.44 488.14L11.16 454.08L42.9 431.02V431.01ZM12.01 493.45L45.54 505.69L73.61 485.29L63.49 516.42L38.75 543.07L18.93 513.63H-15.76L12.01 493.45ZM38.88 551.29L63.41 577.54L73.61 608.92L45.37 588.4L11.79 600.72L-15.76 580.71H19.15L38.88 551.29ZM12.56 605.91L44.57 594.17L76.31 617.22L91.25 663.2H42.91L11.34 640.26L12.58 605.9L12.56 605.91ZM80.35 696.74L41.24 725.16H2.21L-16.99 696.63L2 668.32H41.23L80.34 696.74H80.35ZM42.9 730.29H91.26L76.31 776.26L44.73 799.21L12.44 787.42L11.16 753.36L42.9 730.3V730.29ZM11.9 792.68L45.54 804.96L73.61 784.56L63.49 815.69L38.75 842.23L18.93 812.78H-15.76L11.9 792.68ZM38.88 850.45L63.42 876.81L73.62 908.2L45.38 887.68L11.91 899.96L-15.75 879.86H19.16L38.89 850.45H38.88ZM12.56 905.18L44.57 893.44L76.31 916.49L91.25 962.47H42.91L11.34 939.53L12.58 905.17L12.56 905.18ZM80.34 996.02L41.23 1024.44H2.2L-17 995.91L1.99 967.6H41.22L80.33 996.02H80.34ZM84.71 999.18L98 1008.84L92.93 1024.43H49.97L84.72 999.18H84.71ZM49.96 967.6H92.91L97.98 983.2L84.71 992.84L49.96 967.59V967.6ZM96.63 962.48L83.36 921.63L118.11 946.88L113.04 962.48H96.63ZM80.67 913.33L68.61 876.21L89.8 849.14L122.59 858.45L134.71 895.76L119.77 941.74L80.66 913.32L80.67 913.33ZM137.41 904.06L150.68 944.9L137.41 954.54L124.14 944.9L137.41 904.06ZM140.11 895.76L152.17 858.65L185.23 849.21L206.28 876.02L194.16 913.33L155.04 941.75L140.1 895.77L140.11 895.76ZM191.47 921.62L178.19 962.47H161.78L156.71 946.87L191.46 921.62H191.47ZM181.92 967.6H224.87L190.12 992.85L176.85 983.21L181.92 967.61V967.6ZM224.87 1024.43H181.92L176.85 1008.83L190.12 999.19L224.87 1024.44V1024.43ZM194.48 996.02L233.59 967.6H272.62L291.82 996.13L272.83 1024.44H233.6L194.49 996.02H194.48ZM275.35 962.48H240.65L268.43 942.3L301.96 954.54L330.03 934.14L319.91 965.27L295.17 991.92L275.35 962.48ZM301.14 948.78L268.85 936.99L267.57 902.93L299.31 879.87H347.67L332.72 925.84L301.14 948.79V948.78ZM353.06 879.86H369.45L374.52 895.46L339.78 920.7L353.06 879.86ZM418.19 879.86H434.6L447.87 920.71L413.12 895.47L418.19 879.86ZM440 879.86H488.34L519.91 902.8L518.67 937.16L486.66 948.9L454.93 925.84L439.99 879.86H440ZM485.87 954.66L519.34 942.38L547 962.48H512.09L492.48 991.71L467.67 965.06L457.63 934.14L485.87 954.66ZM514.83 967.6H554.06L593.17 996.02L554.06 1024.44H515.03L495.83 995.91L514.82 967.6H514.83ZM597.53 999.18L610.82 1008.84L605.75 1024.43H562.79L597.54 999.18H597.53ZM562.78 967.6H605.73L610.8 983.2L597.53 992.84L562.78 967.59V967.6ZM609.46 962.48L596.19 921.63L630.94 946.88L625.87 962.48H609.46ZM593.49 913.33L581.43 876.21L602.62 849.14L635.41 858.45L647.53 895.76L632.59 941.74L593.48 913.32L593.49 913.33ZM650.24 904.06L663.51 944.9L650.24 954.54L636.97 944.9L650.24 904.06ZM652.93 895.76L664.99 858.65L698.05 849.21L719.1 876.02L706.98 913.33L667.86 941.75L652.92 895.77L652.93 895.76ZM704.29 921.62L691.01 962.47H674.6L669.53 946.87L704.28 921.62H704.29ZM694.74 967.6H737.69L702.94 992.85L689.67 983.21L694.74 967.61V967.6ZM737.69 1024.43H694.74L689.67 1008.83L702.94 999.19L737.69 1024.44V1024.43ZM707.3 996.02L746.41 967.6H785.44L804.64 996.13L785.65 1024.44H746.42L707.31 996.02H707.3ZM788.17 962.48H753.47L781.25 942.3L814.78 954.54L842.85 934.14L832.73 965.27L807.99 991.92L788.17 962.48ZM813.97 948.78L781.68 936.99L780.4 902.93L812.14 879.87H860.5L845.55 925.84L813.97 948.79V948.78ZM865.89 879.86H882.28L887.35 895.46L852.61 920.7L865.89 879.86ZM931.02 879.86H947.43L960.7 920.71L925.95 895.47L931.02 879.86ZM952.82 879.86H1001.16L1032.73 902.8L1031.49 937.16L999.48 948.9L967.75 925.84L952.81 879.86H952.82ZM998.69 954.66L1032.16 942.38L1059.82 962.48H1024.91L1005.3 991.71L980.49 965.06L970.45 934.14L998.69 954.66ZM1027.65 967.6H1066.88L1105.99 996.02L1066.88 1024.44H1027.85L1008.65 995.91L1027.64 967.6H1027.65ZM1110.36 999.18L1123.65 1008.84L1118.58 1024.43H1075.62L1110.37 999.18H1110.36ZM1075.61 967.6H1118.56L1123.63 983.2L1110.36 992.84L1075.61 967.59V967.6ZM1122.28 962.48L1109.01 921.63L1143.76 946.88L1138.69 962.48H1122.28ZM1106.32 913.33L1094.26 876.21L1115.45 849.14L1148.24 858.45L1160.36 895.76L1145.42 941.74L1106.31 913.32L1106.32 913.33ZM1163.06 904.06L1176.33 944.9L1163.06 954.54L1149.79 944.9L1163.06 904.06ZM1165.76 895.76L1177.82 858.65L1210.88 849.21L1231.93 876.02L1219.81 913.33L1180.69 941.75L1165.75 895.77L1165.76 895.76ZM1217.12 921.62L1203.84 962.47H1187.43L1182.36 946.87L1217.11 921.62H1217.12ZM1207.57 967.6H1250.52L1215.77 992.85L1202.5 983.21L1207.57 967.61V967.6ZM1250.52 1024.43H1207.57L1202.5 1008.83L1215.77 999.19L1250.52 1024.44V1024.43ZM1220.13 996.02L1259.24 967.6H1298.27L1317.47 996.13L1298.48 1024.44H1259.25L1220.14 996.02H1220.13ZM1301 962.48H1266.3L1294.08 942.3L1327.61 954.54L1355.68 934.14L1345.56 965.27L1320.82 991.92L1301 962.48ZM1326.79 948.78L1294.5 936.99L1293.22 902.93L1324.96 879.87H1373.32L1358.37 925.84L1326.79 948.79V948.78ZM1378.71 879.86H1395.1L1400.17 895.46L1365.43 920.7L1378.71 879.86ZM1443.84 879.86H1460.25L1473.52 920.71L1438.77 895.47L1443.84 879.86ZM1465.64 879.86H1513.98L1545.55 902.8L1544.31 937.16L1512.3 948.9L1480.57 925.84L1465.63 879.86H1465.64ZM1511.52 954.66L1544.99 942.38L1572.65 962.48H1537.74L1518.13 991.71L1493.32 965.06L1483.28 934.14L1511.52 954.66ZM1540.48 967.6H1579.71L1618.82 996.02L1579.71 1024.44H1540.68L1521.48 995.91L1540.47 967.6H1540.48ZM1623.18 999.18L1636.47 1008.84L1631.4 1024.43H1588.44L1623.19 999.18H1623.18ZM1588.43 967.6H1631.38L1636.45 983.2L1623.18 992.84L1588.43 967.59V967.6ZM1635.11 962.48L1621.84 921.63L1656.59 946.88L1651.52 962.48H1635.11ZM1619.14 913.33L1607.08 876.21L1628.27 849.14L1661.06 858.45L1673.18 895.76L1658.24 941.74L1619.13 913.32L1619.14 913.33ZM1675.89 904.06L1689.16 944.9L1675.89 954.54L1662.62 944.9L1675.89 904.06ZM1678.58 895.76L1690.64 858.65L1723.7 849.21L1744.75 876.02L1732.63 913.33L1693.51 941.75L1678.57 895.77L1678.58 895.76ZM1729.94 921.62L1716.66 962.47H1700.25L1695.18 946.87L1729.93 921.62H1729.94ZM1720.39 967.6H1763.34L1728.59 992.85L1715.32 983.21L1720.39 967.61V967.6ZM1763.34 1024.43H1720.39L1715.32 1008.83L1728.59 999.19L1763.34 1024.44V1024.43ZM1732.95 996.02L1772.06 967.6H1811.09L1830.29 996.13L1811.3 1024.44H1772.07L1732.96 996.02H1732.95ZM1770.4 962.48H1722.06L1737 916.5L1768.57 893.56L1800.86 905.35L1802.14 939.42L1770.4 962.48ZM1801.29 900.04L1767.76 887.8L1739.69 908.19L1749.96 876.59L1774.43 850.24L1794.37 879.86H1829.07L1801.3 900.04H1801.29ZM1749.74 815.48L1739.7 784.56L1767.94 805.08L1801.52 792.76L1829.07 812.77H1794.16L1774.55 842.01L1749.75 815.47L1749.74 815.48ZM1800.74 787.58L1768.73 799.32L1737 776.26L1722.06 730.28H1770.4L1801.97 753.22L1800.73 787.58H1800.74ZM1732.96 696.74L1772.07 668.32H1811.09L1830.29 696.85L1811.3 725.16H1772.07L1732.96 696.74ZM1770.4 663.2H1722.06L1737 617.22L1768.57 594.28L1800.86 606.07L1802.14 640.14L1770.4 663.2ZM1801.41 600.81L1767.76 588.53L1739.69 608.92L1749.96 577.33L1774.42 551.09L1794.36 580.71H1829.06L1801.4 600.81H1801.41ZM1749.74 516.21L1739.7 485.29L1767.94 505.81L1801.41 493.53L1829.07 513.62H1794.16L1774.55 542.85L1749.74 516.2V516.21ZM1800.74 488.31L1768.73 500.05L1737 476.99L1722.06 431.01H1770.4L1801.97 453.95L1800.73 488.31H1800.74ZM1732.96 397.47L1772.07 369.05H1811.09L1830.29 397.58L1811.3 425.89H1772.07L1732.96 397.47ZM1770.4 363.93H1722.06L1737 317.95L1768.57 295.01L1800.86 306.8L1802.14 340.87L1770.4 363.93ZM1801.52 301.58L1767.76 289.26L1739.69 309.65L1749.95 278.07L1774.42 251.94L1794.36 281.57H1829.06L1801.52 301.59V301.58ZM1749.74 216.94L1739.7 186.02L1767.94 206.54L1801.3 194.3L1829.07 214.48H1794.16L1774.55 243.71L1749.74 216.94ZM1800.74 189.04L1768.73 200.78L1737 177.72L1722.06 131.74H1770.4L1801.97 154.68L1800.73 189.04H1800.74ZM1732.96 98.2L1772.07 69.78H1811.09L1830.29 98.31L1811.3 126.62H1772.07L1732.96 98.2ZM1728.6 95.03L1715.32 85.39L1720.39 69.79H1763.34L1728.59 95.04L1728.6 95.03ZM1763.34 126.61H1720.39L1715.32 111.01L1728.6 101.37L1763.34 126.61ZM1716.67 131.74L1729.94 172.59L1695.19 147.35L1700.26 131.74H1716.67ZM1732.63 180.89L1744.69 218L1723.69 244.79L1690.7 235.74L1678.58 198.44L1693.52 152.46L1732.63 180.88V180.89ZM1675.89 190.15L1662.62 149.3L1675.89 139.66L1689.16 149.3L1675.89 190.15ZM1673.19 198.45L1661.13 235.56L1628.26 244.73L1607.02 218.19L1619.14 180.89L1658.25 152.47L1673.19 198.45ZM1621.85 172.59L1635.13 131.74H1651.52L1656.59 147.35L1621.85 172.59ZM1631.4 126.61H1588.44L1623.19 101.37L1636.48 111.02L1631.41 126.61H1631.4ZM1588.43 69.78H1631.38L1636.45 85.38L1623.18 95.02L1588.43 69.77V69.78ZM1618.82 98.2L1579.71 126.62H1540.68L1521.48 98.09L1540.47 69.78H1579.7L1618.81 98.2H1618.82ZM1537.95 131.74H1572.65L1544.76 152.01L1511.34 139.81L1483.27 160.2L1493.54 128.6L1518.01 102.12L1537.94 131.73L1537.95 131.74ZM1512.16 145.56L1544.45 157.35L1545.73 191.42L1513.99 214.48H1465.65L1480.59 168.5L1512.16 145.56ZM1460.25 214.48H1443.84L1438.77 198.88L1473.52 173.63L1460.24 214.48H1460.25ZM1395.11 214.48H1378.7L1365.43 173.63L1400.18 198.88L1395.11 214.48ZM1373.3 214.48H1324.96L1293.39 191.54L1294.63 157.18L1326.64 145.44L1358.38 168.49L1373.32 214.47L1373.3 214.48ZM1327.43 139.69L1294.08 151.92L1266.3 131.74H1301.21L1320.93 102.33L1345.47 128.81L1355.67 160.2L1327.43 139.68V139.69ZM1298.47 126.61H1259.24L1220.13 98.19L1259.24 69.77H1298.26L1317.46 98.3L1298.47 126.61ZM1215.77 95.03L1202.49 85.39L1207.56 69.79H1250.51L1215.76 95.04L1215.77 95.03ZM1250.52 126.61H1207.57L1202.5 111.01L1215.78 101.37L1250.52 126.61ZM1203.84 131.74L1217.11 172.59L1182.36 147.35L1187.43 131.74H1203.84ZM1219.81 180.89L1231.87 218L1210.87 244.79L1177.88 235.74L1165.76 198.44L1180.7 152.46L1219.81 180.88V180.89ZM1163.06 190.15L1149.79 149.3L1163.06 139.66L1176.33 149.3L1163.06 190.15ZM1160.37 198.45L1148.31 235.56L1115.44 244.73L1094.2 218.19L1106.32 180.89L1145.43 152.47L1160.37 198.45ZM1109.02 172.59L1122.3 131.74H1138.69L1143.76 147.35L1109.02 172.59ZM1118.57 126.61H1075.61L1110.36 101.37L1123.65 111.02L1118.58 126.61H1118.57ZM1075.61 69.78H1118.56L1123.63 85.38L1110.36 95.02L1075.61 69.77V69.78ZM1106 98.2L1066.89 126.62H1027.86L1008.66 98.09L1027.65 69.78H1066.88L1105.99 98.2H1106ZM1025.13 131.74H1059.83L1031.94 152.01L998.52 139.81L970.45 160.2L980.72 128.6L1005.19 102.12L1025.12 131.73L1025.13 131.74ZM999.33 145.56L1031.62 157.35L1032.9 191.42L1001.16 214.48H952.82L967.76 168.5L999.33 145.56ZM947.43 214.48H931.02L925.95 198.88L960.7 173.63L947.42 214.48H947.43ZM882.28 214.48H865.87L852.6 173.63L887.35 198.88L882.28 214.48ZM860.48 214.48H812.14L780.57 191.54L781.81 157.18L813.82 145.44L845.56 168.49L860.5 214.47L860.48 214.48ZM814.61 139.69L781.26 151.92L753.48 131.74H788.39L808.11 102.33L832.65 128.81L842.85 160.2L814.61 139.68V139.69ZM785.65 126.61H746.42L707.31 98.19L746.42 69.77H785.44L804.64 98.3L785.65 126.61ZM702.95 95.03L689.67 85.39L694.74 69.79H737.69L702.94 95.04L702.95 95.03ZM737.69 126.61H694.74L689.67 111.01L702.95 101.37L737.69 126.61ZM691.02 131.74L704.29 172.59L669.54 147.35L674.61 131.74H691.02ZM706.98 180.89L719.04 218L698.04 244.79L665.05 235.74L652.93 198.44L667.87 152.46L706.98 180.88V180.89ZM650.24 190.15L636.97 149.3L650.24 139.66L663.51 149.3L650.24 190.15ZM647.54 198.45L635.48 235.56L602.61 244.73L581.37 218.19L593.49 180.89L632.6 152.47L647.54 198.45ZM596.2 172.59L609.48 131.74H625.87L630.94 147.35L596.2 172.59ZM605.75 126.61H562.79L597.54 101.37L610.83 111.02L605.76 126.61H605.75ZM562.78 69.78H605.73L610.8 85.38L597.53 95.02L562.78 69.77V69.78ZM593.17 98.2L554.06 126.62H515.03L495.83 98.09L514.82 69.78H554.05L593.16 98.2H593.17ZM512.3 131.74H547L519.11 152.01L485.69 139.81L457.62 160.2L467.89 128.6L492.36 102.12L512.29 131.73L512.3 131.74ZM486.51 145.56L518.8 157.35L520.08 191.42L488.34 214.48H440L454.94 168.5L486.51 145.56ZM434.6 214.48H418.19L413.12 198.88L447.87 173.63L434.59 214.48H434.6ZM369.46 214.48H353.05L339.78 173.63L374.53 198.88L369.46 214.48ZM347.65 214.48H299.31L267.74 191.54L268.98 157.18L300.99 145.44L332.73 168.49L347.67 214.47L347.65 214.48ZM301.78 139.69L268.43 151.92L240.65 131.74H275.56L295.28 102.33L319.82 128.81L330.02 160.2L301.78 139.68V139.69ZM272.82 126.61H233.59L194.48 98.19L233.59 69.77H272.61L291.81 98.3L272.82 126.61ZM190.12 95.03L176.84 85.39L181.91 69.79H224.86L190.11 95.04L190.12 95.03ZM224.87 126.61H181.92L176.85 111.01L190.13 101.37L224.87 126.61ZM178.19 131.74L191.46 172.59L156.71 147.35L161.78 131.74H178.19ZM194.16 180.89L206.22 218L185.22 244.79L152.23 235.74L140.11 198.44L155.05 152.46L194.16 180.88V180.89ZM137.41 190.15L124.14 149.3L137.41 139.66L150.68 149.3L137.41 190.15ZM134.72 198.45L122.66 235.56L89.79 244.73L68.55 218.19L80.67 180.89L119.78 152.47L134.72 198.45ZM83.37 172.59L96.65 131.74H113.04L118.11 147.35L83.37 172.59ZM92.92 126.61H49.96L84.71 101.37L98 111.02L92.93 126.61H92.92ZM49.96 69.78H92.91L97.98 85.38L84.71 95.02L49.96 69.77V69.78ZM80.35 98.2L41.24 126.62H2.21L-16.99 98.09L2 69.78H41.23L80.34 98.2H80.35ZM-0.519997 131.74H34.18L6.29 152.01L-27.13 139.81L-55.2 160.2L-44.93 128.6L-20.46 102.12L-0.529999 131.73L-0.519997 131.74ZM-26.32 145.56L5.97 157.35L7.25 191.42L-24.49 214.48H-72.83L-57.89 168.5L-26.32 145.56ZM-22.82 219.61H16.2L35.4 248.14L16.41 276.45H-22.82L-61.93 248.03L-22.82 219.61ZM7.09 304.5L5.85 338.86L-26.16 350.6L-57.89 327.54L-72.83 281.56H-24.49L7.08 304.5H7.09ZM-26.96 356.36L6.74 344L34.17 363.93H-0.739998L-20.36 393.18L-45.16 366.76L-55.2 335.84L-26.96 356.36ZM-23.58 397.22L-47.16 422.63L-66.92 397.48L-47.09 372.18L-23.58 397.22ZM-44.93 427.75L-20.46 401.39L-0.519997 431.01H34.18L6.41 451.19L-27.12 438.95L-55.19 459.34L-44.92 427.74L-44.93 427.75ZM-26.32 444.71L5.97 456.5L7.25 490.57L-24.49 513.63H-72.83L-57.89 467.65L-26.32 444.71ZM-22.82 518.75H16.2L35.4 547.28L16.41 575.59H-22.82L-61.93 547.17L-22.82 518.75ZM7.09 603.65L5.85 638.01L-26.16 649.75L-57.89 626.69L-72.83 580.71H-24.49L7.08 603.65H7.09ZM-26.96 655.51L6.62 643.19L34.17 663.2H-0.739998L-20.35 692.44L-45.15 665.9L-55.19 634.98L-26.95 655.5L-26.96 655.51ZM-23.58 696.49L-47.16 721.78L-66.92 696.62L-47.09 671.33L-23.57 696.49H-23.58ZM-44.93 726.9L-20.47 700.66L-0.529999 730.28H34.17L6.51 750.38L-27.14 738.1L-55.21 758.49L-44.94 726.9H-44.93ZM-26.32 743.86L5.97 755.65L7.25 789.72L-24.49 812.78H-72.83L-57.89 766.8L-26.32 743.86ZM-22.82 817.9H16.2L35.4 846.43L16.41 874.74H-22.82L-61.93 846.32L-22.82 817.9ZM7.09 902.8L5.85 937.16L-26.16 948.9L-57.89 925.84L-72.83 879.86H-24.49L7.08 902.8H7.09ZM-26.96 954.66L6.51 942.38L34.17 962.48H-0.739998L-20.35 991.71L-45.16 965.06L-55.2 934.14L-26.96 954.66ZM-23.58 995.76L-47.16 1020.94L-66.92 995.78L-47.1 970.49L-23.58 995.76ZM-44.93 1026.06L-20.46 999.93L-0.519997 1029.56H34.18L6.63 1049.58L-27.13 1037.26L-55.2 1057.65L-44.94 1026.07L-44.93 1026.06ZM42.9 1029.56H91.26L76.31 1075.53L44.73 1098.48L12.44 1086.69L11.16 1052.62L42.9 1029.56ZM96.65 1029.56H113.04L118.11 1045.16L83.37 1070.4L96.65 1029.56ZM116.77 1024.43H98.32L104.03 1006.88L89.08 996.02L104.02 985.17L98.31 967.6H116.78L122.49 950.04L137.43 960.89L152.37 950.04L158.08 967.6H176.55L170.84 985.17L185.78 996.02L170.84 1006.87L176.55 1024.44H158.08L152.37 1042L137.43 1031.15L122.49 1042L116.78 1024.44L116.77 1024.43ZM161.78 1029.56H178.19L191.46 1070.42L156.71 1045.17L161.78 1029.56ZM183.58 1029.56H231.92L263.49 1052.5L262.25 1086.86L230.24 1098.6L198.51 1075.54L183.57 1029.56H183.58ZM240.65 1029.56H275.56L295.3 1000.14L319.83 1026.27L330.03 1057.65L301.79 1037.13L268.09 1049.49L240.65 1029.56ZM298.41 995.96L321.88 970.67L341.93 995.73L322.04 1021.13L298.4 995.95L298.41 995.96ZM324.96 966.31L337.09 929.01L376.19 900.6L391.13 946.58L379.07 983.69L346.2 992.86L324.96 966.32V966.31ZM383.1 987.88L393.82 954.87L404.61 988.09L432.85 995.84L404.54 1003.93L393.82 1036.93L383.03 1003.73L354.94 995.75L383.1 987.89V987.88ZM408.64 983.87L396.52 946.57L411.46 900.59L450.57 929.01L462.63 966.12L441.63 992.91L408.64 983.86V983.87ZM465.72 970.49L489.24 995.76L465.66 1020.94L445.9 995.78L465.72 970.49ZM467.89 1026.06L492.36 999.93L512.3 1029.56H547L519.45 1049.58L485.69 1037.26L457.62 1057.65L467.88 1026.07L467.89 1026.06ZM555.72 1029.56H604.08L589.13 1075.53L557.55 1098.48L525.26 1086.69L523.98 1052.62L555.72 1029.56ZM609.48 1029.56H625.87L630.94 1045.16L596.2 1070.4L609.48 1029.56ZM629.59 1024.43H611.14L616.85 1006.88L601.9 996.02L616.84 985.17L611.13 967.6H629.6L635.31 950.04L650.25 960.89L665.19 950.04L670.9 967.6H689.37L683.66 985.17L698.6 996.02L683.66 1006.87L689.37 1024.44H670.9L665.19 1042L650.25 1031.15L635.31 1042L629.6 1024.44L629.59 1024.43ZM674.61 1029.56H691.02L704.29 1070.42L669.54 1045.17L674.61 1029.56ZM696.41 1029.56H744.75L776.32 1052.5L775.08 1086.86L743.07 1098.6L711.34 1075.54L696.4 1029.56H696.41ZM753.47 1029.56H788.38L808.12 1000.14L832.65 1026.27L842.85 1057.65L814.61 1037.13L780.91 1049.49L753.47 1029.56ZM811.23 995.96L834.7 970.67L854.75 995.73L834.86 1021.13L811.22 995.95L811.23 995.96ZM837.78 966.31L849.91 929.01L889.01 900.6L903.95 946.58L891.89 983.69L859.02 992.86L837.78 966.32V966.31ZM895.93 987.88L906.65 954.87L917.44 988.09L945.68 995.84L917.37 1003.93L906.65 1036.93L895.86 1003.73L867.77 995.75L895.93 987.89V987.88ZM921.47 983.87L909.35 946.57L924.29 900.59L963.4 929.01L975.46 966.12L954.46 992.91L921.47 983.86V983.87ZM978.54 970.49L1002.06 995.76L978.48 1020.94L958.72 995.78L978.54 970.49ZM980.72 1026.06L1005.19 999.93L1025.13 1029.56H1059.83L1032.28 1049.58L998.52 1037.26L970.45 1057.65L980.71 1026.07L980.72 1026.06ZM1068.55 1029.56H1116.91L1101.96 1075.53L1070.38 1098.48L1038.09 1086.69L1036.81 1052.62L1068.55 1029.56ZM1122.3 1029.56H1138.69L1143.76 1045.16L1109.02 1070.4L1122.3 1029.56ZM1142.42 1024.43H1123.97L1129.68 1006.88L1114.73 996.02L1129.67 985.17L1123.96 967.6H1142.43L1148.14 950.04L1163.08 960.89L1178.02 950.04L1183.73 967.6H1202.2L1196.49 985.17L1211.43 996.02L1196.49 1006.87L1202.2 1024.44H1183.73L1178.02 1042L1163.08 1031.15L1148.14 1042L1142.43 1024.44L1142.42 1024.43ZM1187.43 1029.56H1203.84L1217.11 1070.42L1182.36 1045.17L1187.43 1029.56ZM1209.23 1029.56H1257.57L1289.14 1052.5L1287.9 1086.86L1255.89 1098.6L1224.16 1075.54L1209.22 1029.56H1209.23ZM1266.3 1029.56H1301.21L1320.95 1000.14L1345.48 1026.27L1355.68 1057.65L1327.44 1037.13L1293.74 1049.49L1266.3 1029.56ZM1324.06 995.96L1347.53 970.67L1367.58 995.73L1347.69 1021.13L1324.05 995.95L1324.06 995.96ZM1350.61 966.31L1362.74 929.01L1401.84 900.6L1416.78 946.58L1404.72 983.69L1371.85 992.86L1350.61 966.32V966.31ZM1408.75 987.88L1419.47 954.87L1430.26 988.09L1458.5 995.84L1430.19 1003.93L1419.47 1036.93L1408.68 1003.73L1380.59 995.75L1408.75 987.89V987.88ZM1434.29 983.87L1422.17 946.57L1437.11 900.59L1476.22 929.01L1488.28 966.12L1467.28 992.91L1434.29 983.86V983.87ZM1491.37 970.49L1514.89 995.76L1491.31 1020.94L1471.55 995.78L1491.37 970.49ZM1493.54 1026.06L1518.01 999.93L1537.95 1029.56H1572.65L1545.1 1049.58L1511.34 1037.26L1483.27 1057.65L1493.53 1026.07L1493.54 1026.06ZM1581.37 1029.56H1629.73L1614.78 1075.53L1583.2 1098.48L1550.91 1086.69L1549.63 1052.62L1581.37 1029.56ZM1635.13 1029.56H1651.52L1656.59 1045.16L1621.85 1070.4L1635.13 1029.56ZM1655.24 1024.43H1636.79L1642.5 1006.88L1627.55 996.02L1642.49 985.17L1636.78 967.6H1655.25L1660.96 950.04L1675.9 960.89L1690.84 950.04L1696.55 967.6H1715.02L1709.31 985.17L1724.25 996.02L1709.31 1006.87L1715.02 1024.44H1696.55L1690.84 1042L1675.9 1031.15L1660.96 1042L1655.25 1024.44L1655.24 1024.43ZM1700.26 1029.56H1716.67L1729.94 1070.42L1695.19 1045.17L1700.26 1029.56ZM1722.06 1029.56H1770.4L1801.97 1052.5L1800.73 1086.86L1768.72 1098.6L1736.99 1075.54L1722.05 1029.56H1722.06ZM1779.12 1029.56H1814.03L1833.77 1000.14L1858.3 1026.27L1868.5 1057.65L1840.26 1037.13L1806.56 1049.49L1779.12 1029.56ZM1836.88 995.96L1860.35 970.67L1880.4 995.73L1860.51 1021.13L1836.87 995.95L1836.88 995.96ZM1858.38 965.26L1833.64 991.91L1813.82 962.47H1779.12L1806.9 942.29L1840.43 954.53L1868.5 934.13L1858.38 965.26ZM1839.62 948.78L1807.33 936.99L1806.05 902.93L1837.79 879.87H1886.15L1871.2 925.84L1839.62 948.79V948.78ZM1836.12 874.73H1797.09L1777.89 846.2L1796.88 817.89H1836.11L1875.22 846.31L1836.11 874.73H1836.12ZM1806.21 789.84L1807.45 755.48L1839.46 743.74L1871.2 766.79L1886.14 812.77H1837.8L1806.23 789.83L1806.21 789.84ZM1840.26 737.98L1806.68 750.3L1779.13 730.29H1814.04L1833.77 700.87L1858.3 727.12L1868.5 758.5L1840.26 737.98ZM1836.88 696.69L1860.35 671.52L1880.41 696.59L1860.53 721.99L1836.89 696.7L1836.88 696.69ZM1858.38 666.11L1833.64 692.65L1813.82 663.2H1779.13L1806.79 643.1L1840.43 655.38L1868.5 634.98L1858.38 666.11ZM1839.62 649.63L1807.33 637.84L1806.05 603.78L1837.79 580.72H1886.15L1871.2 626.69L1839.62 649.64V649.63ZM1836.12 575.59H1797.09L1777.89 547.06L1796.88 518.75H1836.11L1875.22 547.17L1836.11 575.59H1836.12ZM1806.21 490.69L1807.45 456.33L1839.46 444.59L1871.2 467.64L1886.14 513.62H1837.8L1806.23 490.68L1806.21 490.69ZM1840.26 438.83L1806.79 451.11L1779.13 431.01H1814.04L1833.77 401.6L1858.31 427.96L1868.51 459.35L1840.27 438.83H1840.26ZM1836.88 397.42L1860.35 372.36L1880.41 397.43L1860.53 422.82L1836.88 397.42ZM1858.38 366.96L1833.64 393.38L1813.82 363.93H1779.13L1806.67 343.91L1840.43 356.23L1868.5 335.83L1858.38 366.95V366.96ZM1839.62 350.48L1807.33 338.69L1806.05 304.63L1837.79 281.57H1886.15L1871.2 327.54L1839.62 350.49V350.48ZM1836.12 276.44H1797.09L1777.89 247.91L1796.88 219.6H1836.11L1875.22 248.02L1836.11 276.44H1836.12ZM1806.21 191.54L1807.45 157.18L1839.46 145.44L1871.2 168.49L1886.14 214.47H1837.8L1806.23 191.53L1806.21 191.54ZM1840.26 139.69L1806.91 151.92L1779.13 131.74H1814.04L1833.76 102.33L1858.3 128.81L1868.5 160.2L1840.26 139.68V139.69ZM1836.88 98.16L1860.34 73.21L1880.41 98.29L1860.54 123.68L1836.89 98.16H1836.88ZM1858.38 67.81L1833.65 94.11L1813.82 64.65H1779.13L1806.56 44.72L1840.43 57.08L1868.5 36.68L1858.38 67.8V67.81ZM1770.4 64.66H1722.06L1737 18.68L1768.57 -4.26L1800.86 7.53L1802.14 41.6L1770.4 64.66ZM1716.67 64.66H1700.26L1695.19 49.06L1729.94 23.81L1716.66 64.66H1716.67ZM1696.53 69.78H1715L1709.29 87.35L1724.23 98.2L1709.29 109.05L1715 126.61H1696.53L1690.82 144.17L1675.88 133.32L1660.94 144.17L1655.23 126.61H1636.78L1642.49 109.06L1627.54 98.2L1642.48 87.35L1636.77 69.78H1655.24L1660.95 52.22L1675.89 63.07L1690.83 52.22L1696.54 69.78H1696.53ZM1651.52 64.66H1635.11L1621.84 23.81L1656.59 49.05L1651.52 64.65V64.66ZM1629.72 64.66H1581.38L1549.81 41.72L1551.05 7.36L1583.06 -4.38L1614.79 18.68L1629.73 64.66H1629.72ZM1572.65 64.66H1537.74L1518.12 93.91L1493.33 67.61L1483.29 36.69L1511.53 57.21L1545.34 44.8L1572.66 64.65L1572.65 64.66ZM1514.89 97.96L1491.3 123.48L1471.55 98.33L1491.39 73.02L1514.9 97.95L1514.89 97.96ZM1488.34 128.02L1476.22 165.33L1437.1 193.75L1422.16 147.77L1434.22 110.66L1467.28 101.22L1488.33 128.03L1488.34 128.02ZM1430.2 106.47L1419.48 139.47L1408.69 106.27L1380.6 98.29L1408.76 90.43L1419.48 57.42L1430.27 90.64L1458.51 98.39L1430.2 106.48V106.47ZM1404.66 110.46L1416.78 147.77L1401.84 193.75L1362.73 165.33L1350.67 128.21L1371.86 101.14L1404.65 110.45L1404.66 110.46ZM1347.71 123.68L1324.06 98.16L1347.52 73.21L1367.59 98.29L1347.72 123.68H1347.71ZM1345.56 67.81L1320.83 94.11L1301 64.65H1266.31L1293.74 44.72L1327.61 57.08L1355.68 36.68L1345.56 67.8V67.81ZM1257.58 64.66H1209.24L1224.18 18.68L1255.75 -4.26L1288.04 7.53L1289.32 41.6L1257.58 64.66ZM1203.84 64.66H1187.43L1182.36 49.06L1217.11 23.81L1203.83 64.66H1203.84ZM1183.71 69.78H1202.18L1196.47 87.35L1211.41 98.2L1196.47 109.05L1202.18 126.61H1183.71L1178 144.17L1163.06 133.32L1148.12 144.17L1142.41 126.61H1123.96L1129.67 109.06L1114.72 98.2L1129.66 87.35L1123.95 69.78H1142.42L1148.13 52.22L1163.07 63.07L1178.01 52.22L1183.72 69.78H1183.71ZM1138.69 64.66H1122.28L1109.01 23.81L1143.76 49.05L1138.69 64.65V64.66ZM1116.89 64.66H1068.55L1036.98 41.72L1038.22 7.36L1070.23 -4.38L1101.96 18.68L1116.9 64.66H1116.89ZM1059.83 64.66H1024.92L1005.3 93.91L980.51 67.61L970.47 36.69L998.71 57.21L1032.52 44.8L1059.84 64.65L1059.83 64.66ZM1002.07 97.96L978.48 123.48L958.73 98.33L978.57 73.02L1002.08 97.95L1002.07 97.96ZM975.52 128.02L963.4 165.33L924.28 193.75L909.34 147.77L921.4 110.66L954.46 101.22L975.51 128.03L975.52 128.02ZM917.37 106.47L906.65 139.47L895.86 106.27L867.77 98.29L895.93 90.43L906.65 57.42L917.44 90.64L945.68 98.39L917.37 106.48V106.47ZM891.83 110.46L903.95 147.77L889.01 193.75L849.9 165.33L837.84 128.21L859.03 101.14L891.82 110.45L891.83 110.46ZM834.89 123.68L811.24 98.16L834.7 73.21L854.77 98.29L834.9 123.68H834.89ZM832.73 67.81L808 94.11L788.17 64.65H753.48L780.91 44.72L814.78 57.08L842.85 36.68L832.73 67.8V67.81ZM744.75 64.66H696.41L711.35 18.68L742.92 -4.26L775.21 7.53L776.49 41.6L744.75 64.66ZM691.02 64.66H674.61L669.54 49.06L704.29 23.81L691.01 64.66H691.02ZM670.88 69.78H689.35L683.64 87.35L698.58 98.2L683.64 109.05L689.35 126.61H670.88L665.17 144.17L650.23 133.32L635.29 144.17L629.58 126.61H611.13L616.84 109.06L601.89 98.2L616.83 87.35L611.12 69.78H629.59L635.3 52.22L650.24 63.07L665.18 52.22L670.89 69.78H670.88ZM625.87 64.66H609.46L596.19 23.81L630.94 49.05L625.87 64.65V64.66ZM604.07 64.66H555.73L524.16 41.72L525.4 7.36L557.41 -4.38L589.14 18.68L604.08 64.66H604.07ZM547 64.66H512.09L492.47 93.91L467.68 67.61L457.64 36.69L485.88 57.21L519.69 44.8L547.01 64.65L547 64.66ZM489.24 97.96L465.65 123.48L445.9 98.33L465.74 73.02L489.25 97.95L489.24 97.96ZM462.69 128.02L450.57 165.33L411.45 193.75L396.51 147.77L408.57 110.66L441.63 101.22L462.68 128.03L462.69 128.02ZM404.55 106.47L393.83 139.47L383.04 106.27L354.95 98.29L383.11 90.43L393.83 57.42L404.62 90.64L432.86 98.39L404.55 106.48V106.47ZM379.01 110.46L391.13 147.77L376.19 193.75L337.08 165.33L325.02 128.21L346.21 101.14L379 110.45L379.01 110.46ZM322.06 123.68L298.41 98.16L321.87 73.21L341.94 98.29L322.07 123.68H322.06ZM319.91 67.81L295.18 94.11L275.35 64.65H240.66L268.09 44.72L301.96 57.08L330.03 36.68L319.91 67.8V67.81ZM231.93 64.66H183.59L198.53 18.68L230.1 -4.26L262.39 7.53L263.67 41.6L231.93 64.66ZM178.19 64.66H161.78L156.71 49.06L191.46 23.81L178.18 64.66H178.19ZM158.06 69.78H176.53L170.82 87.35L185.76 98.2L170.82 109.05L176.53 126.61H158.06L152.35 144.17L137.41 133.32L122.47 144.17L116.76 126.61H98.31L104.02 109.06L89.07 98.2L104.01 87.35L98.3 69.78H116.77L122.48 52.22L137.42 63.07L152.36 52.22L158.07 69.78H158.06ZM113.04 64.66H96.63L83.36 23.81L118.11 49.05L113.04 64.65V64.66ZM91.24 64.66H42.9L11.33 41.72L12.57 7.36L44.58 -4.38L76.31 18.68L91.25 64.66H91.24ZM34.18 64.66H-0.730003L-20.35 93.91L-45.14 67.61L-55.18 36.69L-26.94 57.21L6.87 44.8L34.19 64.65L34.18 64.66ZM-23.58 97.96L-47.17 123.48L-66.92 98.33L-47.08 73.02L-23.57 97.95L-23.58 97.96ZM-94.63 214.48L-99.7 198.88L-64.95 173.63L-78.23 214.48H-94.64H-94.63ZM-79.57 235.21L-74.5 219.61H-31.55L-66.3 244.86L-79.58 235.22L-79.57 235.21ZM-66.29 251.19L-31.55 276.43H-74.5L-79.57 260.83L-66.29 251.19ZM-94.63 281.56H-78.22L-64.95 322.41L-99.7 297.17L-94.63 281.56ZM-104.18 385.57L-116.3 348.27L-101.36 302.29L-62.25 330.71L-50.19 367.82L-71.19 394.61L-104.18 385.56V385.57ZM-116.3 446.92L-104.24 409.81L-71.18 400.37L-50.13 427.18L-62.25 464.49L-101.37 492.91L-116.31 446.93L-116.3 446.92ZM-94.63 513.63L-99.7 498.03L-64.95 472.78L-78.23 513.63H-94.64H-94.63ZM-79.57 534.36L-74.5 518.76H-31.55L-66.3 544.01L-79.58 534.37L-79.57 534.36ZM-66.29 550.34L-31.55 575.58H-74.5L-79.57 559.98L-66.29 550.34ZM-94.63 580.71H-78.22L-64.95 621.56L-99.7 596.32L-94.63 580.71ZM-104.18 684.72L-116.3 647.42L-101.36 601.44L-62.25 629.86L-50.19 666.97L-71.19 693.76L-104.18 684.71V684.72ZM-116.3 746.06L-104.24 708.95L-71.18 699.51L-50.13 726.32L-62.25 763.63L-101.37 792.05L-116.31 746.07L-116.3 746.06ZM-94.63 812.78L-99.7 797.18L-64.95 771.93L-78.23 812.78H-94.64H-94.63ZM-79.57 833.51L-74.5 817.91H-31.55L-66.3 843.16L-79.58 833.52L-79.57 833.51ZM-66.29 849.49L-31.55 874.73H-74.5L-79.57 859.13L-66.29 849.49ZM-94.63 879.86H-78.22L-64.95 920.71L-99.7 895.47L-94.63 879.86ZM-104.18 983.87L-116.3 946.57L-101.36 900.59L-62.25 929.01L-50.19 966.12L-71.19 992.91L-104.18 983.86V983.87ZM-116.3 1045.21L-104.24 1008.1L-71.18 998.66L-50.13 1025.47L-62.25 1062.78L-101.37 1091.2L-116.31 1045.22L-116.3 1045.21ZM-94.63 1111.92L-99.7 1096.32L-64.95 1071.07L-78.23 1111.92H-94.64H-94.63ZM-66.29 1142.34L-79.57 1132.65L-74.5 1117.05H-31.55L-66.3 1142.34H-66.29ZM-24.49 1111.92H-72.83L-57.89 1065.94L-26.32 1043L5.97 1054.79L7.25 1088.86L-24.49 1111.92ZM63.49 1114.95L38.75 1141.41L18.93 1111.92H-15.76L11.78 1091.9L45.54 1104.22L73.61 1083.82L63.49 1114.94V1114.95ZM122.66 1133.38L89.79 1142.64L68.55 1116.01L80.68 1078.71L119.78 1050.3L134.72 1096.28L122.66 1133.39V1133.38ZM124.14 1047.12L137.41 1037.48L150.68 1047.12L137.41 1087.96L124.14 1047.12ZM185.21 1142.7L152.22 1133.57L140.1 1096.27L155.04 1050.29L194.15 1078.71L206.21 1115.82L185.21 1142.69V1142.7ZM255.68 1111.92L236.06 1141.25L211.26 1114.75L201.22 1083.84L229.46 1104.36L263.16 1092L290.59 1111.93H255.68V1111.92ZM267.74 1088.98L268.98 1054.62L300.99 1042.88L332.73 1065.93L347.67 1111.91H299.33L267.76 1088.97L267.74 1088.98ZM341.12 1142.34L306.37 1117.05H349.32L354.39 1132.65L341.12 1142.34ZM369.46 1111.92H353.05L339.78 1071.07L374.53 1096.32L369.46 1111.92ZM376.19 1091.19L337.08 1062.77L325.02 1025.65L346.21 998.58L379 1007.89L391.12 1045.2L376.18 1091.18L376.19 1091.19ZM393.82 1104L380.55 1094.36L393.82 1053.52L407.09 1094.36L393.82 1104ZM396.52 1045.21L408.58 1008.1L441.64 998.66L462.69 1025.47L450.57 1062.78L411.45 1091.2L396.51 1045.22L396.52 1045.21ZM418.19 1111.92L413.12 1096.32L447.87 1071.07L434.59 1111.92H418.18H418.19ZM446.53 1142.34L433.25 1132.65L438.32 1117.05H481.27L446.52 1142.34H446.53ZM488.34 1111.92H440L454.94 1065.94L486.51 1043L518.8 1054.79L520.08 1088.86L488.34 1111.92ZM576.32 1114.95L551.58 1141.41L531.76 1111.92H497.07L524.61 1091.9L558.37 1104.22L586.44 1083.82L576.32 1114.94V1114.95ZM635.48 1133.38L602.61 1142.64L581.37 1116.01L593.5 1078.71L632.6 1050.3L647.54 1096.28L635.48 1133.39V1133.38ZM636.97 1047.12L650.24 1037.48L663.51 1047.12L650.24 1087.96L636.97 1047.12ZM698.04 1142.7L665.05 1133.57L652.93 1096.27L667.87 1050.29L706.98 1078.71L719.04 1115.82L698.04 1142.69V1142.7ZM768.5 1111.92L748.88 1141.25L724.08 1114.75L714.04 1083.84L742.28 1104.36L775.98 1092L803.41 1111.93H768.5V1111.92ZM780.56 1088.98L781.8 1054.62L813.81 1042.88L845.55 1065.93L860.49 1111.91H812.15L780.58 1088.97L780.56 1088.98ZM853.94 1142.34L819.19 1117.05H862.14L867.21 1132.65L853.94 1142.34ZM882.28 1111.92H865.87L852.6 1071.07L887.35 1096.32L882.28 1111.92ZM889.02 1091.19L849.91 1062.77L837.85 1025.65L859.04 998.58L891.83 1007.89L903.95 1045.2L889.01 1091.18L889.02 1091.19ZM906.65 1104L893.38 1094.36L906.65 1053.52L919.92 1094.36L906.65 1104ZM909.35 1045.21L921.41 1008.1L954.47 998.66L975.52 1025.47L963.4 1062.78L924.28 1091.2L909.34 1045.22L909.35 1045.21ZM931.02 1111.92L925.95 1096.32L960.7 1071.07L947.42 1111.92H931.01H931.02ZM959.36 1142.38L946.08 1132.65L951.15 1117.05H994.1L959.35 1142.38H959.36ZM1001.16 1111.92H952.82L967.76 1065.94L999.33 1043L1031.62 1054.79L1032.9 1088.86L1001.16 1111.92ZM1089.14 1114.95L1064.4 1141.41L1044.58 1111.92H1009.89L1037.43 1091.9L1071.19 1104.22L1099.26 1083.82L1089.14 1114.94V1114.95ZM1148.31 1133.38L1115.44 1142.6L1094.2 1116.01L1106.33 1078.71L1145.43 1050.3L1160.37 1096.28L1148.31 1133.39V1133.38ZM1149.79 1047.12L1163.06 1037.48L1176.33 1047.12L1163.06 1087.96L1149.79 1047.12ZM1210.86 1142.66L1177.87 1133.57L1165.75 1096.27L1180.69 1050.29L1219.8 1078.71L1231.86 1115.82L1210.86 1142.65V1142.66ZM1281.33 1111.92L1261.71 1141.25L1236.91 1114.75L1226.87 1083.84L1255.11 1104.36L1288.81 1092L1316.24 1111.93H1281.33V1111.92ZM1293.39 1088.98L1294.63 1054.62L1326.64 1042.88L1358.38 1065.93L1373.32 1111.91H1324.98L1293.41 1088.97L1293.39 1088.98ZM1366.77 1142.38L1332.02 1117.05H1374.97L1380.04 1132.65L1366.77 1142.38ZM1395.11 1111.92H1378.7L1365.43 1071.07L1400.18 1096.32L1395.11 1111.92ZM1401.84 1091.19L1362.73 1062.77L1350.67 1025.65L1371.86 998.58L1404.65 1007.89L1416.77 1045.2L1401.83 1091.18L1401.84 1091.19ZM1419.47 1104L1406.2 1094.36L1419.47 1053.52L1432.74 1094.36L1419.47 1104ZM1422.17 1045.21L1434.23 1008.1L1467.29 998.66L1488.34 1025.47L1476.22 1062.78L1437.1 1091.2L1422.16 1045.22L1422.17 1045.21ZM1443.84 1111.92L1438.77 1096.32L1473.52 1071.07L1460.24 1111.92H1443.83H1443.84ZM1472.18 1142.34L1458.9 1132.65L1463.97 1117.05H1506.92L1472.17 1142.34H1472.18ZM1513.99 1111.92H1465.65L1480.59 1065.94L1512.16 1043L1544.45 1054.79L1545.73 1088.86L1513.99 1111.92ZM1601.97 1114.95L1577.23 1141.41L1557.41 1111.92H1522.72L1550.26 1091.9L1584.02 1104.22L1612.09 1083.82L1601.97 1114.94V1114.95ZM1661.13 1133.38L1628.26 1142.64L1607.02 1116.01L1619.15 1078.71L1658.25 1050.3L1673.19 1096.28L1661.13 1133.39V1133.38ZM1662.62 1047.12L1675.89 1037.48L1689.16 1047.12L1675.89 1087.96L1662.62 1047.12ZM1723.69 1142.7L1690.7 1133.57L1678.58 1096.27L1693.52 1050.29L1732.63 1078.71L1744.69 1115.82L1723.69 1142.69V1142.7ZM1794.15 1111.92L1774.53 1141.25L1749.73 1114.75L1739.69 1083.84L1767.93 1104.36L1801.63 1092L1829.06 1111.93H1794.15V1111.92ZM1806.21 1088.98L1807.45 1054.62L1839.46 1042.88L1871.2 1065.93L1886.14 1111.91H1837.8L1806.23 1088.97L1806.21 1088.98ZM1879.59 1142.34L1844.84 1117.05H1887.79L1892.86 1132.65L1879.59 1142.34ZM1907.93 1111.92H1891.52L1878.25 1071.07L1913 1096.32L1907.93 1111.92ZM1917.48 1007.9L1929.6 1045.21L1914.66 1091.19L1875.55 1062.77L1863.49 1025.65L1884.68 998.58L1917.47 1007.89L1917.48 1007.9ZM1929.6 946.57L1917.54 983.68L1884.67 992.85L1863.43 966.31L1875.56 929.01L1914.66 900.6L1929.6 946.58V946.57ZM1907.93 879.86L1913 895.46L1878.26 920.7L1891.54 879.86H1907.93ZM1892.88 859.14L1887.81 874.73H1844.85L1879.6 849.49L1892.89 859.14H1892.88ZM1879.59 843.15L1844.84 817.9H1887.79L1892.86 833.5L1879.59 843.14V843.15ZM1907.93 812.78H1891.52L1878.25 771.93L1913 797.18L1907.93 812.78ZM1917.48 708.75L1929.6 746.06L1914.66 792.04L1875.55 763.62L1863.49 726.5L1884.68 699.43L1917.47 708.74L1917.48 708.75ZM1929.6 647.42L1917.54 684.53L1884.67 693.7L1863.43 667.16L1875.56 629.86L1914.66 601.45L1929.6 647.43V647.42ZM1907.93 580.71L1913 596.31L1878.26 621.55L1891.54 580.71H1907.93ZM1892.88 559.99L1887.81 575.58H1844.85L1879.6 550.34L1892.89 559.99H1892.88ZM1879.59 544L1844.84 518.75H1887.79L1892.86 534.35L1879.59 543.99V544ZM1907.93 513.63H1891.52L1878.25 472.78L1913 498.03L1907.93 513.63ZM1917.48 409.61L1929.6 446.92L1914.66 492.9L1875.55 464.48L1863.49 427.36L1884.68 400.29L1917.47 409.6L1917.48 409.61ZM1929.6 348.27L1917.54 385.38L1884.67 394.55L1863.43 368.01L1875.56 330.71L1914.66 302.3L1929.6 348.28V348.27ZM1907.93 281.56L1913 297.16L1878.26 322.4L1891.54 281.56H1907.93ZM1892.88 260.85L1887.81 276.44H1844.85L1879.6 251.2L1892.89 260.85H1892.88ZM1879.59 244.85L1844.84 219.6H1887.79L1892.86 235.2L1879.59 244.84V244.85ZM1907.93 214.48H1891.52L1878.25 173.63L1913 198.88L1907.93 214.48ZM1917.48 110.46L1929.6 147.77L1914.66 193.75L1875.55 165.33L1863.49 128.21L1884.68 101.14L1917.47 110.45L1917.48 110.46ZM1929.6 49.13L1917.54 86.24L1884.67 95.41L1863.43 68.87L1875.56 31.57L1914.66 3.16L1929.6 49.14V49.13ZM1907.93 -17.58L1913 -1.98L1878.26 23.26L1891.54 -17.58H1907.93ZM1879.59 -47.91L1892.88 -38.3L1887.81 -22.71H1844.85L1879.6 -47.91H1879.59ZM1837.79 -17.58H1886.15L1871.2 28.39L1839.62 51.34L1807.33 39.55L1806.05 5.49L1837.79 -17.57V-17.58ZM1749.96 -21.2L1774.42 -47.13L1794.37 -17.58H1829.07L1801.64 2.35L1767.76 -10.01L1739.69 10.38L1749.95 -21.2H1749.96ZM1690.64 -39.17L1723.7 -48.36L1744.75 -21.81L1732.63 15.5L1693.51 43.92L1678.57 -2.05L1690.63 -39.17H1690.64ZM1689.16 47.09L1675.89 56.73L1662.62 47.09L1675.89 6.24L1689.16 47.09ZM1628.27 -48.42L1661.06 -39.36L1673.18 -2.05L1658.24 43.92L1619.13 15.5L1607.07 -21.61L1628.26 -48.43L1628.27 -48.42ZM1557.62 -17.58L1577.36 -47.01L1601.88 -21L1612.08 10.39L1583.84 -10.13L1550.03 2.27L1522.71 -17.58H1557.62ZM1545.56 5.36L1544.32 39.72L1512.31 51.46L1480.58 28.4L1465.64 -17.58H1513.98L1545.55 5.36H1545.56ZM1472.18 -47.91L1506.92 -22.71H1463.97L1458.9 -38.31L1472.18 -47.91ZM1443.84 -17.58H1460.25L1473.52 23.27L1438.77 -1.97L1443.84 -17.58ZM1437.11 3.15L1476.22 31.57L1488.28 68.68L1467.28 95.47L1434.29 86.42L1422.17 49.12L1437.11 3.14V3.15ZM1419.47 -9.66L1432.74 -0.0200005L1419.47 40.83L1406.2 -0.0200005L1419.47 -9.66ZM1416.78 49.13L1404.72 86.24L1371.85 95.41L1350.61 68.87L1362.74 31.57L1401.84 3.16L1416.78 49.14V49.13ZM1395.11 -17.58L1400.18 -1.98L1365.44 23.26L1378.72 -17.58H1395.11ZM1366.77 -47.95L1380.06 -38.3L1374.99 -22.71H1332.03L1366.78 -47.95H1366.77ZM1324.96 -17.58H1373.32L1358.37 28.39L1326.79 51.34L1294.5 39.55L1293.22 5.49L1324.96 -17.57V-17.58ZM1237.13 -21.2L1261.59 -47.13L1281.54 -17.58H1316.24L1288.81 2.35L1254.93 -10.01L1226.86 10.38L1237.12 -21.2H1237.13ZM1177.82 -39.17L1210.88 -48.36L1231.93 -21.81L1219.81 15.5L1180.69 43.92L1165.75 -2.05L1177.81 -39.17H1177.82ZM1176.33 47.09L1163.06 56.73L1149.79 47.09L1163.06 6.24L1176.33 47.09ZM1115.45 -48.38L1148.24 -39.36L1160.36 -2.05L1145.42 43.92L1106.31 15.5L1094.25 -21.61L1115.44 -48.38H1115.45ZM1044.8 -17.58L1064.54 -47.01L1089.06 -21L1099.26 10.39L1071.02 -10.13L1037.21 2.27L1009.89 -17.58H1044.8ZM1032.74 5.36L1031.5 39.72L999.49 51.46L967.76 28.4L952.82 -17.58H1001.16L1032.73 5.36H1032.74ZM959.36 -47.91L994.1 -22.71H951.15L946.08 -38.31L959.36 -47.91ZM931.02 -17.58H947.43L960.7 23.27L925.95 -1.97L931.02 -17.58ZM924.28 3.15L963.39 31.57L975.45 68.68L954.45 95.47L921.46 86.42L909.34 49.12L924.28 3.14V3.15ZM906.65 -9.66L919.92 -0.0200005L906.65 40.83L893.38 -0.0200005L906.65 -9.66ZM903.95 49.13L891.89 86.24L859.02 95.41L837.78 68.87L849.91 31.57L889.01 3.16L903.95 49.14V49.13ZM882.28 -17.58L887.35 -1.98L852.61 23.26L865.89 -17.58H882.28ZM853.94 -47.91L867.23 -38.3L862.16 -22.71H819.2L853.95 -47.91H853.94ZM812.14 -17.58H860.5L845.55 28.39L813.97 51.34L781.68 39.55L780.4 5.49L812.14 -17.57V-17.58ZM724.31 -21.2L748.77 -47.13L768.72 -17.58H803.42L775.99 2.35L742.11 -10.01L714.04 10.38L724.3 -21.2H724.31ZM664.99 -39.17L698.05 -48.36L719.1 -21.81L706.98 15.5L667.86 43.92L652.92 -2.05L664.98 -39.17H664.99ZM663.51 47.09L650.24 56.73L636.97 47.09L650.24 6.24L663.51 47.09ZM602.62 -48.42L635.41 -39.36L647.53 -2.05L632.59 43.92L593.48 15.5L581.42 -21.61L602.61 -48.43L602.62 -48.42ZM531.97 -17.58L551.71 -47.01L576.23 -21L586.43 10.39L558.19 -10.13L524.38 2.27L497.06 -17.58H531.97ZM519.91 5.36L518.67 39.72L486.66 51.46L454.93 28.4L439.99 -17.58H488.33L519.9 5.36H519.91ZM446.53 -47.91L481.27 -22.71H438.32L433.25 -38.31L446.53 -47.91ZM418.19 -17.58H434.6L447.87 23.27L413.12 -1.97L418.19 -17.58ZM411.46 3.15L450.57 31.57L462.63 68.68L441.63 95.47L408.64 86.42L396.52 49.12L411.46 3.14V3.15ZM393.82 -9.66L407.09 -0.0200005L393.82 40.83L380.55 -0.0200005L393.82 -9.66ZM391.13 49.13L379.07 86.24L346.2 95.41L324.96 68.87L337.09 31.57L376.19 3.16L391.13 49.14V49.13ZM369.46 -17.58L374.53 -1.98L339.79 23.26L353.07 -17.58H369.46ZM341.12 -47.91L354.41 -38.3L349.34 -22.71H306.38L341.13 -47.91H341.12ZM299.31 -17.58H347.67L332.72 28.39L301.14 51.34L268.85 39.55L267.57 5.49L299.31 -17.57V-17.58ZM211.48 -21.2L235.94 -47.13L255.89 -17.58H290.59L263.16 2.35L229.28 -10.01L201.21 10.38L211.47 -21.2H211.48ZM152.17 -39.17L185.23 -48.36L206.28 -21.81L194.16 15.5L155.04 43.92L140.1 -2.05L152.16 -39.17H152.17ZM150.68 47.09L137.41 56.73L124.14 47.09L137.41 6.24L150.68 47.09ZM89.8 -48.42L122.59 -39.36L134.71 -2.05L119.77 43.92L80.66 15.5L68.6 -21.61L89.79 -48.43L89.8 -48.42ZM19.15 -17.58L38.89 -47.01L63.41 -21L73.61 10.39L45.37 -10.13L11.56 2.27L-15.76 -17.58H19.15ZM7.09 5.36L5.85 39.72L-26.16 51.46L-57.89 28.4L-72.83 -17.58H-24.49L7.08 5.36H7.09ZM-66.29 -47.91L-31.55 -22.71H-74.5L-79.57 -38.31L-66.29 -47.91ZM-94.63 -17.58H-78.22L-64.95 23.27L-99.7 -1.97L-94.63 -17.58ZM-101.37 3.15L-62.26 31.57L-50.2 68.68L-71.2 95.47L-104.19 86.42L-116.3 49.13L-101.36 3.15H-101.37Z" fill="var(--fill-0, #013030)" fill-opacity="0.1"/>
</g>
<defs>
<clipPath id="clip0_21_12">
<rect width="1920" height="489" fill="white"/>
</clipPath>
</defs>
</svg>
