<svg preserveAspectRatio="none" width="100%" height="100%" overflow="visible" style="display: block;" viewBox="0 0 2051.3 1196.59" fill="none" xmlns="http://www.w3.org/2000/svg">
<g id="Layer_10" clip-path="url(#clip0_21_36)">
<path id="Vector" d="M0 41.34L13.27 50.98L0 91.83V108.42L10.79 141.64L39.03 149.39L10.72 157.48L0 190.47V207.07L13.27 247.91L0 257.55V263.89L14.94 253.04L20.65 270.6H39.12L33.41 288.17L48.35 299.02L33.41 309.87L39.12 327.43H20.65L14.94 344.99L0 334.14V340.48L13.27 350.12L0 390.98V407.57L10.79 440.79L39.03 448.54L10.72 456.63L0 489.62V506.22L13.27 547.06L0 556.7V563.04L14.94 552.19L20.65 569.75H39.12L33.41 587.32L48.35 598.17L33.41 609.02L39.12 626.58H20.65L14.94 644.14L0 633.29V639.63L13.27 649.27L0 690.12V706.71L10.79 739.93L39.03 747.68L10.72 755.77L0 788.77V805.37L13.27 846.21L0 855.85V862.19L14.94 851.34L20.65 868.9H39.12L33.41 886.47L48.35 897.32L33.41 908.17L39.12 925.73H20.65L14.94 943.29L0 932.44V938.78L13.27 948.42L0 989.27V1005.86L10.79 1039.08L39.03 1046.83L10.72 1054.92L0 1087.92V1104.52L13.27 1145.36L0 1155V1161.34L14.94 1150.49L20.65 1168.05H39.12L33.41 1185.62L48.35 1196.6H57.08L96.19 1168.06H135.21L154.41 1196.6H161L184.47 1171.37L204.48 1196.6H217.79L245.7 1188.58L256.42 1155.57L267.21 1188.79L295.52 1196.6H308.5L328.32 1171.19L351.83 1196.6H358.42L377.41 1168.06H416.64L455.75 1196.6H464.47L479.41 1185.62L473.7 1168.05H492.17L497.88 1150.49L512.82 1161.34L527.76 1150.49L533.47 1168.05H551.94L546.23 1185.62L561.17 1196.6H569.9L609.01 1168.06H648.03L667.23 1196.6H673.82L697.29 1171.37L717.3 1196.6H730.61L758.52 1188.58L769.24 1155.57L780.03 1188.79L808.34 1196.6H821.32L841.14 1171.19L864.65 1196.6H871.24L890.23 1168.06H929.46L968.57 1196.6H977.29L992.23 1185.62L986.52 1168.05H1004.99L1010.7 1150.49L1025.64 1161.34L1040.58 1150.49L1046.29 1168.05H1064.76L1059.05 1185.62L1073.99 1196.6H1082.72L1121.83 1168.06H1160.85L1180.05 1196.6H1186.64L1210.11 1171.37L1230.12 1196.6H1243.37L1271.34 1188.58L1282.06 1155.57L1292.85 1188.79L1321.23 1196.6H1334.15L1353.97 1171.19L1377.48 1196.6H1384.07L1403.06 1168.06H1442.29L1481.4 1196.6H1490.12L1505.06 1185.62L1499.35 1168.05H1517.82L1523.53 1150.49L1538.47 1161.34L1553.41 1150.49L1559.12 1168.05H1577.59L1571.88 1185.62L1586.82 1196.6H1595.55L1634.66 1168.06H1673.68L1692.88 1196.6H1699.47L1722.94 1171.37L1742.95 1196.6H1756.26L1784.17 1188.58L1794.89 1155.57L1805.68 1188.79L1833.99 1196.6H1846.97L1866.79 1171.19L1890.3 1196.6H1896.89L1915.88 1168.06H1955.11L1994.22 1196.6H2002.94L2017.88 1185.62L2012.17 1168.05H2030.64L2036.35 1150.49L2051.29 1161.34V1155L2038.02 1145.36L2051.29 1104.52V1087.92L2040.5 1054.72L2012.41 1046.74L2040.57 1038.88L2051.29 1005.87V989.28L2038.02 948.43L2051.29 938.79V932.45L2036.35 943.3L2030.64 925.74H2012.19L2017.9 908.19L2002.95 897.33L2017.89 886.48L2012.18 868.91H2030.65L2036.36 851.35L2051.3 862.2V855.86L2038.03 846.22L2051.3 805.38V788.78L2040.51 755.58L2012.42 747.6L2040.58 739.74L2051.3 706.73V690.14L2038.03 649.29L2051.3 639.65V633.31L2036.36 644.16L2030.65 626.6H2012.2L2017.91 609.05L2002.96 598.19L2017.9 587.34L2012.19 569.77H2030.66L2036.37 552.21L2051.31 563.06V556.72L2038.04 547.08L2051.31 506.24V489.64L2040.52 456.44L2012.43 448.46L2040.59 440.6L2051.31 407.59V391L2038.04 350.15L2051.31 340.51V334.17L2036.37 345.02L2030.66 327.46H2012.21L2017.92 309.91L2002.97 299.05L2017.91 288.2L2012.2 270.63H2030.67L2036.38 253.07L2051.32 263.92V257.58L2038.05 247.94L2051.32 207.1V190.5L2040.53 157.3L2012.44 149.32L2040.6 141.46L2051.32 108.45V91.86L2038.05 51.01L2051.32 41.37V35.03L2036.38 45.88L2030.67 28.32H2012.22L2017.93 10.77L2002.98 0.03H1994.26L1955.15 28.32H1916.12L1896.92 0.03H1890.33L1866.76 24.7L1847 0.03H1834.02L1805.64 7.68L1794.92 40.68L1784.13 7.48L1756.29 0.03H1742.98L1723.14 24.91L1699.5 0.03H1692.91L1673.92 28.32H1634.69L1595.58 0.03H1586.85L1571.91 10.76L1577.62 28.32H1559.15L1553.44 45.88L1538.5 35.03L1523.56 45.88L1517.85 28.32H1499.4L1505.11 10.77L1490.16 0.03H1481.44L1442.33 28.32H1403.3L1384.1 0.03H1377.51L1353.94 24.7L1334.18 0.03H1321.26L1292.81 7.68L1282.09 40.68L1271.3 7.48L1243.4 0.03H1230.15L1210.31 24.91L1186.67 0.03H1180.08L1161.09 28.32H1121.86L1082.75 0.03H1074.02L1059.08 10.76L1064.79 28.32H1046.32L1040.61 45.88L1025.67 35.03L1010.73 45.88L1005.02 28.32H986.57L992.28 10.77L977.33 0.03H968.61L929.5 28.32H890.47L871.27 0.03H864.68L841.11 24.7L821.35 0.03H808.37L779.99 7.68L769.27 40.68L758.48 7.48L730.64 0.03H717.33L697.49 24.91L673.85 0.03H667.26L648.27 28.32H609.04L569.9 0H561.17L546.23 10.73L551.94 28.29H533.47L527.76 45.85L512.82 35L497.88 45.85L492.17 28.29H473.72L479.43 10.74L464.48 0H455.76L416.65 28.29H377.62L358.42 0H351.83L328.26 24.67L308.5 0H295.52L267.14 7.65L256.42 40.65L245.63 7.45L217.79 0H204.48L184.64 24.88L161 0H154.41L135.42 28.29H96.19L57.07 0H48.34L33.4 10.73L39.11 28.29H20.64L14.93 45.85L0 35V41.34ZM2.7 198.77L14.76 161.66L47.82 152.22L68.87 179.03L56.75 216.34L17.63 244.76L2.69 198.78L2.7 198.77ZM512.82 263.89L527.76 253.04L533.47 270.6H551.94L546.23 288.17L561.17 299.02L546.23 309.87L551.94 327.43H533.47L527.76 344.99L512.82 334.14L497.88 344.99L492.17 327.43H473.72L479.43 309.88L464.48 299.02L479.42 288.17L473.71 270.6H492.18L497.89 253.04L512.83 263.89H512.82ZM499.55 247.91L512.82 207.07L526.09 247.91L512.82 257.55L499.55 247.91ZM1025.65 263.89L1040.59 253.04L1046.3 270.6H1064.77L1059.06 288.17L1074 299.02L1059.06 309.87L1064.77 327.43H1046.3L1040.59 344.99L1025.65 334.14L1010.71 344.99L1005 327.43H986.55L992.26 309.88L977.31 299.02L992.25 288.17L986.54 270.6H1005.01L1010.72 253.04L1025.66 263.89H1025.65ZM1012.38 247.91L1025.65 207.07L1038.92 247.91L1025.65 257.55L1012.38 247.91ZM1538.47 263.89L1553.41 253.04L1559.12 270.6H1577.59L1571.88 288.17L1586.82 299.02L1571.88 309.87L1577.59 327.43H1559.12L1553.41 344.99L1538.47 334.14L1523.53 344.99L1517.82 327.43H1499.37L1505.08 309.88L1490.13 299.02L1505.07 288.17L1499.36 270.6H1517.83L1523.54 253.04L1538.48 263.89H1538.47ZM1525.2 247.91L1538.47 207.07L1551.74 247.91L1538.47 257.55L1525.2 247.91ZM1538.47 932.45L1523.53 943.3L1517.82 925.74H1499.37L1505.08 908.19L1490.13 897.33L1505.07 886.48L1499.36 868.91H1517.83L1523.54 851.35L1538.48 862.2L1553.42 851.35L1559.13 868.91H1577.6L1571.89 886.48L1586.83 897.33L1571.89 908.18L1577.6 925.74H1559.13L1553.42 943.3L1538.48 932.45H1538.47ZM1551.75 948.42L1538.48 989.27L1525.21 948.42L1538.48 938.78L1551.75 948.42ZM1025.65 932.45L1010.71 943.3L1005 925.74H986.55L992.26 908.19L977.31 897.33L992.25 886.48L986.54 868.91H1005.01L1010.72 851.35L1025.66 862.2L1040.6 851.35L1046.31 868.91H1064.78L1059.07 886.48L1074.01 897.33L1059.07 908.18L1064.78 925.74H1046.31L1040.6 943.3L1025.66 932.45H1025.65ZM1038.92 948.42L1025.65 989.27L1012.38 948.42L1025.65 938.78L1038.92 948.42ZM512.82 932.45L497.88 943.3L492.17 925.74H473.72L479.43 908.19L464.48 897.33L479.42 886.48L473.71 868.91H492.18L497.89 851.35L512.83 862.2L527.77 851.35L533.48 868.91H551.95L546.24 886.48L561.18 897.33L546.24 908.18L551.95 925.74H533.48L527.77 943.3L512.83 932.45H512.82ZM526.1 948.42L512.83 989.27L499.56 948.42L512.83 938.78L526.1 948.42ZM131.13 245.22L164.54 257.42L192.61 237.02L182.49 268.15L157.75 294.92L137.94 265.48H103.25L131.14 245.22H131.13ZM130.16 205.8L161.9 182.74H210.26L195.31 228.72L163.73 251.67L131.44 239.87L130.16 205.81V205.8ZM348.46 257.54L381.82 245.3L409.59 265.48H374.68L355.07 294.71L330.26 267.94L320.22 237.02L348.46 257.54ZM317.52 228.72L302.58 182.74H350.92L382.49 205.68L381.25 240.04L349.24 251.78L317.51 228.72H317.52ZM643.95 245.22L677.36 257.42L705.43 237.02L695.31 268.15L670.57 294.92L650.76 265.48H616.07L643.96 245.22H643.95ZM642.98 205.8L674.72 182.74H723.08L708.13 228.72L676.55 251.67L644.26 239.87L642.98 205.81V205.8ZM861.28 257.54L894.64 245.3L922.41 265.48H887.5L867.89 294.71L843.08 267.94L833.04 237.02L861.28 257.54ZM830.35 228.72L815.41 182.74H863.75L895.32 205.68L894.08 240.04L862.07 251.78L830.34 228.72H830.35ZM1156.78 245.22L1190.19 257.42L1218.26 237.02L1208.44 267.22L1183.38 294.89L1163.58 265.48H1128.89L1156.78 245.22ZM1155.81 205.8L1187.55 182.74H1235.91L1220.96 228.72L1189.38 251.67L1157.09 239.87L1155.81 205.81V205.8ZM1374.11 257.54L1407.47 245.3L1435.24 265.48H1400.33L1380.72 294.71L1355.91 267.94L1345.87 237.02L1374.11 257.54ZM1343.17 228.72L1328.23 182.74H1376.57L1408.14 205.68L1406.9 240.04L1374.89 251.78L1343.16 228.72H1343.17ZM1669.6 245.22L1703.01 257.42L1731.08 237.02L1720.96 268.15L1696.22 294.92L1676.41 265.48H1641.72L1669.61 245.22H1669.6ZM1668.63 205.8L1700.37 182.74H1748.73L1733.78 228.72L1702.2 251.67L1669.91 239.87L1668.63 205.81V205.8ZM1863.76 328.47L1851.64 365.78L1812.53 394.2L1797.59 348.22L1809.65 311.11L1842.71 301.67L1863.76 328.48V328.47ZM1846.91 298.72L1866.78 273.38L1890.31 298.76L1866.73 323.94L1846.92 298.72H1846.91ZM1842.69 894.34L1809.7 885.29L1797.58 847.99L1812.52 802.01L1851.63 830.43L1863.69 867.54L1842.69 894.33V894.34ZM1866.79 871.91L1890.31 897.07L1866.72 922.48L1846.91 897.27L1866.79 871.92V871.91ZM1702.84 938.68L1669.37 950.96L1641.71 930.86H1676.62L1696.35 901.45L1720.89 927.81L1731.09 959.2L1702.85 938.68H1702.84ZM1733.78 967.49L1748.72 1013.47H1700.38L1668.81 990.53L1670.05 956.17L1702.06 944.43L1733.8 967.48L1733.78 967.49ZM1407.47 951.04L1373.94 938.8L1345.87 959.19L1356.14 927.59L1380.61 901.24L1400.55 930.86H1435.25L1407.48 951.04H1407.47ZM1408.32 990.42L1376.58 1013.48H1328.24L1343.18 967.5L1374.75 944.56L1407.04 956.35L1408.32 990.42ZM1190.02 938.68L1156.55 950.96L1128.89 930.86H1163.8L1183.53 901.45L1208.07 927.81L1218.27 959.2L1190.03 938.68H1190.02ZM1220.96 967.49L1235.9 1013.47H1187.56L1155.99 990.53L1157.23 956.17L1189.24 944.43L1220.98 967.48L1220.96 967.49ZM894.64 951.04L861.11 938.8L833.04 959.19L843.31 927.59L867.78 901.24L887.72 930.86H922.42L894.65 951.04H894.64ZM895.49 990.42L863.75 1013.48H815.41L830.35 967.5L861.92 944.56L894.21 956.35L895.49 990.42ZM677.19 938.68L643.72 950.96L616.06 930.86H650.97L670.7 901.45L695.24 927.81L705.44 959.2L677.2 938.68H677.19ZM708.13 967.49L723.07 1013.47H674.73L643.16 990.53L644.4 956.17L676.41 944.43L708.15 967.48L708.13 967.49ZM381.82 951.04L348.29 938.8L320.22 959.19L330.49 927.59L354.96 901.24L374.9 930.86H409.6L381.83 951.04H381.82ZM382.67 990.42L350.93 1013.48H302.59L317.53 967.5L349.1 944.56L381.39 956.35L382.67 990.42ZM187.55 867.73L199.68 830.43L238.78 802.02L253.72 848L241.66 885.11L208.79 894.28L187.55 867.74V867.73ZM204.57 897.22L184.64 922.68L160.99 897.27L184.46 872.09L204.57 897.22ZM256.41 413.35L271.35 402.5L277.06 420.06H295.53L289.82 437.63L304.76 448.48L289.82 459.33L295.53 476.89H277.06L271.35 494.45L256.41 483.6L241.47 494.45L235.76 476.89H217.31L223.02 459.34L208.07 448.48L223.01 437.63L217.3 420.06H235.77L241.48 402.5L256.42 413.35H256.41ZM243.14 397.37L256.41 356.52L269.68 397.37L256.41 407.01L243.14 397.37ZM769.24 413.35L784.18 402.5L789.89 420.06H808.36L802.65 437.63L817.59 448.48L802.65 459.33L808.36 476.89H789.89L784.18 494.45L769.24 483.6L754.3 494.45L748.59 476.89H730.14L735.85 459.34L720.9 448.48L735.84 437.63L730.13 420.06H748.6L754.31 402.5L769.25 413.35H769.24ZM755.97 397.37L769.24 356.52L782.51 397.37L769.24 407.01L755.97 397.37ZM1282.06 413.35L1297 402.5L1302.71 420.06H1321.18L1315.47 437.63L1330.41 448.48L1315.47 459.33L1321.18 476.89H1302.71L1297 494.45L1282.06 483.6L1267.12 494.45L1261.41 476.89H1242.96L1248.67 459.34L1233.72 448.48L1248.66 437.63L1242.95 420.06H1261.42L1267.13 402.5L1282.07 413.35H1282.06ZM1268.79 397.37L1282.06 356.52L1295.33 397.37L1282.06 407.01L1268.79 397.37ZM1794.89 413.35L1809.83 402.5L1815.54 420.06H1834.01L1828.3 437.63L1843.24 448.48L1828.3 459.33L1834.01 476.89H1815.54L1809.83 494.45L1794.89 483.6L1779.95 494.45L1774.24 476.89H1755.79L1761.5 459.34L1746.55 448.48L1761.49 437.63L1755.78 420.06H1774.25L1779.96 402.5L1794.9 413.35H1794.89ZM1781.62 397.37L1794.89 356.52L1808.16 397.37L1794.89 407.01L1781.62 397.37ZM1843.23 747.74L1828.29 758.59L1834 776.15H1815.53L1809.82 793.71L1794.88 782.86L1779.94 793.71L1774.23 776.15H1755.78L1761.49 758.6L1746.54 747.74L1761.48 736.89L1755.77 719.32H1774.24L1779.95 701.76L1794.89 712.61L1809.83 701.76L1815.54 719.32H1834.01L1828.3 736.89L1843.24 747.74H1843.23ZM1808.16 798.85L1794.89 839.7L1781.62 798.85L1794.89 789.21L1808.16 798.85ZM1282.06 782.87L1267.12 793.72L1261.41 776.16H1242.96L1248.67 758.61L1233.72 747.75L1248.66 736.9L1242.95 719.33H1261.42L1267.13 701.77L1282.07 712.62L1297.01 701.77L1302.72 719.33H1321.19L1315.48 736.9L1330.42 747.75L1315.48 758.6L1321.19 776.16H1302.72L1297.01 793.72L1282.07 782.87H1282.06ZM1295.33 798.85L1282.06 839.7L1268.79 798.85L1282.06 789.21L1295.33 798.85ZM769.24 782.87L754.3 793.72L748.59 776.16H730.14L735.85 758.61L720.9 747.75L735.84 736.9L730.13 719.33H748.6L754.31 701.77L769.25 712.62L784.19 701.77L789.9 719.33H808.37L802.66 736.9L817.6 747.75L802.66 758.6L808.37 776.16H789.9L784.19 793.72L769.25 782.87H769.24ZM782.51 798.85L769.24 839.7L755.97 798.85L769.24 789.21L782.51 798.85ZM256.41 782.87L241.47 793.72L235.76 776.16H217.31L223.02 758.61L208.07 747.75L223.01 736.9L217.3 719.33H235.77L241.48 701.77L256.42 712.62L271.36 701.77L277.07 719.33H295.54L289.83 736.9L304.77 747.75L289.83 758.6L295.54 776.16H277.07L271.36 793.72L256.42 782.87H256.41ZM269.68 798.85L256.41 839.7L243.14 798.85L256.41 789.21L269.68 798.85ZM512.82 563.04L527.76 552.19L533.47 569.75H551.94L546.23 587.32L561.17 598.17L546.23 609.02L551.94 626.58H533.47L527.76 644.14L512.82 633.29L497.88 644.14L492.17 626.58H473.72L479.43 609.03L464.48 598.17L479.42 587.32L473.71 569.75H492.18L497.89 552.19L512.83 563.04H512.82ZM499.55 547.06L512.82 506.22L526.09 547.06L512.82 556.7L499.55 547.06ZM1025.65 563.04L1040.59 552.19L1046.3 569.75H1064.77L1059.06 587.32L1074 598.17L1059.06 609.02L1064.77 626.58H1046.3L1040.59 644.14L1025.65 633.29L1010.71 644.14L1005 626.58H986.55L992.26 609.03L977.31 598.17L992.25 587.32L986.54 569.75H1005.01L1010.72 552.19L1025.66 563.04H1025.65ZM1012.38 547.06L1025.65 506.22L1038.92 547.06L1025.65 556.7L1012.38 547.06ZM1538.47 563.04L1553.41 552.19L1559.12 569.75H1577.59L1571.88 587.32L1586.82 598.17L1571.88 609.02L1577.59 626.58H1559.12L1553.41 644.14L1538.47 633.29L1523.53 644.14L1517.82 626.58H1499.37L1505.08 609.03L1490.13 598.17L1505.07 587.32L1499.36 569.75H1517.83L1523.54 552.19L1538.48 563.04H1538.47ZM1525.2 547.06L1538.47 506.22L1551.74 547.06L1538.47 556.7L1525.2 547.06ZM1669.49 544.45L1703.02 556.69L1731.09 536.29L1720.97 567.42L1696.23 594.07L1676.41 564.63H1641.72L1669.49 544.45ZM1668.63 505.07L1700.37 482.01H1748.73L1733.78 527.98L1702.2 550.93L1669.91 539.14L1668.63 505.08V505.07ZM1702.84 639.41L1669.26 651.73L1641.71 631.72H1676.62L1696.35 602.3L1720.88 628.55L1731.08 659.93L1702.84 639.41ZM1733.78 668.22L1748.72 714.2H1700.38L1668.81 691.26L1670.05 656.9L1702.06 645.16L1733.8 668.21L1733.78 668.22ZM1699.47 598.12L1722.94 572.83L1743.04 597.95L1723.11 623.41L1699.47 598.12ZM1673.68 569.75L1692.88 598.28L1673.89 626.59H1634.66L1595.55 598.17L1634.66 569.75H1673.68ZM1591.18 595L1577.9 585.36L1582.97 569.76H1625.92L1591.17 595.01L1591.18 595ZM1625.93 626.59H1582.98L1577.91 610.99L1591.19 601.35L1625.93 626.59ZM1579.25 631.71L1592.52 672.56L1557.77 647.32L1562.84 631.71H1579.25ZM1584.64 631.71H1632.98L1664.55 654.65L1663.31 689.01L1631.3 700.75L1599.57 677.69L1584.63 631.71H1584.64ZM1630.52 706.51L1664.1 694.19L1691.65 714.2H1656.74L1637.13 743.44L1612.33 716.9L1602.29 685.98L1630.53 706.5L1630.52 706.51ZM1659.48 719.33H1698.71L1737.82 747.75L1698.71 776.17H1659.68L1640.48 747.64L1659.47 719.33H1659.48ZM1742.18 750.92L1755.47 760.57L1750.4 776.16H1707.44L1742.19 750.92H1742.18ZM1707.43 719.33H1750.38L1755.45 734.93L1742.18 744.57L1707.43 719.32V719.33ZM1754.11 714.2L1740.84 673.35L1775.59 698.6L1770.52 714.2H1754.11ZM1738.14 665.05L1726.08 627.93L1747.27 600.86L1780.06 610.17L1792.18 647.48L1777.24 693.46L1738.13 665.04L1738.14 665.05ZM1747.26 595L1726.02 568.46L1738.15 531.16L1777.25 502.75L1792.19 548.73L1780.13 585.84L1747.26 595.01V595ZM1740.85 522.86L1754.13 482.02H1770.52L1775.59 497.62L1740.85 522.86ZM1750.4 476.89H1707.44L1742.19 451.65L1755.48 461.3L1750.41 476.89H1750.4ZM1707.43 420.05H1750.38L1755.45 435.65L1742.18 445.29L1707.43 420.04V420.05ZM1737.82 448.47L1698.71 476.89H1659.68L1640.48 448.36L1659.47 420.05H1698.7L1737.81 448.47H1737.82ZM1656.95 482.01H1691.65L1663.88 502.19L1630.35 489.95L1602.28 510.34L1612.55 478.74L1637.02 452.38L1656.96 482L1656.95 482.01ZM1631.16 495.71L1663.45 507.5L1664.73 541.57L1632.99 564.63H1584.65L1599.59 518.65L1631.16 495.71ZM1579.25 564.63H1562.84L1557.77 549.03L1592.52 523.78L1579.24 564.63H1579.25ZM1551.75 649.28L1538.48 690.13L1525.21 649.28L1538.48 639.64L1551.75 649.28ZM1156.66 544.45L1190.19 556.69L1218.26 536.29L1208.14 567.42L1183.4 594.07L1163.58 564.63H1128.89L1156.66 544.45ZM1155.81 505.07L1187.55 482.01H1235.91L1220.96 527.98L1189.38 550.93L1157.09 539.14L1155.81 505.08V505.07ZM1190.02 639.41L1156.44 651.73L1128.89 631.72H1163.8L1183.53 602.3L1208.06 628.55L1218.26 659.93L1190.02 639.41ZM1220.96 668.22L1235.9 714.2H1187.56L1155.99 691.26L1157.23 656.9L1189.24 645.16L1220.98 668.21L1220.96 668.22ZM1186.65 598.12L1210.12 572.83L1230.22 597.95L1210.29 623.41L1186.65 598.12ZM1160.85 569.75L1180.05 598.28L1161.06 626.59H1121.83L1082.72 598.17L1121.83 569.75H1160.85ZM1078.36 595L1065.08 585.36L1070.15 569.76H1113.1L1078.35 595.01L1078.36 595ZM1113.1 626.59H1070.15L1065.08 610.99L1078.36 601.35L1113.1 626.59ZM1066.43 631.71L1079.7 672.56L1044.95 647.32L1050.02 631.71H1066.43ZM1071.82 631.71H1120.16L1151.73 654.65L1150.49 689.01L1118.48 700.75L1086.75 677.69L1071.81 631.71H1071.82ZM1117.69 706.51L1151.27 694.19L1178.82 714.2H1143.91L1124.3 743.44L1099.5 716.9L1089.46 685.98L1117.7 706.5L1117.69 706.51ZM1146.65 719.33H1185.88L1224.99 747.75L1185.88 776.17H1146.85L1127.65 747.64L1146.64 719.33H1146.65ZM1229.36 750.92L1242.65 760.57L1237.58 776.16H1194.62L1229.37 750.92H1229.36ZM1194.61 719.33H1237.56L1242.63 734.93L1229.36 744.57L1194.61 719.32V719.33ZM1241.28 714.2L1228.01 673.35L1262.76 698.6L1257.69 714.2H1241.28ZM1225.32 665.05L1213.26 627.93L1234.45 600.86L1267.24 610.17L1279.36 647.48L1264.42 693.46L1225.31 665.04L1225.32 665.05ZM1242.96 597.95L1271.34 590.03L1282.06 557.02L1292.85 590.24L1321.31 598.05L1292.78 606.2L1282.06 639.2L1271.27 606L1242.95 597.96L1242.96 597.95ZM1282.06 655.79L1295.33 696.63L1282.06 706.27L1268.79 696.63L1282.06 655.79ZM1284.76 647.49L1296.82 610.38L1329.88 600.94L1350.93 627.75L1338.81 665.06L1299.69 693.48L1284.75 647.5L1284.76 647.49ZM1374.11 556.81L1407.58 544.53L1435.24 564.62H1400.33L1380.72 593.85L1355.91 567.2L1345.87 536.28L1374.11 556.8V556.81ZM1343.17 527.99L1328.23 482.01H1376.57L1408.14 504.95L1406.9 539.31L1374.89 551.05L1343.16 527.99H1343.17ZM1451.02 569.75H1493.97L1499.04 585.35L1485.77 594.99L1451.02 569.74V569.75ZM1499.06 610.99L1493.99 626.58H1451.03L1485.78 601.34L1499.07 610.99H1499.06ZM1481.41 598.17L1442.3 626.59H1403.27L1384.07 598.06L1403.06 569.75H1442.29L1481.4 598.17H1481.41ZM1407.58 651.81L1373.93 639.53L1345.86 659.92L1356.13 628.33L1380.59 602.09L1400.53 631.71H1435.23L1407.57 651.81H1407.58ZM1408.32 691.14L1376.58 714.2H1328.24L1343.18 668.22L1374.75 645.28L1407.04 657.07L1408.32 691.14ZM1377.48 597.92L1353.9 623.22L1334.09 598L1353.96 572.65L1377.48 597.92ZM1336.12 673.35L1322.84 714.2H1306.43L1301.36 698.6L1336.11 673.35H1336.12ZM1326.57 719.33H1369.52L1334.77 744.58L1321.49 734.94L1326.56 719.34L1326.57 719.33ZM1369.52 776.16H1326.57L1321.5 760.56L1334.78 750.92L1369.52 776.16ZM1339.13 747.74L1378.24 719.32H1417.26L1436.46 747.85L1417.47 776.16H1378.24L1339.13 747.74ZM1420 714.2H1385.31L1412.97 694.1L1446.61 706.38L1474.68 685.98L1464.56 717.11L1439.82 743.65L1420 714.2ZM1445.79 700.63L1413.5 688.84L1412.22 654.78L1443.96 631.72H1492.32L1477.37 677.69L1445.79 700.64V700.63ZM1497.71 631.71H1514.1L1519.17 647.31L1484.43 672.55L1497.71 631.71ZM1514.11 564.63H1497.7L1484.43 523.78L1519.18 549.03L1514.11 564.63ZM1492.3 564.63H1443.96L1412.39 541.69L1413.63 507.33L1445.64 495.59L1477.38 518.64L1492.32 564.62L1492.3 564.63ZM1446.43 489.83L1412.96 502.11L1385.3 482.01H1420.21L1439.94 452.6L1464.48 478.96L1474.68 510.35L1446.44 489.83H1446.43ZM1417.47 476.89H1378.24L1339.13 448.47L1378.24 420.05H1417.26L1436.46 448.58L1417.47 476.89ZM1334.77 445.3L1321.49 435.66L1326.56 420.06H1369.51L1334.76 445.31L1334.77 445.3ZM1369.52 476.89H1326.57L1321.5 461.29L1334.78 451.65L1369.52 476.89ZM1322.84 482.01L1336.11 522.86L1301.36 497.62L1306.43 482.01H1322.84ZM1338.81 531.17L1350.87 568.28L1329.87 595.07L1296.88 586.02L1284.76 548.72L1299.7 502.74L1338.81 531.16V531.17ZM1282.06 540.43L1268.79 499.58L1282.06 489.94L1295.33 499.58L1282.06 540.43ZM1279.37 548.72L1267.31 585.83L1234.44 595L1213.2 568.46L1225.33 531.16L1264.43 502.75L1279.37 548.73V548.72ZM1228.02 522.86L1241.3 482.02H1257.69L1262.76 497.62L1228.02 522.86ZM1237.57 476.89H1194.61L1229.36 451.65L1242.65 461.3L1237.58 476.89H1237.57ZM1194.61 420.05H1237.56L1242.63 435.65L1229.36 445.29L1194.61 420.04V420.05ZM1225 448.47L1185.89 476.89H1146.86L1127.66 448.36L1146.65 420.05H1185.88L1224.99 448.47H1225ZM1144.13 482.01H1178.83L1151.06 502.19L1117.53 489.95L1089.46 510.34L1099.73 478.74L1124.2 452.38L1144.14 482L1144.13 482.01ZM1118.33 495.71L1150.62 507.5L1151.9 541.57L1120.16 564.63H1071.82L1086.76 518.65L1118.33 495.71ZM1066.43 564.63H1050.02L1044.95 549.03L1079.7 523.78L1066.42 564.63H1066.43ZM1038.92 649.28L1025.65 690.13L1012.38 649.28L1025.65 639.64L1038.92 649.28ZM643.84 544.45L677.37 556.69L705.44 536.29L695.32 567.42L670.58 594.07L650.76 564.63H616.07L643.84 544.45ZM642.98 505.07L674.72 482.01H723.08L708.13 527.98L676.55 550.93L644.26 539.14L642.98 505.08V505.07ZM677.19 639.41L643.61 651.73L616.06 631.72H650.97L670.7 602.3L695.23 628.55L705.43 659.93L677.19 639.41ZM708.13 668.22L723.07 714.2H674.73L643.16 691.26L644.4 656.9L676.41 645.16L708.15 668.21L708.13 668.22ZM673.82 598.12L697.29 572.83L717.39 597.95L697.46 623.41L673.82 598.12ZM648.03 569.75L667.23 598.28L648.24 626.59H609.01L569.9 598.17L609.01 569.75H648.03ZM565.53 595L552.25 585.36L557.32 569.76H600.27L565.52 595.01L565.53 595ZM600.28 626.59H557.33L552.26 610.99L565.54 601.35L600.28 626.59ZM553.6 631.71L566.87 672.56L532.12 647.32L537.19 631.71H553.6ZM559 631.71H607.34L638.91 654.65L637.67 689.01L605.66 700.75L573.93 677.69L558.99 631.71H559ZM604.87 706.51L638.45 694.19L666 714.2H631.09L611.48 743.44L586.68 716.9L576.64 685.98L604.88 706.5L604.87 706.51ZM633.83 719.33H673.06L712.17 747.75L673.06 776.17H634.03L614.83 747.64L633.82 719.33H633.83ZM716.53 750.92L729.82 760.57L724.75 776.16H681.79L716.54 750.92H716.53ZM681.78 719.33H724.73L729.8 734.93L716.53 744.57L681.78 719.32V719.33ZM728.46 714.2L715.19 673.35L749.94 698.6L744.87 714.2H728.46ZM712.49 665.05L700.43 627.93L721.62 600.86L754.41 610.17L766.53 647.48L751.59 693.46L712.48 665.04L712.49 665.05ZM730.13 597.95L758.51 590.03L769.23 557.02L780.02 590.24L808.48 598.05L779.95 606.2L769.23 639.2L758.44 606L730.12 597.96L730.13 597.95ZM769.24 655.79L782.51 696.63L769.24 706.27L755.97 696.63L769.24 655.79ZM771.93 647.49L783.99 610.38L817.05 600.94L838.1 627.75L825.98 665.06L786.86 693.48L771.92 647.5L771.93 647.49ZM861.28 556.81L894.75 544.53L922.41 564.62H887.5L867.89 593.85L843.08 567.2L833.04 536.28L861.28 556.8V556.81ZM830.35 527.99L815.41 482.01H863.75L895.32 504.95L894.08 539.31L862.07 551.05L830.34 527.99H830.35ZM938.19 569.75H981.14L986.21 585.35L972.94 594.99L938.19 569.74V569.75ZM986.23 610.99L981.16 626.58H938.2L972.95 601.34L986.24 610.99H986.23ZM968.58 598.17L929.47 626.59H890.44L871.24 598.06L890.23 569.75H929.46L968.57 598.17H968.58ZM894.76 651.81L861.11 639.53L833.04 659.92L843.31 628.33L867.77 602.09L887.71 631.71H922.41L894.75 651.81H894.76ZM895.49 691.14L863.75 714.2H815.41L830.35 668.22L861.92 645.28L894.21 657.07L895.49 691.14ZM864.65 597.92L841.07 623.22L821.26 598L841.13 572.65L864.65 597.92ZM823.29 673.35L810.01 714.2H793.6L788.53 698.6L823.28 673.35H823.29ZM813.74 719.33H856.69L821.94 744.58L808.66 734.94L813.73 719.34L813.74 719.33ZM856.69 776.16H813.74L808.67 760.56L821.95 750.92L856.69 776.16ZM826.31 747.74L865.42 719.32H904.44L923.64 747.85L904.65 776.16H865.42L826.31 747.74ZM907.17 714.2H872.48L900.14 694.1L933.78 706.38L961.85 685.98L951.73 717.11L926.99 743.65L907.17 714.2ZM932.97 700.63L900.68 688.84L899.4 654.78L931.14 631.72H979.5L964.55 677.69L932.97 700.64V700.63ZM984.89 631.71H1001.28L1006.35 647.31L971.61 672.55L984.89 631.71ZM1001.28 564.63H984.87L971.6 523.78L1006.35 549.03L1001.28 564.63ZM979.48 564.63H931.14L899.57 541.69L900.81 507.33L932.82 495.59L964.56 518.64L979.5 564.62L979.48 564.63ZM933.61 489.83L900.14 502.11L872.48 482.01H907.39L927.12 452.6L951.66 478.96L961.86 510.35L933.62 489.83H933.61ZM904.65 476.89H865.42L826.31 448.47L865.42 420.05H904.44L923.64 448.58L904.65 476.89ZM821.95 445.3L808.67 435.66L813.74 420.06H856.69L821.94 445.31L821.95 445.3ZM856.69 476.89H813.74L808.67 461.29L821.95 451.65L856.69 476.89ZM810.02 482.01L823.29 522.86L788.54 497.62L793.61 482.01H810.02ZM825.98 531.17L838.04 568.28L817.04 595.07L784.05 586.02L771.93 548.72L786.87 502.74L825.98 531.16V531.17ZM769.24 540.43L755.97 499.58L769.24 489.94L782.51 499.58L769.24 540.43ZM766.54 548.72L754.48 585.83L721.61 595L700.37 568.46L712.5 531.16L751.6 502.75L766.54 548.73V548.72ZM715.2 522.86L728.48 482.02H744.87L749.94 497.62L715.2 522.86ZM724.75 476.89H681.79L716.54 451.65L729.83 461.3L724.76 476.89H724.75ZM681.78 420.05H724.73L729.8 435.65L716.53 445.29L681.78 420.04V420.05ZM712.17 448.47L673.06 476.89H634.03L614.83 448.36L633.82 420.05H673.05L712.16 448.47H712.17ZM631.3 482.01H666L638.23 502.19L604.7 489.95L576.63 510.34L586.9 478.74L611.37 452.38L631.31 482L631.3 482.01ZM605.51 495.71L637.8 507.5L639.08 541.57L607.34 564.63H559L573.94 518.65L605.51 495.71ZM553.6 564.63H537.19L532.12 549.03L566.87 523.78L553.59 564.63H553.6ZM526.1 649.28L512.83 690.13L499.56 649.28L512.83 639.64L526.1 649.28ZM348.46 556.81L381.93 544.53L409.59 564.62H374.68L355.07 593.85L330.26 567.2L320.22 536.28L348.46 556.8V556.81ZM317.52 527.99L302.58 482.01H350.92L382.49 504.95L381.25 539.31L349.24 551.05L317.51 527.99H317.52ZM425.37 569.75H468.32L473.39 585.35L460.12 594.99L425.37 569.74V569.75ZM473.41 610.99L468.34 626.58H425.38L460.13 601.34L473.42 610.99H473.41ZM455.76 598.17L416.65 626.59H377.62L358.42 598.06L377.41 569.75H416.64L455.75 598.17H455.76ZM381.93 651.81L348.28 639.53L320.21 659.92L330.48 628.33L354.94 602.09L374.88 631.71H409.58L381.92 651.81H381.93ZM382.67 691.14L350.93 714.2H302.59L317.53 668.22L349.1 645.28L381.39 657.07L382.67 691.14ZM351.83 597.92L328.25 623.22L308.44 598L328.31 572.65L351.83 597.92ZM325.28 627.74L313.16 665.05L274.04 693.47L259.1 647.49L271.16 610.38L304.22 600.94L325.27 627.75L325.28 627.74ZM310.47 673.35L297.19 714.2H280.78L275.71 698.6L310.46 673.35H310.47ZM300.92 719.33H343.87L309.12 744.58L295.84 734.94L300.91 719.34L300.92 719.33ZM343.87 776.16H300.92L295.85 760.56L309.13 750.92L343.87 776.16ZM313.48 747.74L352.59 719.32H391.61L410.81 747.85L391.82 776.16H352.59L313.48 747.74ZM394.35 714.2H359.66L387.32 694.1L420.96 706.38L449.03 685.98L438.91 717.11L414.17 743.65L394.35 714.2ZM420.14 700.63L387.85 688.84L386.57 654.78L418.31 631.72H466.67L451.72 677.69L420.14 700.64V700.63ZM472.06 631.71H488.45L493.52 647.31L458.78 672.55L472.06 631.71ZM488.46 564.63H472.05L458.78 523.78L493.53 549.03L488.46 564.63ZM466.65 564.63H418.31L386.74 541.69L387.98 507.33L419.99 495.59L451.73 518.64L466.67 564.62L466.65 564.63ZM420.78 489.83L387.31 502.11L359.65 482.01H394.56L414.29 452.6L438.83 478.96L449.03 510.35L420.79 489.83H420.78ZM391.82 476.89H352.59L313.48 448.47L352.59 420.05H391.61L410.81 448.58L391.82 476.89ZM309.12 445.3L295.84 435.66L300.91 420.06H343.86L309.11 445.31L309.12 445.3ZM343.87 476.89H300.92L295.85 461.29L309.13 451.65L343.87 476.89ZM297.19 482.01L310.46 522.86L275.71 497.62L280.78 482.01H297.19ZM313.16 531.17L325.22 568.28L304.22 595.07L271.23 586.02L259.11 548.72L274.05 502.74L313.16 531.16V531.17ZM256.41 540.43L243.14 499.58L256.41 489.94L269.68 499.58L256.41 540.43ZM267.2 590.24L295.66 598.05L267.13 606.2L256.41 639.2L245.62 606L217.3 597.96L245.68 590.04L256.4 557.03L267.19 590.25L267.2 590.24ZM269.68 696.64L256.41 706.28L243.14 696.64L256.41 655.8L269.68 696.64ZM280.78 781.29H297.19L310.46 822.14L275.71 796.9L280.78 781.29ZM302.58 781.29H350.92L382.49 804.23L381.25 838.59L349.24 850.33L317.51 827.27L302.57 781.29H302.58ZM348.46 856.08L382.04 843.76L409.59 863.77H374.68L355.07 893.01L330.27 866.47L320.23 835.55L348.47 856.07L348.46 856.08ZM386.74 840.84L387.98 806.48L419.99 794.74L451.73 817.79L466.67 863.77H418.33L386.76 840.83L386.74 840.84ZM420.78 788.98L387.2 801.3L359.65 781.29H394.56L414.29 751.87L438.82 778.12L449.02 809.5L420.78 788.98ZM417.41 747.69L440.88 722.52L460.94 747.59L441.06 772.99L417.42 747.7L417.41 747.69ZM443.96 718.16L456.09 680.86L495.19 652.45L510.13 698.43L498.07 735.54L465.2 744.71L443.96 718.17V718.16ZM502.1 739.73L512.82 706.72L523.61 739.94L551.85 747.69L523.54 755.78L512.82 788.78L502.03 755.58L473.94 747.6L502.1 739.74V739.73ZM527.64 735.72L515.52 698.42L530.46 652.44L569.57 680.86L581.63 717.97L560.63 744.76L527.64 735.71V735.72ZM584.72 722.34L608.24 747.5L584.66 772.79L564.9 747.63L584.73 722.34H584.72ZM586.9 777.9L611.36 751.66L631.3 781.28H666L638.34 801.38L604.69 789.1L576.62 809.49L586.89 777.9H586.9ZM605.51 794.86L637.8 806.65L639.08 840.72L607.34 863.78H559L573.94 817.8L605.51 794.86ZM643.72 843.68L677.36 855.96L705.43 835.56L695.31 866.69L670.57 893.23L650.75 863.78H616.06L643.72 843.68ZM676.56 850.2L644.27 838.41L642.99 804.35L674.73 781.29H723.09L708.14 827.26L676.56 850.21V850.2ZM728.48 781.29H744.87L749.94 796.89L715.2 822.13L728.48 781.29ZM793.61 781.29H810.02L823.29 822.14L788.54 796.9L793.61 781.29ZM815.41 781.29H863.75L895.32 804.23L894.08 838.59L862.07 850.33L830.34 827.27L815.4 781.29H815.41ZM861.28 856.08L894.86 843.76L922.41 863.77H887.5L867.89 893.01L843.09 866.47L833.05 835.55L861.29 856.07L861.28 856.08ZM899.56 840.84L900.8 806.48L932.81 794.74L964.55 817.79L979.49 863.77H931.15L899.58 840.83L899.56 840.84ZM933.61 788.98L900.03 801.3L872.48 781.29H907.39L927.12 751.87L951.65 778.12L961.85 809.5L933.61 788.98ZM930.23 747.69L953.7 722.52L973.76 747.59L953.88 772.99L930.24 747.7L930.23 747.69ZM956.78 718.16L968.91 680.86L1008.01 652.45L1022.95 698.43L1010.89 735.54L978.02 744.71L956.78 718.17V718.16ZM1014.93 739.73L1025.65 706.72L1036.44 739.94L1064.68 747.69L1036.37 755.78L1025.65 788.78L1014.86 755.58L986.77 747.6L1014.93 739.74V739.73ZM1040.47 735.72L1028.35 698.42L1043.29 652.44L1082.4 680.86L1094.46 717.97L1073.46 744.76L1040.47 735.71V735.72ZM1097.55 722.34L1121.07 747.5L1097.49 772.79L1077.73 747.63L1097.56 722.34H1097.55ZM1099.72 777.9L1124.18 751.66L1144.12 781.28H1178.82L1151.16 801.38L1117.51 789.1L1089.44 809.49L1099.71 777.9H1099.72ZM1118.33 794.86L1150.62 806.65L1151.9 840.72L1120.16 863.78H1071.82L1086.76 817.8L1118.33 794.86ZM1156.55 843.68L1190.19 855.96L1218.26 835.56L1208.14 866.69L1183.4 893.23L1163.58 863.78H1128.89L1156.55 843.68ZM1189.38 850.2L1157.09 838.41L1155.81 804.35L1187.55 781.29H1235.91L1220.96 827.26L1189.38 850.21V850.2ZM1241.3 781.29H1257.69L1262.76 796.89L1228.02 822.13L1241.3 781.29ZM1306.43 781.29H1322.84L1336.11 822.14L1301.36 796.9L1306.43 781.29ZM1328.23 781.29H1376.57L1408.14 804.23L1406.9 838.59L1374.89 850.33L1343.16 827.27L1328.22 781.29H1328.23ZM1374.11 856.08L1407.69 843.76L1435.24 863.77H1400.33L1380.72 893.01L1355.92 866.47L1345.88 835.55L1374.12 856.07L1374.11 856.08ZM1412.39 840.84L1413.63 806.48L1445.64 794.74L1477.38 817.79L1492.32 863.77H1443.98L1412.41 840.83L1412.39 840.84ZM1446.43 788.98L1412.85 801.3L1385.3 781.29H1420.21L1439.94 751.87L1464.47 778.12L1474.67 809.5L1446.43 788.98ZM1443.06 747.69L1466.53 722.52L1486.59 747.59L1466.71 772.99L1443.07 747.7L1443.06 747.69ZM1469.61 718.16L1481.74 680.86L1520.84 652.45L1535.78 698.43L1523.72 735.54L1490.85 744.71L1469.61 718.17V718.16ZM1527.75 739.73L1538.47 706.72L1549.26 739.94L1577.5 747.69L1549.19 755.78L1538.47 788.78L1527.68 755.58L1499.59 747.6L1527.75 739.74V739.73ZM1553.29 735.72L1541.17 698.42L1556.11 652.44L1595.22 680.86L1607.28 717.97L1586.28 744.76L1553.29 735.71V735.72ZM1610.37 722.34L1633.89 747.5L1610.31 772.79L1590.55 747.63L1610.38 722.34H1610.37ZM1612.55 777.9L1637.01 751.66L1656.95 781.28H1691.65L1663.99 801.38L1630.34 789.1L1602.27 809.49L1612.54 777.9H1612.55ZM1631.16 794.86L1663.45 806.65L1664.73 840.72L1632.99 863.78H1584.65L1599.59 817.8L1631.16 794.86ZM1669.37 843.68L1703.01 855.96L1731.08 835.56L1720.96 866.69L1696.22 893.23L1676.4 863.78H1641.71L1669.37 843.68ZM1702.2 850.2L1669.91 838.41L1668.63 804.35L1700.37 781.29H1748.73L1733.78 827.26L1702.2 850.21V850.2ZM1754.13 781.29H1770.52L1775.59 796.89L1740.85 822.13L1754.13 781.29ZM1794.89 706.28L1781.62 696.64L1794.89 655.8L1808.16 696.64L1794.89 706.28ZM1784.1 605.99L1755.78 597.95L1784.16 590.03L1794.88 557.02L1805.67 590.24L1834.13 598.05L1805.6 606.2L1794.88 639.2L1784.09 606L1784.1 605.99ZM1781.62 499.58L1794.89 489.94L1808.16 499.58L1794.89 540.43L1781.62 499.58ZM1770.52 414.93H1754.11L1740.84 374.08L1775.59 399.32L1770.52 414.92V414.93ZM1748.72 414.93H1700.38L1668.81 391.99L1670.05 357.63L1702.06 345.89L1733.79 368.95L1748.73 414.93H1748.72ZM1702.84 340.13L1669.14 352.49L1641.7 332.56H1676.61L1696.35 303.14L1720.88 329.27L1731.07 360.66L1702.83 340.14L1702.84 340.13ZM1664.56 355.5L1663.32 389.86L1631.31 401.6L1599.58 378.54L1584.64 332.56H1632.98L1664.55 355.5H1664.56ZM1630.52 407.36L1664.22 395L1691.65 414.93H1656.74L1637.12 444.18L1612.32 417.76L1602.28 386.84L1630.52 407.36ZM1633.89 448.22L1610.31 473.63L1590.55 448.48L1610.38 423.18L1633.89 448.22ZM1607.34 478.17L1595.22 515.48L1556.1 543.9L1541.16 497.92L1553.22 460.81L1586.28 451.37L1607.33 478.18L1607.34 478.17ZM1549.2 456.62L1538.48 489.62L1527.69 456.42L1499.6 448.44L1527.76 440.58L1538.48 407.57L1549.27 440.79L1577.51 448.54L1549.2 456.63V456.62ZM1523.66 460.61L1535.78 497.92L1520.84 543.9L1481.73 515.48L1469.67 478.36L1490.86 451.29L1523.65 460.6L1523.66 460.61ZM1466.71 473.83L1443.06 448.43L1466.53 423.37L1486.59 448.44L1466.71 473.83ZM1464.56 417.96L1439.82 444.38L1420 414.93H1385.31L1412.85 394.91L1446.61 407.23L1474.68 386.83L1464.56 417.95V417.96ZM1445.79 401.48L1413.5 389.69L1412.22 355.63L1443.96 332.57H1492.32L1477.37 378.54L1445.79 401.49V401.48ZM1407.7 352.58L1373.94 340.26L1345.87 360.65L1356.13 329.07L1380.6 302.94L1400.54 332.57H1435.24L1407.7 352.59V352.58ZM1374.74 346.01L1407.03 357.8L1408.31 391.87L1376.57 414.93H1328.23L1343.17 368.95L1374.74 346.01ZM1322.84 414.93H1306.43L1301.36 399.33L1336.11 374.08L1322.83 414.93H1322.84ZM1257.69 414.93H1241.28L1228.01 374.08L1262.76 399.32L1257.69 414.92V414.93ZM1235.89 414.93H1187.55L1155.98 391.99L1157.22 357.63L1189.23 345.89L1220.96 368.95L1235.9 414.93H1235.89ZM1190.02 340.13L1156.32 352.49L1128.88 332.56H1163.79L1183.53 303.14L1208.06 329.27L1218.25 360.66L1190.01 340.14L1190.02 340.13ZM1151.74 355.5L1150.5 389.86L1118.49 401.6L1086.76 378.54L1071.82 332.56H1120.16L1151.73 355.5H1151.74ZM1117.69 407.36L1151.39 395L1178.82 414.93H1143.91L1124.29 444.18L1099.49 417.76L1089.45 386.84L1117.69 407.36ZM1121.07 448.22L1097.49 473.63L1077.73 448.48L1097.56 423.18L1121.07 448.22ZM1094.52 478.17L1082.4 515.48L1043.28 543.9L1028.34 497.92L1040.4 460.81L1073.46 451.37L1094.51 478.18L1094.52 478.17ZM1036.37 456.62L1025.65 489.62L1014.86 456.42L986.77 448.44L1014.93 440.58L1025.65 407.57L1036.44 440.79L1064.68 448.54L1036.37 456.63V456.62ZM1010.83 460.61L1022.95 497.92L1008.01 543.9L968.9 515.48L956.84 478.36L978.03 451.29L1010.82 460.6L1010.83 460.61ZM953.88 473.83L930.23 448.43L953.7 423.37L973.76 448.44L953.88 473.83ZM951.73 417.96L926.99 444.38L907.17 414.93H872.48L900.02 394.91L933.78 407.23L961.85 386.83L951.73 417.95V417.96ZM932.97 401.48L900.68 389.69L899.4 355.63L931.14 332.57H979.5L964.55 378.54L932.97 401.49V401.48ZM894.87 352.58L861.11 340.26L833.04 360.65L843.3 329.07L867.77 302.94L887.71 332.57H922.41L894.87 352.59V352.58ZM861.92 346.01L894.21 357.8L895.49 391.87L863.75 414.93H815.41L830.35 368.95L861.92 346.01ZM810.02 414.93H793.61L788.54 399.33L823.29 374.08L810.01 414.93H810.02ZM744.87 414.93H728.46L715.19 374.08L749.94 399.32L744.87 414.92V414.93ZM723.07 414.93H674.73L643.16 391.99L644.4 357.63L676.41 345.89L708.14 368.95L723.08 414.93H723.07ZM677.19 340.13L643.49 352.49L616.05 332.56H650.96L670.7 303.14L695.23 329.27L705.42 360.66L677.18 340.14L677.19 340.13ZM638.91 355.5L637.67 389.86L605.66 401.6L573.93 378.54L558.99 332.56H607.33L638.9 355.5H638.91ZM604.87 407.36L638.57 395L666 414.93H631.09L611.47 444.18L586.67 417.76L576.63 386.84L604.87 407.36ZM608.24 448.22L584.66 473.63L564.9 448.48L584.73 423.18L608.24 448.22ZM581.69 478.17L569.57 515.48L530.45 543.9L515.51 497.92L527.57 460.81L560.63 451.37L581.68 478.18L581.69 478.17ZM523.55 456.62L512.83 489.62L502.04 456.42L473.95 448.44L502.11 440.58L512.83 407.57L523.62 440.79L551.86 448.54L523.55 456.63V456.62ZM498.01 460.61L510.13 497.92L495.19 543.9L456.08 515.48L444.02 478.36L465.21 451.29L498 460.6L498.01 460.61ZM441.06 473.83L417.41 448.43L440.88 423.37L460.94 448.44L441.06 473.83ZM438.91 417.96L414.17 444.38L394.35 414.93H359.66L387.2 394.91L420.96 407.23L449.03 386.83L438.91 417.95V417.96ZM420.14 401.48L387.85 389.69L386.57 355.63L418.31 332.57H466.67L451.72 378.54L420.14 401.49V401.48ZM382.05 352.58L348.29 340.26L320.22 360.65L330.48 329.07L354.95 302.94L374.89 332.57H409.59L382.05 352.59V352.58ZM349.09 346.01L381.38 357.8L382.66 391.87L350.92 414.93H302.58L317.52 368.95L349.09 346.01ZM297.19 414.93H280.78L275.71 399.33L310.46 374.08L297.18 414.93H297.19ZM232.04 414.93H215.63L202.36 374.08L237.11 399.32L232.04 414.92V414.93ZM216.98 435.66L203.71 445.3L168.96 420.05H211.91L216.98 435.65V435.66ZM216.99 461.3L211.92 476.89H168.96L203.71 451.65L217 461.3H216.99ZM215.65 482.01H232.04L237.11 497.61L202.37 522.85L215.65 482.01ZM238.78 502.75L253.72 548.73L241.66 585.84L208.79 595.01L187.55 568.47L199.68 531.17L238.78 502.76V502.75ZM204.57 597.95L184.64 623.41L161 598.12L184.47 572.83L204.57 597.95ZM208.8 600.87L241.59 610.18L253.71 647.49L238.77 693.47L199.66 665.05L187.6 627.93L208.79 600.86L208.8 600.87ZM237.11 698.6L232.04 714.2H215.63L202.36 673.35L237.11 698.6ZM216.98 734.93L203.71 744.57L168.96 719.32H211.91L216.98 734.92V734.93ZM216.99 760.57L211.92 776.16H168.96L203.71 750.92L217 760.57H216.99ZM215.65 781.29H232.04L237.11 796.89L202.37 822.13L215.65 781.29ZM245.69 889.3L256.41 856.29L267.2 889.51L295.66 897.32L267.13 905.47L256.41 938.47L245.62 905.27L217.3 897.23L245.68 889.31L245.69 889.3ZM271.23 885.29L259.11 847.99L274.05 802.01L313.16 830.43L325.22 867.54L304.22 894.33L271.23 885.28V885.29ZM328.31 871.91L351.83 897.07L328.24 922.48L308.43 897.27L328.31 871.92V871.91ZM377.62 925.73L358.42 897.2L377.41 868.89H416.64L455.75 897.31L416.64 925.73H377.61H377.62ZM460.12 900.49L473.41 910.14L468.34 925.73H425.38L460.13 900.49H460.12ZM425.37 868.9H468.32L473.39 884.5L460.12 894.14L425.37 868.89V868.9ZM472.05 863.78L458.78 822.93L493.53 848.18L488.46 863.78H472.05ZM456.08 814.63L444.02 777.51L465.21 750.44L498 759.75L510.12 797.06L495.18 843.04L456.07 814.62L456.08 814.63ZM512.82 805.37L526.09 846.21L512.82 855.85L499.55 846.21L512.82 805.37ZM515.52 797.06L527.58 759.95L560.64 750.51L581.69 777.32L569.57 814.63L530.45 843.05L515.51 797.07L515.52 797.06ZM566.88 822.92L553.6 863.77H537.19L532.12 848.17L566.87 822.92H566.88ZM557.33 868.9H600.28L565.53 894.15L552.25 884.51L557.32 868.91L557.33 868.9ZM600.28 925.73H557.33L552.26 910.13L565.54 900.49L600.28 925.73ZM569.9 897.32L609.01 868.9H648.03L667.23 897.43L648.24 925.74H609.01L569.9 897.32ZM673.82 897.27L697.29 872.09L717.4 897.22L697.47 922.68L673.82 897.27ZM700.37 867.73L712.5 830.43L751.6 802.02L766.54 848L754.48 885.11L721.61 894.28L700.37 867.74V867.73ZM758.52 889.3L769.24 856.29L780.03 889.51L808.49 897.32L779.96 905.47L769.24 938.47L758.45 905.27L730.13 897.23L758.51 889.31L758.52 889.3ZM784.05 885.29L771.93 847.99L786.87 802.01L825.98 830.43L838.04 867.54L817.04 894.33L784.05 885.28V885.29ZM841.14 871.91L864.66 897.07L841.07 922.48L821.26 897.27L841.14 871.92V871.91ZM890.44 925.73L871.24 897.2L890.23 868.89H929.46L968.57 897.31L929.46 925.73H890.43H890.44ZM972.94 900.49L986.23 910.14L981.16 925.73H938.2L972.95 900.49H972.94ZM938.19 868.9H981.14L986.21 884.5L972.94 894.14L938.19 868.89V868.9ZM984.87 863.78L971.6 822.93L1006.35 848.18L1001.28 863.78H984.87ZM968.9 814.63L956.84 777.51L978.03 750.44L1010.82 759.75L1022.94 797.06L1008 843.04L968.89 814.62L968.9 814.63ZM1025.65 805.37L1038.92 846.21L1025.65 855.85L1012.38 846.21L1025.65 805.37ZM1028.35 797.06L1040.41 759.95L1073.47 750.51L1094.52 777.32L1082.4 814.63L1043.28 843.05L1028.34 797.07L1028.35 797.06ZM1079.7 822.92L1066.42 863.77H1050.01L1044.94 848.17L1079.69 822.92H1079.7ZM1070.15 868.9H1113.1L1078.35 894.15L1065.07 884.51L1070.14 868.91L1070.15 868.9ZM1113.1 925.73H1070.15L1065.08 910.13L1078.36 900.49L1113.1 925.73ZM1082.72 897.32L1121.83 868.9H1160.85L1180.05 897.43L1161.06 925.74H1121.83L1082.72 897.32ZM1186.65 897.27L1210.12 872.09L1230.23 897.22L1210.3 922.68L1186.65 897.27ZM1213.2 867.73L1225.33 830.43L1264.43 802.02L1279.37 848L1267.31 885.11L1234.44 894.28L1213.2 867.74V867.73ZM1271.34 889.3L1282.06 856.29L1292.85 889.51L1321.31 897.32L1292.78 905.47L1282.06 938.47L1271.27 905.27L1242.95 897.23L1271.33 889.31L1271.34 889.3ZM1296.88 885.29L1284.76 847.99L1299.7 802.01L1338.81 830.43L1350.87 867.54L1329.87 894.33L1296.88 885.28V885.29ZM1353.96 871.91L1377.48 897.07L1353.89 922.48L1334.08 897.27L1353.96 871.92V871.91ZM1403.27 925.73L1384.07 897.2L1403.06 868.89H1442.29L1481.4 897.31L1442.29 925.73H1403.26H1403.27ZM1485.77 900.49L1499.06 910.14L1493.99 925.73H1451.03L1485.78 900.49H1485.77ZM1451.02 868.9H1493.97L1499.04 884.5L1485.77 894.14L1451.02 868.89V868.9ZM1497.7 863.78L1484.43 822.93L1519.18 848.18L1514.11 863.78H1497.7ZM1481.73 814.63L1469.67 777.51L1490.86 750.44L1523.65 759.75L1535.77 797.06L1520.83 843.04L1481.72 814.62L1481.73 814.63ZM1538.47 805.37L1551.74 846.21L1538.47 855.85L1525.2 846.21L1538.47 805.37ZM1541.17 797.06L1553.23 759.95L1586.29 750.51L1607.34 777.32L1595.22 814.63L1556.1 843.05L1541.16 797.07L1541.17 797.06ZM1592.53 822.92L1579.25 863.77H1562.84L1557.77 848.17L1592.52 822.92H1592.53ZM1582.98 868.9H1625.93L1591.18 894.15L1577.9 884.51L1582.97 868.91L1582.98 868.9ZM1625.93 925.73H1582.98L1577.91 910.13L1591.19 900.49L1625.93 925.73ZM1595.55 897.32L1634.66 868.9H1673.68L1692.88 897.43L1673.89 925.74H1634.66L1595.55 897.32ZM1699.47 897.27L1722.94 872.09L1743.05 897.22L1723.12 922.68L1699.47 897.27ZM1726.02 867.73L1738.15 830.43L1777.25 802.02L1792.19 848L1780.13 885.11L1747.26 894.28L1726.02 867.74V867.73ZM1784.17 889.3L1794.89 856.29L1805.68 889.51L1834.14 897.32L1805.61 905.47L1794.89 938.47L1784.1 905.27L1755.78 897.23L1784.16 889.31L1784.17 889.3ZM1814.19 796.89L1819.26 781.28H1835.67L1848.94 822.13L1814.19 796.89ZM1834.32 760.56L1847.6 750.92L1882.34 776.16H1839.39L1834.32 760.56ZM1834.32 734.93L1839.39 719.33H1882.34L1847.59 744.58L1834.31 734.94L1834.32 734.93ZM1835.67 714.2H1819.26L1814.19 698.6L1848.94 673.35L1835.66 714.2H1835.67ZM1812.52 693.47L1797.58 647.49L1809.64 610.38L1842.7 600.94L1863.75 627.75L1851.63 665.06L1812.51 693.48L1812.52 693.47ZM1846.91 597.99L1866.78 572.64L1890.3 597.91L1866.72 623.21L1846.91 597.99ZM1842.69 595.07L1809.7 586.02L1797.58 548.72L1812.52 502.74L1851.63 531.16L1863.69 568.27L1842.69 595.06V595.07ZM1814.19 497.62L1819.26 482.01H1835.67L1848.94 522.86L1814.19 497.62ZM1834.32 461.29L1847.6 451.65L1882.34 476.89H1839.39L1834.32 461.29ZM1834.32 435.66L1839.39 420.06H1882.34L1847.59 445.31L1834.31 435.67L1834.32 435.66ZM1835.67 414.93H1819.26L1814.19 399.33L1848.94 374.08L1835.66 414.93H1835.67ZM1805.61 306.92L1794.89 339.92L1784.1 306.72L1755.78 298.68L1784.16 290.76L1794.88 257.75L1805.67 290.97L1834.13 298.78L1805.6 306.93L1805.61 306.92ZM1780.07 310.91L1792.19 348.22L1777.25 394.2L1738.14 365.78L1726.08 328.67L1747.27 301.6L1780.06 310.91H1780.07ZM1723.11 324.14L1699.47 298.96L1722.95 273.56L1743.05 298.68L1723.12 324.15L1723.11 324.14ZM1673.68 270.61L1692.88 299.14L1673.89 327.45H1634.66L1595.55 299.03L1634.66 270.61H1673.68ZM1591.18 295.85L1577.9 286.21L1582.97 270.61H1625.92L1591.17 295.86L1591.18 295.85ZM1625.93 327.44H1582.98L1577.91 311.84L1591.19 302.2L1625.93 327.44ZM1579.25 332.56L1592.52 373.41L1557.77 348.17L1562.84 332.56H1579.25ZM1595.22 381.72L1607.28 418.83L1586.28 445.62L1553.29 436.57L1541.17 399.27L1556.11 353.29L1595.22 381.71V381.72ZM1538.47 390.98L1525.2 350.13L1538.47 340.49L1551.74 350.13L1538.47 390.98ZM1535.78 399.27L1523.72 436.38L1490.85 445.55L1469.61 419.01L1481.74 381.71L1520.84 353.3L1535.78 399.28V399.27ZM1484.43 373.41L1497.71 332.57H1514.1L1519.17 348.17L1484.43 373.41ZM1493.99 327.44H1451.03L1485.78 302.2L1499.07 311.85L1494 327.44H1493.99ZM1451.02 270.61H1493.97L1499.04 286.21L1485.77 295.85L1451.02 270.6V270.61ZM1481.41 299.02L1442.3 327.44H1403.27L1384.07 298.91L1403.06 270.6H1442.29L1481.4 299.02H1481.41ZM1377.48 298.76L1353.9 323.94L1334.09 298.72L1353.96 273.38L1377.49 298.76H1377.48ZM1350.93 328.47L1338.81 365.78L1299.7 394.2L1284.76 348.22L1296.82 311.11L1329.88 301.67L1350.93 328.48V328.47ZM1292.78 306.92L1282.06 339.92L1271.27 306.72L1242.95 298.68L1271.33 290.76L1282.05 257.75L1292.84 290.97L1321.3 298.78L1292.77 306.93L1292.78 306.92ZM1267.24 310.91L1279.36 348.22L1264.42 394.2L1225.31 365.78L1213.25 328.67L1234.44 301.6L1267.23 310.91H1267.24ZM1210.29 324.14L1186.63 298.94L1209.89 273.26L1230.23 298.67L1210.3 324.14H1210.29ZM1160.85 270.61L1180.05 299.14L1161.06 327.45H1121.83L1082.72 299.03L1121.83 270.61H1160.85ZM1078.36 295.85L1065.08 286.21L1070.15 270.61H1113.1L1078.35 295.86L1078.36 295.85ZM1113.1 327.44H1070.15L1065.08 311.84L1078.36 302.2L1113.1 327.44ZM1066.43 332.56L1079.7 373.41L1044.95 348.17L1050.02 332.56H1066.43ZM1082.4 381.72L1094.46 418.83L1073.46 445.62L1040.47 436.57L1028.35 399.27L1043.29 353.29L1082.4 381.71V381.72ZM1025.65 390.98L1012.38 350.13L1025.65 340.49L1038.92 350.13L1025.65 390.98ZM1022.95 399.27L1010.89 436.38L978.02 445.55L956.78 419.01L968.91 381.71L1008.01 353.3L1022.95 399.28V399.27ZM971.61 373.41L984.89 332.57H1001.28L1006.35 348.17L971.61 373.41ZM981.16 327.44H938.2L972.95 302.2L986.24 311.85L981.17 327.44H981.16ZM938.19 270.61H981.14L986.21 286.21L972.94 295.85L938.19 270.6V270.61ZM968.58 299.02L929.47 327.44H890.44L871.24 298.91L890.23 270.6H929.46L968.57 299.02H968.58ZM864.65 298.76L841.07 323.94L821.26 298.72L841.13 273.38L864.66 298.76H864.65ZM838.11 328.47L825.99 365.78L786.88 394.2L771.94 348.22L784 311.11L817.06 301.67L838.11 328.48V328.47ZM779.96 306.92L769.24 339.92L758.45 306.72L730.13 298.68L758.51 290.76L769.23 257.75L780.02 290.97L808.48 298.78L779.95 306.93L779.96 306.92ZM754.42 310.91L766.54 348.22L751.6 394.2L712.49 365.78L700.43 328.67L721.62 301.6L754.41 310.91H754.42ZM697.46 324.14L673.82 298.96L697.3 273.56L717.4 298.68L697.47 324.15L697.46 324.14ZM648.03 270.61L667.23 299.14L648.24 327.45H609.01L569.9 299.03L609.01 270.61H648.03ZM565.53 295.85L552.25 286.21L557.32 270.61H600.27L565.52 295.86L565.53 295.85ZM600.28 327.44H557.33L552.26 311.84L565.54 302.2L600.28 327.44ZM553.6 332.56L566.87 373.41L532.12 348.17L537.19 332.56H553.6ZM569.57 381.72L581.63 418.83L560.63 445.62L527.64 436.57L515.52 399.27L530.46 353.29L569.57 381.71V381.72ZM512.82 390.98L499.55 350.13L512.82 340.49L526.09 350.13L512.82 390.98ZM510.13 399.27L498.07 436.38L465.2 445.55L443.96 419.01L456.09 381.71L495.19 353.3L510.13 399.28V399.27ZM458.78 373.41L472.06 332.57H488.45L493.52 348.17L458.78 373.41ZM468.34 327.44H425.38L460.13 302.2L473.42 311.85L468.35 327.44H468.34ZM425.37 270.61H468.32L473.39 286.21L460.12 295.85L425.37 270.6V270.61ZM455.76 299.02L416.65 327.44H377.62L358.42 298.91L377.41 270.6H416.64L455.75 299.02H455.76ZM351.83 298.76L328.25 323.94L308.44 298.72L328.31 273.38L351.84 298.76H351.83ZM325.28 328.47L313.16 365.78L274.05 394.2L259.11 348.22L271.17 311.11L304.23 301.67L325.28 328.48V328.47ZM267.13 306.92L256.41 339.92L245.62 306.72L217.3 298.68L245.68 290.76L256.4 257.75L267.19 290.97L295.65 298.78L267.12 306.93L267.13 306.92ZM241.59 310.91L253.71 348.22L238.77 394.2L199.66 365.78L187.6 328.67L208.79 301.6L241.58 310.91H241.59ZM184.64 324.14L161 298.96L184.48 273.56L204.58 298.68L184.65 324.15L184.64 324.14ZM157.88 303.14L182.41 329.27L192.6 360.66L164.36 340.14L130.66 352.5L103.22 332.57H138.13L157.87 303.15L157.88 303.14ZM131.56 357.63L163.57 345.89L195.3 368.95L210.24 414.93H161.9L130.33 391.99L131.57 357.63H131.56ZM199.35 448.47L160.24 476.89H121.21L102.01 448.36L121 420.05H160.23L199.34 448.47H199.35ZM161.9 482.01H210.26L195.31 527.98L163.73 550.93L131.44 539.14L130.16 505.08L161.9 482.02V482.01ZM131.01 544.45L164.54 556.69L192.61 536.29L182.49 567.42L157.75 594.07L137.93 564.63H103.24L131.01 544.45ZM157.88 602.29L182.41 628.54L192.61 659.92L164.37 639.4L130.79 651.72L103.24 631.71H138.15L157.88 602.29ZM131.56 656.91L163.57 645.17L195.31 668.22L210.25 714.2H161.91L130.34 691.26L131.58 656.9L131.56 656.91ZM199.35 747.74L160.24 776.16H121.21L102.01 747.63L121 719.32H160.23L199.34 747.74H199.35ZM161.9 781.29H210.26L195.31 827.26L163.73 850.21L131.44 838.42L130.16 804.36L161.9 781.3V781.29ZM130.9 843.68L164.54 855.96L192.61 835.56L182.49 866.69L157.75 893.23L137.93 863.78H103.24L130.9 843.68ZM157.88 901.45L182.42 927.81L192.62 959.2L164.38 938.68L130.91 950.96L103.25 930.86H138.16L157.89 901.45H157.88ZM131.56 956.18L163.57 944.44L195.31 967.49L210.25 1013.47H161.91L130.34 990.53L131.58 956.17L131.56 956.18ZM199.34 1047.02L160.23 1075.44H121.2L102 1046.91L120.99 1018.6H160.22L199.33 1047.02H199.34ZM203.71 1050.18L217 1059.84L211.93 1075.43H168.97L203.72 1050.18H203.71ZM168.96 1018.6H211.91L216.98 1034.2L203.71 1043.84L168.96 1018.59V1018.6ZM215.63 1013.48L202.36 972.63L237.11 997.88L232.04 1013.48H215.63ZM199.67 964.33L187.61 927.21L208.8 900.14L241.59 909.45L253.71 946.76L238.77 992.74L199.66 964.32L199.67 964.33ZM256.41 955.06L269.68 995.9L256.41 1005.54L243.14 995.9L256.41 955.06ZM259.11 946.76L271.17 909.65L304.23 900.21L325.28 927.02L313.16 964.33L274.04 992.75L259.1 946.77L259.11 946.76ZM310.47 972.62L297.19 1013.47H280.78L275.71 997.87L310.46 972.62H310.47ZM300.92 1018.6H343.87L309.12 1043.85L295.85 1034.21L300.92 1018.61V1018.6ZM343.87 1075.43H300.92L295.85 1059.83L309.12 1050.19L343.87 1075.44V1075.43ZM313.48 1047.02L352.59 1018.6H391.62L410.82 1047.13L391.83 1075.44H352.6L313.49 1047.02H313.48ZM394.35 1013.48H359.65L387.43 993.3L420.96 1005.54L449.03 985.14L438.91 1016.27L414.17 1042.92L394.35 1013.48ZM420.14 999.78L387.85 987.99L386.57 953.93L418.31 930.87H466.67L451.72 976.84L420.14 999.79V999.78ZM472.06 930.86H488.45L493.52 946.46L458.78 971.7L472.06 930.86ZM537.19 930.86H553.6L566.87 971.71L532.12 946.47L537.19 930.86ZM559 930.86H607.34L638.91 953.8L637.67 988.16L605.66 999.9L573.93 976.84L558.99 930.86H559ZM604.87 1005.66L638.34 993.38L666 1013.48H631.09L611.48 1042.71L586.67 1016.06L576.63 985.14L604.87 1005.66ZM633.83 1018.6H673.06L712.17 1047.02L673.06 1075.44H634.03L614.83 1046.91L633.82 1018.6H633.83ZM716.53 1050.18L729.82 1059.84L724.75 1075.43H681.79L716.54 1050.18H716.53ZM681.78 1018.6H724.73L729.8 1034.2L716.53 1043.84L681.78 1018.59V1018.6ZM728.46 1013.48L715.19 972.63L749.94 997.88L744.87 1013.48H728.46ZM712.49 964.33L700.43 927.21L721.62 900.14L754.41 909.45L766.53 946.76L751.59 992.74L712.48 964.32L712.49 964.33ZM769.24 955.06L782.51 995.9L769.24 1005.54L755.97 995.9L769.24 955.06ZM771.93 946.76L783.99 909.65L817.05 900.21L838.1 927.02L825.98 964.33L786.86 992.75L771.92 946.77L771.93 946.76ZM823.29 972.62L810.01 1013.47H793.6L788.53 997.87L823.28 972.62H823.29ZM813.74 1018.6H856.69L821.94 1043.85L808.67 1034.21L813.74 1018.61V1018.6ZM856.69 1075.43H813.74L808.67 1059.83L821.94 1050.19L856.69 1075.44V1075.43ZM826.3 1047.02L865.41 1018.6H904.44L923.64 1047.13L904.65 1075.44H865.42L826.31 1047.02H826.3ZM907.17 1013.48H872.47L900.25 993.3L933.78 1005.54L961.85 985.14L951.73 1016.27L926.99 1042.92L907.17 1013.48ZM932.97 999.78L900.68 987.99L899.4 953.93L931.14 930.87H979.5L964.55 976.84L932.97 999.79V999.78ZM984.89 930.86H1001.28L1006.35 946.46L971.61 971.7L984.89 930.86ZM1050.02 930.86H1066.43L1079.7 971.71L1044.95 946.47L1050.02 930.86ZM1071.82 930.86H1120.16L1151.73 953.8L1150.49 988.16L1118.48 999.9L1086.75 976.84L1071.81 930.86H1071.82ZM1117.69 1005.66L1151.16 993.38L1178.82 1013.48H1143.91L1124.3 1042.71L1099.49 1016.06L1089.45 985.14L1117.69 1005.66ZM1146.65 1018.6H1185.88L1224.99 1047.02L1185.88 1075.44H1146.85L1127.65 1046.91L1146.64 1018.6H1146.65ZM1229.36 1050.18L1242.65 1059.84L1237.58 1075.43H1194.62L1229.37 1050.18H1229.36ZM1194.61 1018.6H1237.56L1242.63 1034.2L1229.36 1043.84L1194.61 1018.59V1018.6ZM1241.28 1013.48L1228.01 972.63L1262.76 997.88L1257.69 1013.48H1241.28ZM1225.32 964.33L1213.26 927.21L1234.45 900.14L1267.24 909.45L1279.36 946.76L1264.42 992.74L1225.31 964.32L1225.32 964.33ZM1282.06 955.06L1295.33 995.9L1282.06 1005.54L1268.79 995.9L1282.06 955.06ZM1284.76 946.76L1296.82 909.65L1329.88 900.21L1350.93 927.02L1338.81 964.33L1299.69 992.75L1284.75 946.77L1284.76 946.76ZM1336.12 972.62L1322.84 1013.47H1306.43L1301.36 997.87L1336.11 972.62H1336.12ZM1326.57 1018.6H1369.52L1334.77 1043.85L1321.5 1034.21L1326.57 1018.61V1018.6ZM1369.52 1075.43H1326.57L1321.5 1059.83L1334.77 1050.19L1369.52 1075.44V1075.43ZM1339.13 1047.02L1378.24 1018.6H1417.27L1436.47 1047.13L1417.48 1075.44H1378.25L1339.14 1047.02H1339.13ZM1420 1013.48H1385.3L1413.08 993.3L1446.61 1005.54L1474.68 985.14L1464.56 1016.27L1439.82 1042.92L1420 1013.48ZM1445.79 999.78L1413.5 987.99L1412.22 953.93L1443.96 930.87H1492.32L1477.37 976.84L1445.79 999.79V999.78ZM1497.71 930.86H1514.1L1519.17 946.46L1484.43 971.7L1497.71 930.86ZM1562.84 930.86H1579.25L1592.52 971.71L1557.77 946.47L1562.84 930.86ZM1584.64 930.86H1632.98L1664.55 953.8L1663.31 988.16L1631.3 999.9L1599.57 976.84L1584.63 930.86H1584.64ZM1630.52 1005.66L1663.99 993.38L1691.65 1013.48H1656.74L1637.13 1042.71L1612.32 1016.06L1602.28 985.14L1630.52 1005.66ZM1659.48 1018.6H1698.71L1737.82 1047.02L1698.71 1075.44H1659.68L1640.48 1046.91L1659.47 1018.6H1659.48ZM1742.18 1050.18L1755.47 1059.84L1750.4 1075.43H1707.44L1742.19 1050.18H1742.18ZM1707.43 1018.6H1750.38L1755.45 1034.2L1742.18 1043.84L1707.43 1018.59V1018.6ZM1754.11 1013.48L1740.84 972.63L1775.59 997.88L1770.52 1013.48H1754.11ZM1738.14 964.33L1726.08 927.21L1747.27 900.14L1780.06 909.45L1792.18 946.76L1777.24 992.74L1738.13 964.32L1738.14 964.33ZM1794.89 955.06L1808.16 995.9L1794.89 1005.54L1781.62 995.9L1794.89 955.06ZM1797.58 946.76L1809.64 909.65L1842.7 900.21L1863.75 927.02L1851.63 964.33L1812.51 992.75L1797.57 946.77L1797.58 946.76ZM1848.94 972.62L1835.66 1013.47H1819.25L1814.18 997.87L1848.93 972.62H1848.94ZM1839.39 1018.6H1882.34L1847.59 1043.85L1834.32 1034.21L1839.39 1018.61V1018.6ZM1882.34 1075.43H1839.39L1834.32 1059.83L1847.59 1050.19L1882.34 1075.44V1075.43ZM1851.95 1047.02L1891.06 1018.6H1930.09L1949.29 1047.13L1930.3 1075.44H1891.07L1851.96 1047.02H1851.95ZM1889.4 1013.48H1841.06L1856 967.5L1887.57 944.56L1919.86 956.35L1921.14 990.42L1889.4 1013.48ZM1920.29 951.04L1886.76 938.8L1858.69 959.19L1868.96 927.59L1893.43 901.24L1913.37 930.86H1948.07L1920.3 951.04H1920.29ZM1868.74 866.48L1858.7 835.56L1886.94 856.08L1920.52 843.76L1948.07 863.77H1913.16L1893.55 893.01L1868.75 866.47L1868.74 866.48ZM1919.74 838.58L1887.73 850.32L1856 827.26L1841.06 781.28H1889.4L1920.97 804.22L1919.73 838.58H1919.74ZM1851.96 747.74L1891.07 719.32H1930.09L1949.29 747.85L1930.3 776.16H1891.07L1851.96 747.74ZM1889.4 714.2H1841.06L1856 668.22L1887.57 645.28L1919.86 657.07L1921.14 691.14L1889.4 714.2ZM1920.41 651.81L1886.76 639.53L1858.69 659.92L1868.96 628.33L1893.42 602.09L1913.36 631.71H1948.06L1920.4 651.81H1920.41ZM1868.74 567.21L1858.7 536.29L1886.94 556.81L1920.41 544.53L1948.07 564.62H1913.16L1893.55 593.85L1868.74 567.2V567.21ZM1919.74 539.31L1887.73 551.05L1856 527.99L1841.06 482.01H1889.4L1920.97 504.95L1919.73 539.31H1919.74ZM1851.96 448.47L1891.07 420.05H1930.09L1949.29 448.58L1930.3 476.89H1891.07L1851.96 448.47ZM1889.4 414.93H1841.06L1856 368.95L1887.57 346.01L1919.86 357.8L1921.14 391.87L1889.4 414.93ZM1920.52 352.58L1886.76 340.26L1858.69 360.65L1868.95 329.07L1893.42 302.94L1913.36 332.57H1948.06L1920.52 352.59V352.58ZM1868.74 267.94L1858.7 237.02L1886.94 257.54L1920.3 245.3L1948.07 265.48H1913.16L1893.55 294.71L1868.74 267.94ZM1919.74 240.04L1887.73 251.78L1856 228.72L1841.06 182.74H1889.4L1920.97 205.68L1919.73 240.04H1919.74ZM1851.96 149.2L1891.07 120.78H1930.09L1949.29 149.31L1930.3 177.62H1891.07L1851.96 149.2ZM1847.6 146.03L1834.32 136.39L1839.39 120.79H1882.34L1847.59 146.04L1847.6 146.03ZM1882.34 177.61H1839.39L1834.32 162.01L1847.6 152.37L1882.34 177.61ZM1835.67 182.74L1848.94 223.59L1814.19 198.35L1819.26 182.74H1835.67ZM1851.63 231.89L1863.69 269L1842.69 295.79L1809.7 286.74L1797.58 249.44L1812.52 203.46L1851.63 231.88V231.89ZM1794.89 241.15L1781.62 200.3L1794.89 190.66L1808.16 200.3L1794.89 241.15ZM1792.19 249.45L1780.13 286.56L1747.26 295.73L1726.02 269.19L1738.14 231.89L1777.25 203.47L1792.19 249.45ZM1740.85 223.59L1754.13 182.74H1770.52L1775.59 198.35L1740.85 223.59ZM1750.4 177.61H1707.44L1742.19 152.37L1755.48 162.02L1750.41 177.61H1750.4ZM1707.43 120.78H1750.38L1755.45 136.38L1742.18 146.02L1707.43 120.77V120.78ZM1737.82 149.2L1698.71 177.62H1659.68L1640.48 149.09L1659.47 120.78H1698.7L1737.81 149.2H1737.82ZM1656.95 182.74H1691.65L1663.76 203.01L1630.34 190.81L1602.27 211.2L1612.54 179.6L1637.01 153.12L1656.94 182.73L1656.95 182.74ZM1631.16 196.56L1663.45 208.35L1664.73 242.42L1632.99 265.48H1584.65L1599.59 219.5L1631.16 196.56ZM1579.25 265.48H1562.84L1557.77 249.88L1592.52 224.63L1579.24 265.48H1579.25ZM1514.11 265.48H1497.7L1484.43 224.63L1519.18 249.88L1514.11 265.48ZM1492.3 265.48H1443.96L1412.39 242.54L1413.63 208.18L1445.64 196.44L1477.38 219.49L1492.32 265.47L1492.3 265.48ZM1446.43 190.69L1413.08 202.92L1385.3 182.74H1420.21L1439.93 153.33L1464.47 179.81L1474.67 211.2L1446.43 190.68V190.69ZM1417.47 177.61H1378.24L1339.13 149.19L1378.24 120.77H1417.26L1436.46 149.3L1417.47 177.61ZM1334.77 146.03L1321.49 136.39L1326.56 120.79H1369.51L1334.76 146.04L1334.77 146.03ZM1369.52 177.61H1326.57L1321.5 162.01L1334.78 152.37L1369.52 177.61ZM1322.84 182.74L1336.11 223.59L1301.36 198.35L1306.43 182.74H1322.84ZM1338.81 231.89L1350.87 269L1329.87 295.79L1296.88 286.74L1284.76 249.44L1299.7 203.46L1338.81 231.88V231.89ZM1282.06 241.15L1268.79 200.3L1282.06 190.66L1295.33 200.3L1282.06 241.15ZM1279.37 249.45L1267.31 286.56L1234.44 295.73L1213.2 269.19L1225.32 231.89L1264.43 203.47L1279.37 249.45ZM1228.02 223.59L1241.3 182.74H1257.69L1262.76 198.35L1228.02 223.59ZM1237.57 177.61H1194.61L1229.36 152.37L1242.65 162.02L1237.58 177.61H1237.57ZM1194.61 120.78H1237.56L1242.63 136.38L1229.36 146.02L1194.61 120.77V120.78ZM1225 149.2L1185.89 177.62H1146.86L1127.66 149.09L1146.65 120.78H1185.88L1224.99 149.2H1225ZM1144.13 182.74H1178.83L1150.94 203.01L1117.52 190.81L1089.45 211.2L1099.72 179.6L1124.19 153.12L1144.12 182.73L1144.13 182.74ZM1118.33 196.56L1150.62 208.35L1151.9 242.42L1120.16 265.48H1071.82L1086.76 219.5L1118.33 196.56ZM1066.43 265.48H1050.02L1044.95 249.88L1079.7 224.63L1066.42 265.48H1066.43ZM1001.28 265.48H984.87L971.6 224.63L1006.35 249.88L1001.28 265.48ZM979.48 265.48H931.14L899.57 242.54L900.81 208.18L932.82 196.44L964.56 219.49L979.5 265.47L979.48 265.48ZM933.61 190.69L900.26 202.92L872.48 182.74H907.39L927.11 153.33L951.65 179.81L961.85 211.2L933.61 190.68V190.69ZM904.65 177.61H865.42L826.31 149.19L865.42 120.77H904.44L923.64 149.3L904.65 177.61ZM821.95 146.03L808.67 136.39L813.74 120.79H856.69L821.94 146.04L821.95 146.03ZM856.69 177.61H813.74L808.67 162.01L821.95 152.37L856.69 177.61ZM810.02 182.74L823.29 223.59L788.54 198.35L793.61 182.74H810.02ZM825.98 231.89L838.04 269L817.04 295.79L784.05 286.74L771.93 249.44L786.87 203.46L825.98 231.88V231.89ZM769.24 241.15L755.97 200.3L769.24 190.66L782.51 200.3L769.24 241.15ZM766.54 249.45L754.48 286.56L721.61 295.73L700.37 269.19L712.49 231.89L751.6 203.47L766.54 249.45ZM715.2 223.59L728.48 182.74H744.87L749.94 198.35L715.2 223.59ZM724.75 177.61H681.79L716.54 152.37L729.83 162.02L724.76 177.61H724.75ZM681.78 120.78H724.73L729.8 136.38L716.53 146.02L681.78 120.77V120.78ZM712.17 149.2L673.06 177.62H634.03L614.83 149.09L633.82 120.78H673.05L712.16 149.2H712.17ZM631.3 182.74H666L638.11 203.01L604.69 190.81L576.62 211.2L586.89 179.6L611.36 153.12L631.29 182.73L631.3 182.74ZM605.51 196.56L637.8 208.35L639.08 242.42L607.34 265.48H559L573.94 219.5L605.51 196.56ZM553.6 265.48H537.19L532.12 249.88L566.87 224.63L553.59 265.48H553.6ZM488.46 265.48H472.05L458.78 224.63L493.53 249.88L488.46 265.48ZM466.65 265.48H418.31L386.74 242.54L387.98 208.18L419.99 196.44L451.73 219.49L466.67 265.47L466.65 265.48ZM420.78 190.69L387.43 202.92L359.65 182.74H394.56L414.28 153.33L438.82 179.81L449.02 211.2L420.78 190.68V190.69ZM391.82 177.61H352.59L313.48 149.19L352.59 120.77H391.61L410.81 149.3L391.82 177.61ZM309.12 146.03L295.84 136.39L300.91 120.79H343.86L309.11 146.04L309.12 146.03ZM343.87 177.61H300.92L295.85 162.01L309.13 152.37L343.87 177.61ZM297.19 182.74L310.46 223.59L275.71 198.35L280.78 182.74H297.19ZM313.16 231.89L325.22 269L304.22 295.79L271.23 286.74L259.11 249.44L274.05 203.46L313.16 231.88V231.89ZM256.41 241.15L243.14 200.3L256.41 190.66L269.68 200.3L256.41 241.15ZM253.72 249.45L241.66 286.56L208.79 295.73L187.55 269.19L199.67 231.89L238.78 203.47L253.72 249.45ZM202.37 223.59L215.65 182.74H232.04L237.11 198.35L202.37 223.59ZM211.92 177.61H168.96L203.71 152.37L217 162.02L211.93 177.61H211.92ZM168.96 120.78H211.91L216.98 136.38L203.71 146.02L168.96 120.77V120.78ZM199.35 149.2L160.24 177.62H121.21L102.01 149.09L121 120.78H160.23L199.34 149.2H199.35ZM118.48 182.74H153.18L125.29 203.01L91.87 190.81L63.8 211.2L74.07 179.6L98.54 153.12L118.47 182.73L118.48 182.74ZM92.68 196.56L124.97 208.35L126.25 242.42L94.51 265.48H46.17L61.11 219.5L92.68 196.56ZM96.18 270.61H135.2L154.4 299.14L135.41 327.45H96.18L57.07 299.03L96.18 270.61ZM126.09 355.5L124.85 389.86L92.84 401.6L61.11 378.54L46.17 332.56H94.51L126.08 355.5H126.09ZM92.04 407.36L125.74 395L153.17 414.93H118.26L98.64 444.18L73.84 417.76L63.8 386.84L92.04 407.36ZM95.42 448.22L71.84 473.63L52.08 448.48L71.91 423.18L95.42 448.22ZM74.07 478.75L98.54 452.39L118.48 482.01H153.18L125.41 502.19L91.88 489.95L63.81 510.34L74.08 478.74L74.07 478.75ZM92.68 495.71L124.97 507.5L126.25 541.57L94.51 564.63H46.17L61.11 518.65L92.68 495.71ZM96.18 569.75H135.2L154.4 598.28L135.41 626.59H96.18L57.07 598.17L96.18 569.75ZM126.09 654.65L124.85 689.01L92.84 700.75L61.11 677.69L46.17 631.71H94.51L126.08 654.65H126.09ZM92.04 706.51L125.62 694.19L153.17 714.2H118.26L98.65 743.44L73.85 716.9L63.81 685.98L92.05 706.5L92.04 706.51ZM95.42 747.49L71.84 772.78L52.08 747.62L71.91 722.33L95.43 747.49H95.42ZM74.07 777.9L98.53 751.66L118.47 781.28H153.17L125.51 801.38L91.86 789.1L63.79 809.49L74.06 777.9H74.07ZM92.68 794.86L124.97 806.65L126.25 840.72L94.51 863.78H46.17L61.11 817.8L92.68 794.86ZM96.18 868.9H135.2L154.4 897.43L135.41 925.74H96.18L57.07 897.32L96.18 868.9ZM126.09 953.8L124.85 988.16L92.84 999.9L61.11 976.84L46.17 930.86H94.51L126.08 953.8H126.09ZM92.04 1005.66L125.51 993.38L153.17 1013.48H118.26L98.65 1042.71L73.84 1016.06L63.8 985.14L92.04 1005.66ZM95.42 1046.76L71.84 1071.94L52.08 1046.78L71.9 1021.49L95.42 1046.76ZM74.07 1077.06L98.54 1050.93L118.48 1080.56H153.18L125.63 1100.58L91.87 1088.26L63.8 1108.65L74.06 1077.07L74.07 1077.06ZM161.9 1080.56H210.26L195.31 1126.53L163.73 1149.48L131.44 1137.69L130.16 1103.62L161.9 1080.56ZM215.65 1080.56H232.04L237.11 1096.16L202.37 1121.4L215.65 1080.56ZM235.77 1075.43H217.32L223.03 1057.88L208.08 1047.02L223.02 1036.17L217.31 1018.6H235.78L241.49 1001.04L256.43 1011.89L271.37 1001.04L277.08 1018.6H295.55L289.84 1036.17L304.78 1047.02L289.84 1057.87L295.55 1075.44H277.08L271.37 1093L256.43 1082.15L241.49 1093L235.78 1075.44L235.77 1075.43ZM280.78 1080.56H297.19L310.46 1121.42L275.71 1096.17L280.78 1080.56ZM302.58 1080.56H350.92L382.49 1103.5L381.25 1137.86L349.24 1149.6L317.51 1126.54L302.57 1080.56H302.58ZM359.65 1080.56H394.56L414.3 1051.14L438.83 1077.27L449.03 1108.65L420.79 1088.13L387.09 1100.49L359.65 1080.56ZM417.41 1046.96L440.88 1021.67L460.93 1046.73L441.04 1072.13L417.4 1046.95L417.41 1046.96ZM443.96 1017.31L456.09 980.01L495.19 951.6L510.13 997.58L498.07 1034.69L465.2 1043.86L443.96 1017.32V1017.31ZM502.1 1038.88L512.82 1005.87L523.61 1039.09L551.85 1046.84L523.54 1054.93L512.82 1087.93L502.03 1054.73L473.94 1046.75L502.1 1038.89V1038.88ZM527.64 1034.87L515.52 997.57L530.46 951.59L569.57 980.01L581.63 1017.12L560.63 1043.91L527.64 1034.86V1034.87ZM584.72 1021.49L608.24 1046.76L584.66 1071.94L564.9 1046.78L584.72 1021.49ZM586.89 1077.06L611.36 1050.93L631.3 1080.56H666L638.45 1100.58L604.69 1088.26L576.62 1108.65L586.88 1077.07L586.89 1077.06ZM674.72 1080.56H723.08L708.13 1126.53L676.55 1149.48L644.26 1137.69L642.98 1103.62L674.72 1080.56ZM728.48 1080.56H744.87L749.94 1096.16L715.2 1121.4L728.48 1080.56ZM748.59 1075.43H730.14L735.85 1057.88L720.9 1047.02L735.84 1036.17L730.13 1018.6H748.6L754.31 1001.04L769.25 1011.89L784.19 1001.04L789.9 1018.6H808.37L802.66 1036.17L817.6 1047.02L802.66 1057.87L808.37 1075.44H789.9L784.19 1093L769.25 1082.15L754.31 1093L748.6 1075.44L748.59 1075.43ZM793.61 1080.56H810.02L823.29 1121.42L788.54 1096.17L793.61 1080.56ZM815.41 1080.56H863.75L895.32 1103.5L894.08 1137.86L862.07 1149.6L830.34 1126.54L815.4 1080.56H815.41ZM872.47 1080.56H907.38L927.12 1051.14L951.65 1077.27L961.85 1108.65L933.61 1088.13L899.91 1100.49L872.47 1080.56ZM930.23 1046.96L953.7 1021.67L973.75 1046.73L953.86 1072.13L930.22 1046.95L930.23 1046.96ZM956.78 1017.31L968.91 980.01L1008.01 951.6L1022.95 997.58L1010.89 1034.69L978.02 1043.86L956.78 1017.32V1017.31ZM1014.93 1038.88L1025.65 1005.87L1036.44 1039.09L1064.68 1046.84L1036.37 1054.93L1025.65 1087.93L1014.86 1054.73L986.77 1046.75L1014.93 1038.89V1038.88ZM1040.47 1034.87L1028.35 997.57L1043.29 951.59L1082.4 980.01L1094.46 1017.12L1073.46 1043.91L1040.47 1034.86V1034.87ZM1097.54 1021.49L1121.06 1046.76L1097.48 1071.94L1077.72 1046.78L1097.54 1021.49ZM1099.72 1077.06L1124.19 1050.93L1144.13 1080.56H1178.83L1151.28 1100.58L1117.52 1088.26L1089.45 1108.65L1099.71 1077.07L1099.72 1077.06ZM1187.55 1080.56H1235.91L1220.96 1126.53L1189.38 1149.48L1157.09 1137.69L1155.81 1103.62L1187.55 1080.56ZM1241.3 1080.56H1257.69L1262.76 1096.16L1228.02 1121.4L1241.3 1080.56ZM1261.42 1075.43H1242.97L1248.68 1057.88L1233.73 1047.02L1248.67 1036.17L1242.96 1018.6H1261.43L1267.14 1001.04L1282.08 1011.89L1297.02 1001.04L1302.73 1018.6H1321.2L1315.49 1036.17L1330.43 1047.02L1315.49 1057.87L1321.2 1075.44H1302.73L1297.02 1093L1282.08 1082.15L1267.14 1093L1261.43 1075.44L1261.42 1075.43ZM1306.43 1080.56H1322.84L1336.11 1121.42L1301.36 1096.17L1306.43 1080.56ZM1328.23 1080.56H1376.57L1408.14 1103.5L1406.9 1137.86L1374.89 1149.6L1343.16 1126.54L1328.22 1080.56H1328.23ZM1385.3 1080.56H1420.21L1439.95 1051.14L1464.48 1077.27L1474.68 1108.65L1446.44 1088.13L1412.74 1100.49L1385.3 1080.56ZM1443.06 1046.96L1466.53 1021.67L1486.58 1046.73L1466.69 1072.13L1443.05 1046.95L1443.06 1046.96ZM1469.61 1017.31L1481.74 980.01L1520.84 951.6L1535.78 997.58L1523.72 1034.69L1490.85 1043.86L1469.61 1017.32V1017.31ZM1527.75 1038.88L1538.47 1005.87L1549.26 1039.09L1577.5 1046.84L1549.19 1054.93L1538.47 1087.93L1527.68 1054.73L1499.59 1046.75L1527.75 1038.89V1038.88ZM1553.29 1034.87L1541.17 997.57L1556.11 951.59L1595.22 980.01L1607.28 1017.12L1586.28 1043.91L1553.29 1034.86V1034.87ZM1610.37 1021.49L1633.89 1046.76L1610.31 1071.94L1590.55 1046.78L1610.37 1021.49ZM1612.54 1077.06L1637.01 1050.93L1656.95 1080.56H1691.65L1664.1 1100.58L1630.34 1088.26L1602.27 1108.65L1612.53 1077.07L1612.54 1077.06ZM1700.37 1080.56H1748.73L1733.78 1126.53L1702.2 1149.48L1669.91 1137.69L1668.63 1103.62L1700.37 1080.56ZM1754.13 1080.56H1770.52L1775.59 1096.16L1740.85 1121.4L1754.13 1080.56ZM1774.24 1075.43H1755.79L1761.5 1057.88L1746.55 1047.02L1761.49 1036.17L1755.78 1018.6H1774.25L1779.96 1001.04L1794.9 1011.89L1809.84 1001.04L1815.55 1018.6H1834.02L1828.31 1036.17L1843.25 1047.02L1828.31 1057.87L1834.02 1075.44H1815.55L1809.84 1093L1794.9 1082.15L1779.96 1093L1774.25 1075.44L1774.24 1075.43ZM1819.26 1080.56H1835.67L1848.94 1121.42L1814.19 1096.17L1819.26 1080.56ZM1841.06 1080.56H1889.4L1920.97 1103.5L1919.73 1137.86L1887.72 1149.6L1855.99 1126.54L1841.05 1080.56H1841.06ZM1898.12 1080.56H1933.03L1952.77 1051.14L1977.3 1077.27L1987.5 1108.65L1959.26 1088.13L1925.56 1100.49L1898.12 1080.56ZM1955.88 1046.96L1979.35 1021.67L1999.4 1046.73L1979.51 1072.13L1955.87 1046.95L1955.88 1046.96ZM1977.38 1016.26L1952.64 1042.91L1932.82 1013.47H1898.12L1925.9 993.29L1959.43 1005.53L1987.5 985.13L1977.38 1016.26ZM1958.62 999.78L1926.33 987.99L1925.05 953.93L1956.79 930.87H2005.15L1990.2 976.84L1958.62 999.79V999.78ZM1955.12 925.73H1916.09L1896.89 897.2L1915.88 868.89H1955.11L1994.22 897.31L1955.11 925.73H1955.12ZM1925.21 840.84L1926.45 806.48L1958.46 794.74L1990.2 817.79L2005.14 863.77H1956.8L1925.23 840.83L1925.21 840.84ZM1959.26 788.98L1925.68 801.3L1898.13 781.29H1933.04L1952.77 751.87L1977.3 778.12L1987.5 809.5L1959.26 788.98ZM1955.88 747.69L1979.35 722.52L1999.41 747.59L1979.53 772.99L1955.89 747.7L1955.88 747.69ZM1977.38 717.11L1952.64 743.65L1932.82 714.2H1898.13L1925.79 694.1L1959.43 706.38L1987.5 685.98L1977.38 717.11ZM1958.62 700.63L1926.33 688.84L1925.05 654.78L1956.79 631.72H2005.15L1990.2 677.69L1958.62 700.64V700.63ZM1955.12 626.59H1916.09L1896.89 598.06L1915.88 569.75H1955.11L1994.22 598.17L1955.11 626.59H1955.12ZM1925.21 541.69L1926.45 507.33L1958.46 495.59L1990.2 518.64L2005.14 564.62H1956.8L1925.23 541.68L1925.21 541.69ZM1959.26 489.83L1925.79 502.11L1898.13 482.01H1933.04L1952.77 452.6L1977.31 478.96L1987.51 510.35L1959.27 489.83H1959.26ZM1955.88 448.42L1979.35 423.36L1999.41 448.43L1979.53 473.82L1955.88 448.42ZM1977.38 417.96L1952.64 444.38L1932.82 414.93H1898.13L1925.67 394.91L1959.43 407.23L1987.5 386.83L1977.38 417.95V417.96ZM1958.62 401.48L1926.33 389.69L1925.05 355.63L1956.79 332.57H2005.15L1990.2 378.54L1958.62 401.49V401.48ZM1955.12 327.44H1916.09L1896.89 298.91L1915.88 270.6H1955.11L1994.22 299.02L1955.11 327.44H1955.12ZM1925.21 242.54L1926.45 208.18L1958.46 196.44L1990.2 219.49L2005.14 265.47H1956.8L1925.23 242.53L1925.21 242.54ZM1959.26 190.69L1925.91 202.92L1898.13 182.74H1933.04L1952.76 153.33L1977.3 179.81L1987.5 211.2L1959.26 190.68V190.69ZM1955.88 149.16L1979.34 124.21L1999.41 149.29L1979.54 174.68L1955.89 149.16H1955.88ZM1977.38 118.81L1952.65 145.11L1932.82 115.65H1898.13L1925.56 95.72L1959.43 108.08L1987.5 87.68L1977.38 118.8V118.81ZM1889.4 115.66H1841.06L1856 69.68L1887.57 46.74L1919.86 58.53L1921.14 92.6L1889.4 115.66ZM1835.67 115.66H1819.26L1814.19 100.06L1848.94 74.81L1835.66 115.66H1835.67ZM1815.53 120.78H1834L1828.29 138.35L1843.23 149.2L1828.29 160.05L1834 177.61H1815.53L1809.82 195.17L1794.88 184.32L1779.94 195.17L1774.23 177.61H1755.78L1761.49 160.06L1746.54 149.2L1761.48 138.35L1755.77 120.78H1774.24L1779.95 103.22L1794.89 114.07L1809.83 103.22L1815.54 120.78H1815.53ZM1770.52 115.66H1754.11L1740.84 74.81L1775.59 100.05L1770.52 115.65V115.66ZM1748.72 115.66H1700.38L1668.81 92.72L1670.05 58.36L1702.06 46.62L1733.79 69.68L1748.73 115.66H1748.72ZM1691.65 115.66H1656.74L1637.12 144.91L1612.33 118.61L1602.29 87.69L1630.53 108.21L1664.34 95.8L1691.66 115.65L1691.65 115.66ZM1633.89 148.96L1610.3 174.48L1590.55 149.33L1610.39 124.02L1633.9 148.95L1633.89 148.96ZM1607.34 179.02L1595.22 216.33L1556.1 244.75L1541.16 198.77L1553.22 161.66L1586.28 152.22L1607.33 179.03L1607.34 179.02ZM1549.2 157.47L1538.48 190.47L1527.69 157.27L1499.6 149.29L1527.76 141.43L1538.48 108.42L1549.27 141.64L1577.51 149.39L1549.2 157.48V157.47ZM1523.66 161.46L1535.78 198.77L1520.84 244.75L1481.73 216.33L1469.67 179.21L1490.86 152.14L1523.65 161.45L1523.66 161.46ZM1466.71 174.68L1443.06 149.16L1466.52 124.21L1486.59 149.29L1466.72 174.68H1466.71ZM1464.56 118.81L1439.83 145.11L1420 115.65H1385.31L1412.74 95.72L1446.61 108.08L1474.68 87.68L1464.56 118.8V118.81ZM1376.58 115.66H1328.24L1343.18 69.68L1374.75 46.74L1407.04 58.53L1408.32 92.6L1376.58 115.66ZM1322.84 115.66H1306.43L1301.36 100.06L1336.11 74.81L1322.83 115.66H1322.84ZM1302.71 120.78H1321.18L1315.47 138.35L1330.41 149.2L1315.47 160.05L1321.18 177.61H1302.71L1297 195.17L1282.06 184.32L1267.12 195.17L1261.41 177.61H1242.96L1248.67 160.06L1233.72 149.2L1248.66 138.35L1242.95 120.78H1261.42L1267.13 103.22L1282.07 114.07L1297.01 103.22L1302.72 120.78H1302.71ZM1257.69 115.66H1241.28L1228.01 74.81L1262.76 100.05L1257.69 115.65V115.66ZM1235.89 115.66H1187.55L1155.98 92.72L1157.22 58.36L1189.23 46.62L1220.96 69.68L1235.9 115.66H1235.89ZM1178.83 115.66H1143.92L1124.3 144.91L1099.51 118.61L1089.47 87.69L1117.71 108.21L1151.52 95.8L1178.84 115.65L1178.83 115.66ZM1121.07 148.96L1097.48 174.48L1077.73 149.33L1097.57 124.02L1121.08 148.95L1121.07 148.96ZM1094.52 179.02L1082.4 216.33L1043.28 244.75L1028.34 198.77L1040.4 161.66L1073.46 152.22L1094.51 179.03L1094.52 179.02ZM1036.37 157.47L1025.65 190.47L1014.86 157.27L986.77 149.29L1014.93 141.43L1025.65 108.42L1036.44 141.64L1064.68 149.39L1036.37 157.48V157.47ZM1010.83 161.46L1022.95 198.77L1008.01 244.75L968.9 216.33L956.84 179.21L978.03 152.14L1010.82 161.45L1010.83 161.46ZM953.89 174.68L930.24 149.16L953.7 124.21L973.77 149.29L953.9 174.68H953.89ZM951.73 118.81L927 145.11L907.17 115.65H872.48L899.91 95.72L933.78 108.08L961.85 87.68L951.73 118.8V118.81ZM863.75 115.66H815.41L830.35 69.68L861.92 46.74L894.21 58.53L895.49 92.6L863.75 115.66ZM810.02 115.66H793.61L788.54 100.06L823.29 74.81L810.01 115.66H810.02ZM789.88 120.78H808.35L802.64 138.35L817.58 149.2L802.64 160.05L808.35 177.61H789.88L784.17 195.17L769.23 184.32L754.29 195.17L748.58 177.61H730.13L735.84 160.06L720.89 149.2L735.83 138.35L730.12 120.78H748.59L754.3 103.22L769.24 114.07L784.18 103.22L789.89 120.78H789.88ZM744.87 115.66H728.46L715.19 74.81L749.94 100.05L744.87 115.65V115.66ZM723.07 115.66H674.73L643.16 92.72L644.4 58.36L676.41 46.62L708.14 69.68L723.08 115.66H723.07ZM666 115.66H631.09L611.47 144.91L586.68 118.61L576.64 87.69L604.88 108.21L638.69 95.8L666.01 115.65L666 115.66ZM608.24 148.96L584.65 174.48L564.9 149.33L584.74 124.02L608.25 148.95L608.24 148.96ZM581.69 179.02L569.57 216.33L530.45 244.75L515.51 198.77L527.57 161.66L560.63 152.22L581.68 179.03L581.69 179.02ZM523.55 157.47L512.83 190.47L502.04 157.27L473.95 149.29L502.11 141.43L512.83 108.42L523.62 141.64L551.86 149.39L523.55 157.48V157.47ZM498.01 161.46L510.13 198.77L495.19 244.75L456.08 216.33L444.02 179.21L465.21 152.14L498 161.45L498.01 161.46ZM441.06 174.68L417.41 149.16L440.87 124.21L460.94 149.29L441.07 174.68H441.06ZM438.91 118.81L414.18 145.11L394.35 115.65H359.66L387.09 95.72L420.96 108.08L449.03 87.68L438.91 118.8V118.81ZM350.93 115.66H302.59L317.53 69.68L349.1 46.74L381.39 58.53L382.67 92.6L350.93 115.66ZM297.19 115.66H280.78L275.71 100.06L310.46 74.81L297.18 115.66H297.19ZM277.06 120.78H295.53L289.82 138.35L304.76 149.2L289.82 160.05L295.53 177.61H277.06L271.35 195.17L256.41 184.32L241.47 195.17L235.76 177.61H217.31L223.02 160.06L208.07 149.2L223.01 138.35L217.3 120.78H235.77L241.48 103.22L256.42 114.07L271.36 103.22L277.07 120.78H277.06ZM232.04 115.66H215.63L202.36 74.81L237.11 100.05L232.04 115.65V115.66ZM210.24 115.66H161.9L130.33 92.72L131.57 58.36L163.58 46.62L195.31 69.68L210.25 115.66H210.24ZM153.18 115.66H118.27L98.65 144.91L73.86 118.61L63.82 87.69L92.06 108.21L125.87 95.8L153.19 115.65L153.18 115.66ZM95.42 148.96L71.83 174.48L52.08 149.33L71.92 124.02L95.43 148.95L95.42 148.96ZM24.37 265.48L19.3 249.88L54.05 224.63L40.77 265.48H24.36H24.37ZM39.43 286.21L44.5 270.61H87.45L52.7 295.86L39.42 286.22L39.43 286.21ZM52.71 302.19L87.45 327.43H44.5L39.43 311.83L52.71 302.19ZM24.37 332.56H40.78L54.05 373.41L19.3 348.17L24.37 332.56ZM14.82 436.57L2.7 399.27L17.64 353.29L56.75 381.71L68.81 418.82L47.81 445.61L14.82 436.56V436.57ZM2.7 497.92L14.76 460.81L47.82 451.37L68.87 478.18L56.75 515.49L17.63 543.91L2.69 497.93L2.7 497.92ZM24.37 564.63L19.3 549.03L54.05 523.78L40.77 564.63H24.36H24.37ZM39.43 585.36L44.5 569.76H87.45L52.7 595.01L39.42 585.37L39.43 585.36ZM52.71 601.34L87.45 626.58H44.5L39.43 610.98L52.71 601.34ZM24.37 631.71H40.78L54.05 672.56L19.3 647.32L24.37 631.71ZM14.82 735.72L2.7 698.42L17.64 652.44L56.75 680.86L68.81 717.97L47.81 744.76L14.82 735.71V735.72ZM2.7 797.06L14.76 759.95L47.82 750.51L68.87 777.32L56.75 814.63L17.63 843.05L2.69 797.07L2.7 797.06ZM24.37 863.78L19.3 848.18L54.05 822.93L40.77 863.78H24.36H24.37ZM39.43 884.51L44.5 868.91H87.45L52.7 894.16L39.42 884.52L39.43 884.51ZM52.71 900.49L87.45 925.73H44.5L39.43 910.13L52.71 900.49ZM24.37 930.86H40.78L54.05 971.71L19.3 946.47L24.37 930.86ZM14.82 1034.87L2.7 997.57L17.64 951.59L56.75 980.01L68.81 1017.12L47.81 1043.91L14.82 1034.86V1034.87ZM2.7 1096.21L14.76 1059.1L47.82 1049.66L68.87 1076.47L56.75 1113.78L17.63 1142.2L2.69 1096.22L2.7 1096.21ZM24.37 1162.92L19.3 1147.32L54.05 1122.07L40.77 1162.92H24.36H24.37ZM52.71 1193.34L39.43 1183.65L44.5 1168.05H87.45L52.7 1193.34H52.71ZM94.51 1162.92H46.17L61.11 1116.94L92.68 1094L124.97 1105.79L126.25 1139.86L94.51 1162.92ZM182.49 1165.95L157.75 1192.41L137.93 1162.92H103.24L130.78 1142.9L164.54 1155.22L192.61 1134.82L182.49 1165.94V1165.95ZM241.66 1184.38L208.79 1193.64L187.55 1167.01L199.68 1129.71L238.78 1101.3L253.72 1147.28L241.66 1184.39V1184.38ZM243.14 1098.12L256.41 1088.48L269.68 1098.12L256.41 1138.96L243.14 1098.12ZM304.21 1193.7L271.22 1184.57L259.1 1147.27L274.04 1101.29L313.15 1129.71L325.21 1166.82L304.21 1193.69V1193.7ZM374.68 1162.92L355.06 1192.25L330.26 1165.75L320.22 1134.84L348.46 1155.36L382.16 1143L409.59 1162.93H374.68V1162.92ZM386.74 1139.98L387.98 1105.62L419.99 1093.88L451.73 1116.93L466.67 1162.91H418.33L386.76 1139.97L386.74 1139.98ZM460.12 1193.34L425.37 1168.05H468.32L473.39 1183.65L460.12 1193.34ZM488.46 1162.92H472.05L458.78 1122.07L493.53 1147.32L488.46 1162.92ZM495.19 1142.19L456.08 1113.77L444.02 1076.65L465.21 1049.58L498 1058.89L510.12 1096.2L495.18 1142.18L495.19 1142.19ZM512.82 1155L499.55 1145.36L512.82 1104.52L526.09 1145.36L512.82 1155ZM515.52 1096.21L527.58 1059.1L560.64 1049.66L581.69 1076.47L569.57 1113.78L530.45 1142.2L515.51 1096.22L515.52 1096.21ZM537.19 1162.92L532.12 1147.32L566.87 1122.07L553.59 1162.92H537.18H537.19ZM565.53 1193.34L552.25 1183.65L557.32 1168.05H600.27L565.52 1193.34H565.53ZM607.34 1162.92H559L573.94 1116.94L605.51 1094L637.8 1105.79L639.08 1139.86L607.34 1162.92ZM695.32 1165.95L670.58 1192.41L650.76 1162.92H616.07L643.61 1142.9L677.37 1155.22L705.44 1134.82L695.32 1165.94V1165.95ZM754.48 1184.38L721.61 1193.64L700.37 1167.01L712.5 1129.71L751.6 1101.3L766.54 1147.28L754.48 1184.39V1184.38ZM755.97 1098.12L769.24 1088.48L782.51 1098.12L769.24 1138.96L755.97 1098.12ZM817.04 1193.7L784.05 1184.57L771.93 1147.27L786.87 1101.29L825.98 1129.71L838.04 1166.82L817.04 1193.69V1193.7ZM887.5 1162.92L867.88 1192.25L843.08 1165.75L833.04 1134.84L861.28 1155.36L894.98 1143L922.41 1162.93H887.5V1162.92ZM899.56 1139.98L900.8 1105.62L932.81 1093.88L964.55 1116.93L979.49 1162.91H931.15L899.58 1139.97L899.56 1139.98ZM972.94 1193.34L938.19 1168.05H981.14L986.21 1183.65L972.94 1193.34ZM1001.28 1162.92H984.87L971.6 1122.07L1006.35 1147.32L1001.28 1162.92ZM1008.02 1142.19L968.91 1113.77L956.85 1076.65L978.04 1049.58L1010.83 1058.89L1022.95 1096.2L1008.01 1142.18L1008.02 1142.19ZM1025.65 1155L1012.38 1145.36L1025.65 1104.52L1038.92 1145.36L1025.65 1155ZM1028.35 1096.21L1040.41 1059.1L1073.47 1049.66L1094.52 1076.47L1082.4 1113.78L1043.28 1142.2L1028.34 1096.22L1028.35 1096.21ZM1050.02 1162.92L1044.95 1147.32L1079.7 1122.07L1066.42 1162.92H1050.01H1050.02ZM1078.36 1193.38L1065.08 1183.65L1070.15 1168.05H1113.1L1078.35 1193.38H1078.36ZM1120.16 1162.92H1071.82L1086.76 1116.94L1118.33 1094L1150.62 1105.79L1151.9 1139.86L1120.16 1162.92ZM1208.14 1165.95L1183.4 1192.41L1163.58 1162.92H1128.89L1156.43 1142.9L1190.19 1155.22L1218.26 1134.82L1208.14 1165.94V1165.95ZM1267.31 1184.38L1234.44 1193.6L1213.2 1167.01L1225.33 1129.71L1264.43 1101.3L1279.37 1147.28L1267.31 1184.39V1184.38ZM1268.79 1098.12L1282.06 1088.48L1295.33 1098.12L1282.06 1138.96L1268.79 1098.12ZM1329.86 1193.66L1296.87 1184.57L1284.75 1147.27L1299.69 1101.29L1338.8 1129.71L1350.86 1166.82L1329.86 1193.65V1193.66ZM1400.33 1162.92L1380.71 1192.25L1355.91 1165.75L1345.87 1134.84L1374.11 1155.36L1407.81 1143L1435.24 1162.93H1400.33V1162.92ZM1412.39 1139.98L1413.63 1105.62L1445.64 1093.88L1477.38 1116.93L1492.32 1162.91H1443.98L1412.41 1139.97L1412.39 1139.98ZM1485.77 1193.38L1451.02 1168.05H1493.97L1499.04 1183.65L1485.77 1193.38ZM1514.11 1162.92H1497.7L1484.43 1122.07L1519.18 1147.32L1514.11 1162.92ZM1520.84 1142.19L1481.73 1113.77L1469.67 1076.65L1490.86 1049.58L1523.65 1058.89L1535.77 1096.2L1520.83 1142.18L1520.84 1142.19ZM1538.47 1155L1525.2 1145.36L1538.47 1104.52L1551.74 1145.36L1538.47 1155ZM1541.17 1096.21L1553.23 1059.1L1586.29 1049.66L1607.34 1076.47L1595.22 1113.78L1556.1 1142.2L1541.16 1096.22L1541.17 1096.21ZM1562.84 1162.92L1557.77 1147.32L1592.52 1122.07L1579.24 1162.92H1562.83H1562.84ZM1591.18 1193.34L1577.9 1183.65L1582.97 1168.05H1625.92L1591.17 1193.34H1591.18ZM1632.99 1162.92H1584.65L1599.59 1116.94L1631.16 1094L1663.45 1105.79L1664.73 1139.86L1632.99 1162.92ZM1720.97 1165.95L1696.23 1192.41L1676.41 1162.92H1641.72L1669.26 1142.9L1703.02 1155.22L1731.09 1134.82L1720.97 1165.94V1165.95ZM1780.13 1184.38L1747.26 1193.64L1726.02 1167.01L1738.15 1129.71L1777.25 1101.3L1792.19 1147.28L1780.13 1184.39V1184.38ZM1781.62 1098.12L1794.89 1088.48L1808.16 1098.12L1794.89 1138.96L1781.62 1098.12ZM1842.69 1193.7L1809.7 1184.57L1797.58 1147.27L1812.52 1101.29L1851.63 1129.71L1863.69 1166.82L1842.69 1193.69V1193.7ZM1913.15 1162.92L1893.53 1192.25L1868.73 1165.75L1858.69 1134.84L1886.93 1155.36L1920.63 1143L1948.06 1162.93H1913.15V1162.92ZM1925.21 1139.98L1926.45 1105.62L1958.46 1093.88L1990.2 1116.93L2005.14 1162.91H1956.8L1925.23 1139.97L1925.21 1139.98ZM1998.59 1193.34L1963.84 1168.05H2006.79L2011.86 1183.65L1998.59 1193.34ZM2026.93 1162.92H2010.52L1997.25 1122.07L2032 1147.32L2026.93 1162.92ZM2036.48 1058.9L2048.6 1096.21L2033.66 1142.19L1994.55 1113.77L1982.49 1076.65L2003.68 1049.58L2036.47 1058.89L2036.48 1058.9ZM2048.6 997.57L2036.54 1034.68L2003.67 1043.85L1982.43 1017.31L1994.56 980.01L2033.66 951.6L2048.6 997.58V997.57ZM2026.93 930.86L2032 946.46L1997.26 971.7L2010.54 930.86H2026.93ZM2011.88 910.14L2006.81 925.73H1963.85L1998.6 900.49L2011.89 910.14H2011.88ZM1998.59 894.15L1963.84 868.9H2006.79L2011.86 884.5L1998.59 894.14V894.15ZM2026.93 863.78H2010.52L1997.25 822.93L2032 848.18L2026.93 863.78ZM2036.48 759.75L2048.6 797.06L2033.66 843.04L1994.55 814.62L1982.49 777.5L2003.68 750.43L2036.47 759.74L2036.48 759.75ZM2048.6 698.42L2036.54 735.53L2003.67 744.7L1982.43 718.16L1994.56 680.86L2033.66 652.45L2048.6 698.43V698.42ZM2026.93 631.71L2032 647.31L1997.26 672.55L2010.54 631.71H2026.93ZM2011.88 610.99L2006.81 626.58H1963.85L1998.6 601.34L2011.89 610.99H2011.88ZM1998.59 595L1963.84 569.75H2006.79L2011.86 585.35L1998.59 594.99V595ZM2026.93 564.63H2010.52L1997.25 523.78L2032 549.03L2026.93 564.63ZM2036.48 460.61L2048.6 497.92L2033.66 543.9L1994.55 515.48L1982.49 478.36L2003.68 451.29L2036.47 460.6L2036.48 460.61ZM2048.6 399.27L2036.54 436.38L2003.67 445.55L1982.43 419.01L1994.56 381.71L2033.66 353.3L2048.6 399.28V399.27ZM2026.93 332.56L2032 348.16L1997.26 373.4L2010.54 332.56H2026.93ZM2011.88 311.85L2006.81 327.44H1963.85L1998.6 302.2L2011.89 311.85H2011.88ZM1998.59 295.85L1963.84 270.6H2006.79L2011.86 286.2L1998.59 295.84V295.85ZM2026.93 265.48H2010.52L1997.25 224.63L2032 249.88L2026.93 265.48ZM2036.48 161.46L2048.6 198.77L2033.66 244.75L1994.55 216.33L1982.49 179.21L2003.68 152.14L2036.47 161.45L2036.48 161.46ZM2048.6 100.13L2036.54 137.24L2003.67 146.41L1982.43 119.87L1994.56 82.57L2033.66 54.16L2048.6 100.14V100.13ZM2026.93 33.42L2032 49.02L1997.26 74.26L2010.54 33.42H2026.93ZM1998.59 3.09L2011.88 12.7L2006.81 28.29H1963.85L1998.6 3.09H1998.59ZM1956.79 33.42H2005.15L1990.2 79.39L1958.62 102.34L1926.33 90.55L1925.05 56.49L1956.79 33.43V33.42ZM1868.96 29.8L1893.42 3.87L1913.37 33.42H1948.07L1920.64 53.35L1886.76 40.99L1858.69 61.38L1868.95 29.8H1868.96ZM1809.64 11.83L1842.7 2.64L1863.75 29.19L1851.63 66.5L1812.51 94.92L1797.57 48.95L1809.63 11.83H1809.64ZM1808.16 98.09L1794.89 107.73L1781.62 98.09L1794.89 57.24L1808.16 98.09ZM1747.27 2.58L1780.06 11.64L1792.18 48.95L1777.24 94.92L1738.13 66.5L1726.07 29.39L1747.26 2.57L1747.27 2.58ZM1676.62 33.42L1696.36 3.99L1720.88 30L1731.08 61.39L1702.84 40.87L1669.03 53.27L1641.71 33.42H1676.62ZM1664.56 56.36L1663.32 90.72L1631.31 102.46L1599.58 79.4L1584.64 33.42H1632.98L1664.55 56.36H1664.56ZM1591.18 3.09L1625.92 28.29H1582.97L1577.9 12.69L1591.18 3.09ZM1562.84 33.42H1579.25L1592.52 74.27L1557.77 49.03L1562.84 33.42ZM1556.11 54.15L1595.22 82.57L1607.28 119.68L1586.28 146.47L1553.29 137.42L1541.17 100.12L1556.11 54.14V54.15ZM1538.47 41.34L1551.74 50.98L1538.47 91.83L1525.2 50.98L1538.47 41.34ZM1535.78 100.13L1523.72 137.24L1490.85 146.41L1469.61 119.87L1481.74 82.57L1520.84 54.16L1535.78 100.14V100.13ZM1514.11 33.42L1519.18 49.02L1484.44 74.26L1497.72 33.42H1514.11ZM1485.77 3.05L1499.06 12.7L1493.99 28.29H1451.03L1485.78 3.05H1485.77ZM1443.96 33.42H1492.32L1477.37 79.39L1445.79 102.34L1413.5 90.55L1412.22 56.49L1443.96 33.43V33.42ZM1356.13 29.8L1380.59 3.87L1400.54 33.42H1435.24L1407.81 53.35L1373.93 40.99L1345.86 61.38L1356.12 29.8H1356.13ZM1296.82 11.83L1329.88 2.64L1350.93 29.19L1338.81 66.5L1299.69 94.92L1284.75 48.95L1296.81 11.83H1296.82ZM1295.33 98.09L1282.06 107.73L1268.79 98.09L1282.06 57.24L1295.33 98.09ZM1234.45 2.62L1267.24 11.64L1279.36 48.95L1264.42 94.92L1225.31 66.5L1213.25 29.39L1234.44 2.62H1234.45ZM1163.8 33.42L1183.54 3.99L1208.06 30L1218.26 61.39L1190.02 40.87L1156.21 53.27L1128.89 33.42H1163.8ZM1151.74 56.36L1150.5 90.72L1118.49 102.46L1086.76 79.4L1071.82 33.42H1120.16L1151.73 56.36H1151.74ZM1078.36 3.09L1113.1 28.29H1070.15L1065.08 12.69L1078.36 3.09ZM1050.02 33.42H1066.43L1079.7 74.27L1044.95 49.03L1050.02 33.42ZM1043.28 54.15L1082.39 82.57L1094.45 119.68L1073.45 146.47L1040.46 137.42L1028.34 100.12L1043.28 54.14V54.15ZM1025.65 41.34L1038.92 50.98L1025.65 91.83L1012.38 50.98L1025.65 41.34ZM1022.95 100.13L1010.89 137.24L978.02 146.41L956.78 119.87L968.91 82.57L1008.01 54.16L1022.95 100.14V100.13ZM1001.28 33.42L1006.35 49.02L971.61 74.26L984.89 33.42H1001.28ZM972.94 3.09L986.23 12.7L981.16 28.29H938.2L972.95 3.09H972.94ZM931.14 33.42H979.5L964.55 79.39L932.97 102.34L900.68 90.55L899.4 56.49L931.14 33.43V33.42ZM843.31 29.8L867.77 3.87L887.72 33.42H922.42L894.99 53.35L861.11 40.99L833.04 61.38L843.3 29.8H843.31ZM783.99 11.83L817.05 2.64L838.1 29.19L825.98 66.5L786.86 94.92L771.92 48.95L783.98 11.83H783.99ZM782.51 98.09L769.24 107.73L755.97 98.09L769.24 57.24L782.51 98.09ZM721.62 2.58L754.41 11.64L766.53 48.95L751.59 94.92L712.48 66.5L700.42 29.39L721.61 2.57L721.62 2.58ZM650.97 33.42L670.71 3.99L695.23 30L705.43 61.39L677.19 40.87L643.38 53.27L616.06 33.42H650.97ZM638.91 56.36L637.67 90.72L605.66 102.46L573.93 79.4L558.99 33.42H607.33L638.9 56.36H638.91ZM565.53 3.09L600.27 28.29H557.32L552.25 12.69L565.53 3.09ZM537.19 33.42H553.6L566.87 74.27L532.12 49.03L537.19 33.42ZM530.46 54.15L569.57 82.57L581.63 119.68L560.63 146.47L527.64 137.42L515.52 100.12L530.46 54.14V54.15ZM512.82 41.34L526.09 50.98L512.82 91.83L499.55 50.98L512.82 41.34ZM510.13 100.13L498.07 137.24L465.2 146.41L443.96 119.87L456.09 82.57L495.19 54.16L510.13 100.14V100.13ZM488.46 33.42L493.53 49.02L458.79 74.26L472.07 33.42H488.46ZM460.12 3.09L473.41 12.7L468.34 28.29H425.38L460.13 3.09H460.12ZM418.31 33.42H466.67L451.72 79.39L420.14 102.34L387.85 90.55L386.57 56.49L418.31 33.43V33.42ZM330.48 29.8L354.94 3.87L374.89 33.42H409.59L382.16 53.35L348.28 40.99L320.21 61.38L330.47 29.8H330.48ZM271.17 11.83L304.23 2.64L325.28 29.19L313.16 66.5L274.04 94.92L259.1 48.95L271.16 11.83H271.17ZM269.68 98.09L256.41 107.73L243.14 98.09L256.41 57.24L269.68 98.09ZM208.8 2.58L241.59 11.64L253.71 48.95L238.77 94.92L199.66 66.5L187.6 29.39L208.79 2.57L208.8 2.58ZM138.15 33.42L157.89 3.99L182.41 30L192.61 61.39L164.37 40.87L130.56 53.27L103.24 33.42H138.15ZM126.09 56.36L124.85 90.72L92.84 102.46L61.11 79.4L46.17 33.42H94.51L126.08 56.36H126.09ZM52.71 3.09L87.45 28.29H44.5L39.43 12.69L52.71 3.09ZM24.37 33.42H40.78L54.05 74.27L19.3 49.03L24.37 33.42ZM17.63 54.15L56.74 82.57L68.8 119.68L47.8 146.47L14.81 137.42L2.7 100.13L17.64 54.15H17.63Z" fill="var(--fill-0, #013030)" fill-opacity="0.25"/>
</g>
<defs>
<clipPath id="clip0_21_36">
<rect width="2051.3" height="1196.59" fill="white"/>
</clipPath>
</defs>
</svg>
